<mxfile host="app.diagrams.net" agent="Mozilla/5.0 (Windows NT 10.0; Win64; x64) AppleWebKit/537.36 (KHTML, like Gecko) Chrome/134.0.0.0 Safari/537.36" version="26.1.1">
  <diagram name="PÃ¡gina-1" id="uFiq59nU5eHGAMFylvch">
    <mxGraphModel dx="1035" dy="501" grid="1" gridSize="10" guides="1" tooltips="1" connect="1" arrows="1" fold="1" page="1" pageScale="1" pageWidth="827" pageHeight="1169" math="0" shadow="0">
      <root>
        <mxCell id="0" />
        <mxCell id="1" parent="0" />
        <mxCell id="ky9Ritnjeez94bwjMqiF-1" value="" style="shape=image;verticalLabelPosition=bottom;labelBackgroundColor=default;verticalAlign=top;aspect=fixed;imageAspect=0;image=data:image/png,iVBORw0KGgoAAAANSUhEUgAAArgAAACuCAYAAADd0H6AAAAAAXNSR0IArs4c6QAAAARnQU1BAACxjwv8YQUAAAAJcEhZcwAADsMAAA7DAcdvqGQAAP+lSURBVHhe7J0JXFTl+sd/A8yKwoCCuLCK4AqhhFvgkiYlueZVccGrXv9mZlqut9wSl8wsK0xxVzQVKTU1b5EilmKYIIuAkQIpAikuLLINz/+dBWYGhjnDopXN937oerb3PO/z/J7nfc+Zc2Z4xIARI0aMGDFixIgRI88IJqr/N2LEiBEjRowYMWLkmcA4wTVixIgRI0aMGDHyTGGc4BoxYsSIESNGjBh5pjBOcI0YMWLEiBEjRow8U9Se4JZkIGr3B1i6+F0Ef3EMifmVqg2NR5Z5HGvnv4+IdJlqjZqyX3Zh0fzPEf1AtcLIE0SGm8fWYMGms6rlBlKahcSUe2g6hfw1KM1KRMq9Z61XuihFVmIKnv2uPgv9bGQfZDdxbM0CbDp7T7WiiXl4HiEL3seR67Vre1Mh+/0kPnhnPj46na1a00AqruHLZfOx4fSdZ652/Xk00ZhiKI3U88PzIVjw/pGqhSeu3fqgZds/kqar19oT3KJLCB7cA0MW7sfP15Pwvw2T8Hz38dh7o2kCL7vzI/Z+thtRv1eo1qipSDuBkM+O4MojY8l58siQHb0HIeGXVcsNgBWYL0Z4Y/KBrGdqkJDd/AIjvCfjQNazrkM2IH0xAt6TD+DZ7uqz0M8m6IMsG9F7QhB++cncQagsjEdEyC6cvVW7tjcNZYgNWYTg02Xw8LFTrWsgFTcRue0zfBnzh3GC22Q0wZhSHxql50oUxkcgZJdyMv7ktVsftG3759G09VpjgluJ3/ctx4fJz+Pji1fwv6+O4fyVrzBNcBSrP7/IyosRIxpQIfL+KHzmBggqzMMfhf+EYY9QmPcHnv2uPgv9/KfESg+y28i1HI3NB9ZhsLXxyTojRp5NmrbWaVUK876z8dnOtZjQ3ky5opkLnFvxUPjoETvtU+Th13jTdyI27F+HMc/ZQcIXwtrdH4uPZ7H5vZLKvHP4KKgf3G3NwTc1g6iFGwa+EYaUUtUOuqjMRdT6QPjYW0BgJoJNxyGY92UKSlSbH379JnwnrsOuFSPQpaUIAvN26P36l0hJCsPrvo5oLhDAym0oVkffV+8/fi12LB8KNyshhFJn+E4PxeWHis1A/hHM8g3EkqWj0cnaHNZeC3G2WG5GFNYH+sDeQgAzkQ06DpmHL1OqrcClz4PQt4MNzNn5LB28MSY4EjmqgDeo3yhG0r45eNHNGiKBJdoPWoLv8zQjWoncqPUI9LGHhYC1adMRQ+axfleZVJPKbITNnIxtqaVI3zURfYN2IuMPHX1lk8VzHwWhn7stzPmmrK8t4DbwDYRVGcsZZ32+eIiv3/TF+LU7sHyoG6yEQkidfTE99DLbUkUZbh5fhpFebdCMbwaxbSf4zzuAaywGcvKPzIJv4BIsHd0J1ubWeG7WfzFz8jaklqZj18S+CNqZwfbi8M3DS/g8qC862JhDwHzr4D0GwZE5eib++TgyyxeBS5ZidCdrmFt7YSETBZcmuPrKpQvtvlqh69BhmLwtFaXpuzCxbxB2ZjCPc+SHLjhzoJJDA4zipL2YPbADrESsX64vYfG+TzHDdxr2/l7JDj+EmX2H4YNY9SV2RcLHGNVXuV1BnXZXIjtsZv37WZ+YKjQ8Hmt3LMdQNysIhVI4+05HaLUDmApvHseykV5o04wPM7EtOvnPw4EqEdahBzV19KHsJo4vGwmvNs3ANxPDtpM/5h24xjJdRXES9s15EW7WrI5ZtsegJd9DK+U5cqM29awRWjRev5DdQWJ0JH7+TaWDeuddPeHw78NLnyOobwfYmAuYfx3gPSYYkVVFuhZcNYR7vKvIOoVVY33gKBWCL7ZBl1ffw4ks5db65b41vBaeVehj7+yBSn00Y+Pc9BBsmPkCxnyapDyIM2+5xhQufekf52rBqefG6LMGeurDgxPz0d9vHo4rpwBKCv+HxQP74235Si6/1TEn0If++lE/Lf4V6nXdY90TqNfyH3qoRXkuJZ/7mkLm+FGbFr3p/Zgi1YbGUXpxAXUUONPsMyWqNWqK9o8ic0E/+jhTRnQ3lPxFImrm/CIt2RdFsTHHKdi/DfFbT6FjBfK979LhQDsSdRhHn56OpcTEGDr+4Uhy4ktp5L57ivZqU06J6/1IatWDZmw+RTFxF+ir1cPJWeJKM0/dV+xxN9SfhHwxOQ5ZQREX4ih68xhy5FtQC4fn6T9bI+nnmAha2EdKot7r1PsLRNTyuWn0xfcX6NyBJTTAjk8O/z5KcitkOZtpkMCEJJ4zaN/58xR+OJryShNpvZ+UrHrMoM2nYijuwle0ergzSVxnktyM8p//S93MO1JQ6BmKS7pCpz8aSQ6CdjT9VKH8jA3oN1HhmbfITdiSXnhnL0VdjKKwRf3JzoxH/L7rFdvLE9eTn9SKeszYTKdi4ujCV6tpuLOEXGeeIqVnalJACUeDaaQTn+yHL6fQo/F0T0dfUw8Gkp2oA4379DTFJiZSzPEPFcdIR+5T+Icrzly+CPUXkkDUkp6b9gV9f+EcHVgygOz4DvTvo0pfFJ1fRN0klmz7Z3TyQgxF7pxHfW0E5DT1KOXJZJSzeRAJTCTkOWMfnT8fTodPR9HRYLk/7Wn48lA6Gn+fwzfl9PN/u5F5xyAKPRNHSVdO00cjHUjQbjopTNSFLIc2DxKQicSTZuw7T+fDD1N09lW9muDuK5cuavd17649FDzSifj2w2l56FGKv8+dH7rgyoG7hzk0UHiW5roLybrXHNp19iKd3c1i1NacRIK+tD69gmS3PqUBYiea9YO6ZpT++Da5iZXbufK6IOFoPftZz5jKNSwUkKjlczTti+/pwrkDtGSAHfEd/k2K0BSdp0XdJGTJ/PPZyQsUE7mT5vW1IYHTVDqax2qdLj3I12tQuw9FdH5RN5JYsnN+dpIuxETSznl9yUbgRFOP5rFoF9KZt9xI2PIFemdvFF2MCqNF/e3IjMenvuvTFW3qzw3FLlpw1QhdcVLTWP0ySk7R9LZiGrIljy00IO80eXyCptoJqPvyq6wlXXD4t/xn+m83c+oYFEpn4pLoyumPaKSDgNpNP8U8XxvO+so13pXG0SqfZmTpNZ22fB9Ll8+E0lR2fumQELpRUf/cPxx9gyLfVOljz1mKiT5Ey/zt2T5m1GlhjNwizrzlGlO49KW/tteEW8/1G8NkdOvTASR2mqVc0tKu/vogy9lNw62smG/vKo6Vc//weLKVBtD2OzJOv+mcE2jlm7ZtnPWjnlr80+t1uf75T1PXa50T3IrUj+lVN2eyayak1n5v0+HUx6otjaNeE1w2aPhtvMnCraQ0ag61Fz1PwdeYk2S5dOnAJtp1Tl7MVZRG09wOIno++BrJh71alETS644i6rU2VWP7XQobbU0Ww3aRvGwqg181cDJKvqeZDnxynPk9KT0go+zPXyRR62mKJcX+wp60JrmqRbZ9ewBJLV6lHbkypZiFIhoUcrvazpLI18lR1IvWpmpYeTeMRltb0LBdefQ4IpCsm/tS8JUHymMqMui7rSF0LIlVuob0m01GIybakNjvI6rqFslu09aXLUigKEYlFPm6I4l6rSVtk0aTtcUwYibppjyBVvQQk8d7VxSDRO2+yij30gHatOucRgKXUvTcDiR6PpjkYeSKs15fqAZNYc81pHZ/Nm0PkJLFqzsoV1ZA4eNbkLj3Wkqp7heLz85hJJUMpM8yyxWFXygaRCG3qw1k3VpBPcQe9N4Vea+4fPOYIgKtqblvMF15oGyjIuM72hpyjBQm6kIxoRGSaFAIVZ2WSxOcfWUXpPp1oRzktPtaTgkrepDY4z1SdpU7P3ShPwfKOTVQ+NUkshH11ui7jDK/GELNDS2YnHbXt5/1jKlCw0LquSa5uj1Z9nYKkFrQqzty6WH4eGohZv1Ti5Bt30nDpBIa+FkmyXTooTY1+lAQTuNbiKn32hR1H5gedg6TkmTgZ5T5MIIm2ojJ76N0tU23t9LLFgLVhIArN2oawl0jDJngNly/DK0JbgPyThOuCS6Xf4siKNC6OfkGXyHl6Sso47utFHIsiXm2JgbUV446qPi30IPevVyq2sry5odgmjDtc7pU3IDcv/8ljWH2Dw5h+lOuIbp3iMbb8lUTXK7azTWmcOtLf22vQQGXnus7humZ4HLWh3w6NM6WpMN2Uo7C8Hu0/7UW1PK1/Wwv7jFP15xAG23bCrjqx+P6aFEutT+3XnOPdU1br3U+zGTqPhfH027gdsYZzDLdg8ljVuFSUzyEy+OBh0pU6nreQT7ZZlvZLkp4Uri42lU/Q2EilaI5rwJlZexgE1v4jJ0E74cRWLtoFiaPGgTvzsMRki5DZWWlzscpZNnxSLxTgdQto+DZtSu6Kv76YcX5Yjy+nox0Vf94Fu3h1tZUtSBBM7EZWjvag69YYQKJRAyeTP0wuqmzH/q7qvZn2217+cC1LBVJ11X78Kzg6Git6ocM2fGJuFORii2jPFU2sL9+K3C++DGuJ6fDZMBkTHL4BUu926Cd52BMWvw1CnzGYGiXZg3qNyoykJRSgLZe3rCvNtMWfXp1gOJBFFk24hPvoCJ1C0Z5VvmlK/qtOI/ix9eRXOUYQ9DqK/OFz1hM8n6IiLWLMGvyKAzy7ozhIemQMVurNaAnziJ9vlBgCme//lC73xa9fFxRlpqE6yU3kJhaBPvevnCp2i63ya8vOsvSkHCtXLGGZ+UIx7qe6eP0jQkGTJ4Eh1+WwrtNO3gOnoTFXxfAZ8xQVJuoEx6sHB2hPC23JpQR0NPXSsN0oa+vhuaHLurOgUoODciQmZyKR3bd0dNJfXxbvxfQUfWUFBf1tZt7f1H9Y2rqDL/+rixCSkxse8HHtQypSdfwa2Iqiux7w1ctQrbdD307y5CWcA0qFWrogZuKG4lILbJHb1+X6nPK9eDXtzNkaQlITE9CSkFbeHnba9jUB706qJxaYVhuVNMkNaLx+lXTgBjVAy7/XjMdgMmTHPDLUm+0aeeJwZMW4+sCH4wZ2gW1Tm+o7+qsgzLkJ1/Dbcvu8OkiUG0FzAe+i7Dtb8BHXP/cr/g1ASnFjnjep031+SDtjV5dlKOcQgv68racY0wxQF/ctV1NRQaHnptwDOOuD1Z4JXAozM8dwTe58o/kv8HhHwR4ma1rweU3dTA0xkl9VOAGV/0Q1UOLKv68em3oWKemsfVar1kmLfpg/rxX8flrkYj87X307KR2ckMwYZNDMYpQ8KhmyarEo4ePUMETQ2LOwi7fzDOFaY3TVc195c+Ahk/1xaRDj9HZzw89uvlhyuhXcfHdRUhT7VKL0lLmPAv0CFyAoBr9MGneEVWPHfP4fNVkVg2P2VIXPBHrk6ZSTc1YEhIrLqpleT/Mqi1nZrAQWvRA4IIgaJthguYd28PMyhafXIzDywf3I+LkdzizfSH2b9qAEVuiET5FhK/q22+WJDIZa91MM9Q8iERClT9LoTQpEAuCOqkLuhyT5uhY5RhD0OprJbLDp8J30iE87uwHvx7d4DdlNF69+C4WaRqrL85WQ+r2xVRLtgPrh1isVShMzVhjxJKRRVt+HWLG17afx+JjJr/Ikik1yGMn1whPDbh9Y2X7CS7GvYyD+yNw8rsz2L5wPzZtGIEt0eGYqlGUtOGxPptV95NTE4p/6+mrgfmgt68G5ocu6s4BQzTALmuZNk017OJJJBBr2VmjXrB22fWwEgPszlUtKzBgf6sh9YwpTwSxtgOgDA1ToVKE2oWWaV6ejpWVMlXPtPXACZv0VLAWtaXN2lA2Clm5jA0lJopzVMNsFAmrzmBYbqgxoEbUmBPXpvH61aTeMaoPXP4lKwz95CLiXj6I/REn8d2Z7Vi4fxM2jNiCaKZ37dMbWF/11MHyClbAma/4ugTS4NxX5qduuPKWa0wxQF96a7vGhYUc1n/9em7CMcyA+tBs8AQMtx6FI8du42XTwzjXPABfviQfj+ox5tU96GjBXT+sMMRgLSr5M+u1YWOdBo2s1xrdLMaptzzgNOwLVL27IedxQQFK2cTTXGJYQPRhZu8KR9FDxMcmMaM1eYQLMcmgNu3RwVy1Sg+Vt8Kx+dBdDNwUi8v/O4htG5ZhdkArlMu/YqyOpDVt7QwHSRGKLXsjcNIkTFL8TcAQr/Zw93A1+O5JTWRZqUgtVC0wCpOScMPUBe5VV5damKK1swMkRcWw7B2osoH9TRgCr/bu8HCV4n7sQWw6koPu01Yi9OhFpN9OwMZ+hTgVdhLZWfXvN8wc0cFZiDvXkqH+SuNSpF3PZGWKYdoazg4SFBVbondglV8mYcIQL7R394BrnY6R343XQ+UthG8+hLsDNyH28v9wcNsGLJsdgFblj+Qljv2Pi0rc0+ML5TP0MmSlpkLt/kIkJd2AqYs7OogcWb/McIvF477GyYoTEvEr2sHJueZljIrqjxAYXL6R3kfswU04ktMd01aG4ujFdNxO2Ih+hacQdjJH1QgXXJpQ3/2vq6/tcxqgC4Z2VxueH3XmQPscDg2Ywt7dFZI715B8V21nSWoaqr+ZkA3MplSG0sfqolmWk4Oq3Q2xu179xL36x1SWhVRtByDphilc3DvBhcXW7BZb1hYhEn8F2jk517qYrgvNPpg5sj6Y3WLxv6+RR8VIUDYK1/Yd4Cy8g2vJ+ertpWm4nqnIeEVNqFduNLhGaNKE+q1sQIzqAZd/HR/F4uCmI8jpPg0rQ4/iYvptJGzsh8JTYThZ8+WeRvvOBC2cHGCRn440jbYrUrbj9QnLcfyXQ/XOfbMO3dBJnInLsRov5bE+xaaorlK4ajfXmMKpL1MDarsaM0cOPTeJPpUYVAdFvpgwqg1iju7BzvAf0XLEBAyQz1saPebVxAyOHPXD9F49tKjiz6vXho11TVmvNSIvgudzLij830dYEpaCQnZ1cD9+J956/xTQ7194tR3btSIN34ZuxZHL+apj6onFSxg3tCWubQrC5LUHcSb2KuIvnsbu9wLx9qH76Piv8eglVO2rD/kVDa8Mf2Rk4AFznOzeL9gxZyW+eSCf8JeodqqBpT8mjrTB5Y/fwJofbrN0lOGPmI2Y8lJ/jAg+jyLVbvWF7p/AmkXhuF4sQ1HaIcxfeQw8/0kY0Up3Uln6T8RIm8v4+I01+OF2KTP+D8RsnIKX+o9A8PnH4P12FKtnz8GqU1nMRubyR7fx+70yWDs4wFLQgH6zK7xX2FWY1Zl1eGvnVTyUlSDzm/ew4nDVl5xbwn/iSNhc/hhvrPkBSpNisHHKS+g/Ihjn63IMTwChgFD44IGyqNVCfgeEh7I/MpChNBa/7JiDlUpj9b6Zr8REvy8U7iXcP7EGi8Kvo1hWhLRD87HyGA/+k0aglUkLBEwcCknkGswOjUU+M7L4t6+waHk4inqNw2vuOi5tGTyBEAIqxIMH8l5x+OYxD78dXY3Zc1bhVJbCQjy6/TvulVnDwUF+RW8Y+jVRFQA9fW2QLngQCAWgwgdQdrXh+VF3Dgg4NdDcPwhjbM/jw7e2Ie6BDKVZp7BixSFkqwqmidQRjlZ3cfbwcWQw15Rmncaqjd/iYVX95LS7nv00aUBM6T5OrFmE8OvFkBWl4dD8lTjG88ekEa1gEzARQyWRWDM7FLFKEeKrRcsRXtQL415zZyXfEGr0oUUAJg6VIHLNbITG5jMLi/HbV4uwPLwIvca9BveWr2DKaCucWfcWdl59CFlJJr55bwUO31FmPGugnrnRwBqhRRPqlzNGFUj7NhRbj1zWmIDVhFCSn4GU5GQkV/9dQ+rtAk7/djL7DUdXz8acVaegPP0j3P79HsqsHeCgLEwaNN53kgHjMMIuBp8t2YPkAjbRKEjGnhWrsfuXAli2ENY/96UBmDmxDc6vnIiFu8/gwrnDeH/S2ziUS6rJBVft5hpTuPTFN6C2a2DFpeem0KcKg+qgAD4TxsD5wgZs+MkeowN7QzltaeyYV5sWHPWDz6uPFpX8mfWae6xr4nqteCq3iopbdHz+C2QnMCG+SEhmPCG1HbCYTtxSPXFcsJuGCfnUY0WCcrkByO6eo3UjO5HUjCfvsuKPJ2xNfWbtp5Sq55LlD92LW9O0k+qX28rjl5GX2IuWxZezRu5R5JKeZG1mQgLzZiQSWJPnhDW02F9K0uG7KFf309vs3NG0JsCFzE3YcYr+iajdoGUUqTpA/gC2uPU0qj5t6U80311Mvdf9Wv2A84OdASS2DVL8W76/yKonveLXmgR8AfFNmL/6L6aT2cr2FA+Ui9vRjNOaL17I6G70GgpwMScTEwGJhGbEE7WjQcsilXaXp9P+aR4kNTUlUXMLEvP5ZOMzm45kMAsa2G/WcYpaOZjaiVhcBXzit+hFQSO7kkT1xqt8e/SaAHIxNyETgYiELDaidoNoWWRuHQ/Cy3lMZ+e6kdBUSM27zaeorJp9ldG9yCXU09qMtWlOzUQCsvacQGsW+5NUOpx2yY3lirM+XyheXBGRVc9XyK818z3rl4mwLfVffJJU7mcm5FDk8pfIQcwjU5GE9UtEbf3mUsRN+dPrypcvxO1mkFZ4Hp+luW5CMhU2p27zozl9U56+n6Z5SMnUVETNLcTE59uQz+wjpDBRF4qXisTUbsZpUp+WQxNcfeXUhe6+Pj47l9yEpiRs3o3mR5dy5ocu9OeAARpg3L+wngKcRGTCjhfwW9DzAb7UVlT1smcpJW0ZRS5iEzJjMRRJnChg6Sx6wbxquzxE+u2ubz/rFVO5hkVW1PMVP2rN4iLgm5CwbX9afDJboQ+5D3Iil9NLDmLisfYkLLaitn40N+Km8gUnnXqoTa0+5ETS8pccSMxjuSFhfRC1Jb+5EaSQNkN2N4pWDm5HIhO5TXxq0SuIRnaVVL91rj83dMCRB9wvmTVGv2wfrZfMuGJUQLuHCYnfYwUl6OqO4iUzk+rxR/3HI+n4cJJ/Z5B+/5ZT+v5p5CE1Zb5rThZiVlNtfGj2kQyNF2E04KqvXHWQ7ZV/fi0NdRKTqUDC6qAJiZ2G0gc/3TfAd3XUuaJE2j2zH7lImZ+atSWfiXNoFKt73d69zDYakLecYwqHvvTW9tpw67k+Y5i+b1GQN2VAHay4Rmt6yjW2nK5Wa4zbb7rnBJrU+BYFtqy3ftRTi39+veYa65q2XvPkO7Dk1qIkNwVX0+7CxK4zPN1asOuVpqckLxWJaTlsBm4Jx87d4Gyl6yN9fVSiIPMqrmaWQOrqia5tJKr1XMjwMCMBSVmFELbtAo/21g3u371tL8N+eVscSf8EXdMScEfoAs/OdhCptutF9hAZCUnIKhSibRcPtLfWtKIShbeTkfjbA5jYuMGzUyuNNhvab1Vc04tg06U7XKS1r+5kDzOQkJSFQmFbdPFoDy2TdFFZgIy4q/i9si08ejjXvvJmVBZk4urVTJRIXeHZtQ0Mt7aKunxxD9tetsfytkeQ/klXpCXcgdDFE53tanu/Ij8d8ddyAbuO8HDl1nNlQQbirv6OyrYeeN5ZeddOr28qC3E7ORG/PTCBjZsnOrUySAG1qVMThvS1Ibpgx2TE4ervlWjr0QPOigDWLz8MyQGDNFCWh9S4X1Fo2xVds9+H5+BLmJ54DgvaK+8mlv2Rhri0+2jewQudW+n6mEef3Q3op6ExvbcNL9svR9sj6fikaxoS7gjh4tkZtWRYkY/0+GvIhR06eriihT6n6kRXHyqQnx4PpbQ94Fqr0RLkplxFepENunR3gY6Ur3du1LtGKHhC+m2qvKsT/f6tLLyN5MTf8MDEBm6encB1+ob5TgOmod/ik5Ets0VHL3fYVB9fT99V5iIp5g4sPZ6DfdWbSKVnMLvjUCS9lYaouQ6KVYbkLdeYol9f+sY5XXDrudE+rqbh84TGj3k64KgfhmrxL1OvOeY/TVavFVNgIw2i1h1fI08R+V0hMbWedlL1FW7PMn/dvj6JHND+ntu/ODruvhmpyT8pV/8GlF+h9zyF5DxxP6XLb1dX3KWfN75CdqLnaOnl6tuRRp5B/mn1Wsc1kBFD4fFMYGqi8dVmRp4izO8mpjBhzn/23f/X7esTyQF5m6Ymf4+8YkaaKGw1FoG6+Sfl6t8AM0/MXvc2HM9OhZtUgmbmdujzfib6b9iOhT3q+0mqkb8T/7R6rfMRBSNGjBgxYsTIM0zFfWRc+xW55RZw6tQRrZrks3QjRv46GCe4RowYMWLEiBEjRp4pjI8oGDFixIgRI0aMGHmmME5wjRgxYsSIESNGjDxTGCe4RowYMWLEiBEjRp4pnvEJ7kOcD1mA949cVy3/vSm+uBULlh5QLf1zkN08hjULNuHsvapfrqkvz5YO/roU4+LWBVh6IFm1/M+i8TptCNzalv32FVa9PRdz58r/5mHe2/OxaOlqfB5+CdnyH/+pRobrR1bi7YWb8eN91apqKpCw710s2HJB9XO7FYjfvRjzP43S82thfz6FP32BBcsPIkX+q0hPm9IsJKbcg2HuqSuOMmQeX4t3mK7O5Gm2JEPWyZWYOMQPLwyciu1/SgcNQHYTx9YswKaz99jCn1kf6j63LPM41r7DbDyTZ2Cs/ho8PB+CBe8fUS3VRIabx9ZgwaazquUnz9PKtfrMg57tCW5lIeIjQrDr7C3Vir83ZVk/49vvrqqW/jnIsqOxJyQclx808H3IZ0wHf13KkPXzt/juaq5q+Z9Fo3XaEAzQdsXvUdj9+R788Otd3Lt3F3fzsvHblVP45D8voHPP/8PhDNXvbLJJ6+9nduLTDXMx9b+noT3HrcCvp7/A518noFgxCyhD2qnN+OzIL+qfTf7LUYmihK/w+bZI3Hza8z82sftihDcmH8gybNJUVxxLLmDTwrX4AZ7oYasxXBefwNKpq/GjWR+MHDEY3ez+okO5LBvRe0IQfvkBW/gz60Nd5y7BhU0LsSaS4NHd9m80IapEYXwEQnbVNYGVITt6D0LCL6uWnzRPL9fqMw96xu/gPltIx+5A0qUPVEtGjPzVkGLsjiRc+mCgatnIXwZeK/i/uxP79u3DvrADOHLyJyRf2Ythhbvxf9M3I71qjsvgmQEZO+bgv6dr3cY1YihUiLw/Cht9R1B2Kw9W47Zif3B/KH9TUUllQTayC1rj5Xkr8c6c8ehp9XcYyv/M+lDHuWW3kGc1FlvCgjFAqlpn5C9NfeZBTzcrHl7C50F90cHGHAKBJRy8xyA4Mqe6CJTdPI5lI73QphkfZmJbdPKfhwPXipUbH36NN30nYsP+dRjznB0kfCGs3f2x+HgWu1YxkLKbOL5sJLzaNAPfTAzbTv6Yd+AaVGfgtE8XFVmnsGqsDxylQvDFNujy6ns4kaW0qDLvHD4K6gd3W3PwTc0gauGGgW+EIUXxseBDfP2mLyau24UVI7qgpUgA83a98fqXKUgKex2+js2ZDVZwG7oa0feVFjz8+k30GbxC8W85jfZXZS6i1gfCx94CAjMRbDoOwTx2/hLFxnwcmeWLwCVLMbqTNcytvbDwLGubw4cPL32OoL4dYGMugMDSAd5jghGZU78yX5y0D3NedIM184ll+0FY8n2e4sfiq6jMjcL6QB/YWwhgJrJBxyHz8GWK0mqDeAI6KE7ai9kDO8BKJITU9SUs3vcpZvhOw97fK5kODmFm32H4ILZMtTfTTcLHGNVXuV2B3ljoRr+vK5EbtR6BPvawEDDt2XTEkHlfgstN+vrBOoJDM/ti2AexqO5JRQI+HtUX0/b+zhbkmu6DwSuilds4bMg/Mgu+gUuwdHQnWJtbw2uh/G5EQ+wuRtLe2RjoZg2RoBna9Z6OkA0z8cKYTxVbuf1fibxzHyGonztszfkwZf5v4TYQb4SlQPkJvu5c4NSp3vyvI7900QBtGILQZTw+Dh4BfvR27I5X33Yx9fg35vTPx8633kXTznFVNW/Dfqwb8xzsJHwIrd3hv/g4VCWTIzfrXzMVUD5+Cg6AuxXLEwsnvDA9FHEFyk1Np0ENKrMRNnMytqWWIn3XRPQN2gn5TfJ61S1VzHsP+DdWBf8b/T3VMa+4uhGvvbIesWW5+Hp2H/R+82vmmTLcPL4MI73aoBnfDGLbTvCfdwDq4eBN+E7cgP3rxuA5Own4Qmu4+y/G8WrHc4wnhlKchH1zXoSbtYjVpPYYtOR75FUnhXZ90Ol7Tq1XIOvUKoz1cYRUyIfYpgtefe9EtX7qHo9r1iaVv7z9EPT+akx/0ave/uLmIS59HoS+HWxgLmA1wsEbY4IjoSjRnLWUUa+8ZzVw3xy8qKiBlmg/aAm+VzteQf3iW4Qz7w1Cn6l7kKWRSmWX1iLA93UcytVYqYmeXJP3+dxHQejnbgtzvinLgRZwG/gGwpQFUS4IzPINxJKlo9HJ2hzWXgtxbH9tjdRrHiT/HtynQzn9/N9uZN4xiELPxFHSldP00UgHErSbTqcK2eai87Som4Qsn5tGn528QDGRO2leXxsSOE2lo3ky5U9iikTUzPlFWrIvimJjjlOwfxvit55CxwqUZ6iF7BZ9OkBMTrN+YAtFdH5RN5JYPkfTPjtJF2Iiaee8vmQjcKKpR/NIxmWfLkrjaJVPM7L0mk5bvo+ly2dCaWo3c5IOCaEbFXfpcKAdiTqMo09Px1JiYgwd/3AkOfGlNHLfPXaw/OcrhcQXO9KQFRF0IS6aNo9xJL5FC3J4/j+0NfJniolYSH2kIuq9LlVxOvnP7IlsgxT/bry/yilxvR9JrXrQjM2nKCbuAn21ejg5S1xp5qn7zHc5tHmQgEwknjRj33k6H36YovMK9Puw/Gf6L+t/x6BQOhOXRFdOf0QjHQTUbvopqsuFtSg8Q2+5CanlC+/Q3qiLFBW2iPrbmRGPr/opwPJEWu8nJaseM2jzqRiKu/AVrR7uTBLXmSQ3WydPWgeFZ2muu5Cse82hXWcv0tnd86hvW3MSCZQ2y259SgPETjTrhxLVATV/3pAjFrrg8HV54nryk1pRjxmb6VRMHF34ajUNd5aQ68xTVJebuPqh6cfqnpT+SG+7ianv+nS2INe0iGyDjik26bdBRjmbB5HAREKeM/bR+fPhdDg6r0F2F0S+SW7ClvTCO3vobEw0HVrmT/YCEzLrtFCxndP/dw9ToJ2IOoz7lE7HJlIiy5UPRzoRXzqSFKmqKxduRurXKfOF3vzXmV8sb2vBlaea2tZNydk3yUXgTvN/KlWtUSPL2UyDhUJ66YsctlRCka87kNB7FSWkbCb/FgJye/005Sv2fExHAq1I9NIXlKsws4gOjmlOAt8NrNYpdjAApT5EzZzpxSX7KCqW+STYn9rwW9MURVHiys361kyVxnimZOU9i7ZFXqToA0toQCs+OU0/wfrVdBrUpoASjgbTSCc+2Q9fTqFH4+k+V93SiqP+mMtyLtLBjydTF4ENDVr0Be34NoXyzy+ibhJLem7aZ3TyQgxF7mS5ayMgp6lHSTkcsLFD1IycX1xC+6JiKeZ4MPm34VPrKcpc5RxPDKKQzrzlRsKWL9A7e6PoYlQYLepvR2Y8vo76oMv32Zx1sDRuFfk0sySv6Vvo+9jLdCZ0KnUzl9KQkBuc47FmbSpqrL8MoPzn/zLbOlJQ6BmKS7pCpz8aSQ6CdjRdPpBw1lKuMUFGtz4dQGKnWYpDC8+8paqBeynqYhSFLepPdmY84vddr9jekPjmHxpLLcV96IPUqgQvobNvtqdmAz7RkfNcucZ8ejiQ7EQdaNynpyk2MZH59ENFjkhH7iNlmd1Mg1jdlnjOoH3nz1P44ShK+rx2ftZnHvQUJ7iPKSLQmpr7BtOVB0qHVmR8R1tDjlESq20F4eOphbg3rU1Re06WvZOGSSU08LNMksknbEIB+W28yVyppDRqDrUXPU/B1+qosJpFoyCcxrcQU++1KVS9tyybdg6TkmTgZ5Qp02+fLhTnF3rQu5fVA0fhD8E0YdrndKk4ly4d2ES7zskLs4rSaJrbQUTPB19jNiiLtYAJUDEeMkq+n0kOfEea+b3qh6KZfZ+/KKLW004oFjUD22h/lUTS644i6rU2Ve0PZlPYaGuyGLaLJbl8ABaSaFAI3a5qgMuHRREUaN2cfIOvkNKFFZTx3VYKOZbESr5hFERMJBuxH31U5RRm/e2tL5OFapJVEvk6OYp60drqpGPcDaPR1hY0bFeeakUNnrAOCr+aRDYiFotqm2SU+cUQam7oBJcrFqo1WjzW52v5RMWRRL3WkrabRpO1xTCqy01c/eAuypqDCJcNyoIoFA2ikGqBNcTu+/TlGBavwSEsdqpVrFweGm9LfAMnuLLcS3Rg0y46p1HoS6PnUoeqXNGRC1w6ZY3qz39d+aULzjzVnBjpRt8El4oO0hgLPrMpmS2oJ7jJFRX0a8gQaiFwo9dPy4enpprgsprnt5FuVvW5NIrmtFf6hDs361szqzT2An2YVtWiKk7s4mXvvabSoA7KE2hFDzF5vHeFTVXkYeSoW5pxNKAeyLI/pxfFzjT7jFzTBRQ+vgWJe68l9XAgo+ydw0gqGUifscSQjx1CgR9tVDueoua0J9HzwYolzvFEtU4vBRE00UZMfh+lV9stu72VXrYQ1DnB1fI9Z7+VNgs93iX1kFtIPwRPoGmfX9I/Hpdonrvx/jKExxGBZN3cl4KvPFD6ryKDvtsaQsfkAwlXLeX0heYEt4AiJtqQ2O+j6rxgjqetL1sockVOg+L76CgFtRZSjxUJCg1T0Xc009GS/Lfc0rE/d67lXjpAm3adU1xAKCml6LkdFD5Vllk2wRWKaFDIbVX7uvKTeaEe86Cn+IiCCAMmT4LDL0vh3aYdPAdPwuKvC+AzZii6NKvAjcRUFNn3hq+LqWp/wMTWD307y5CWcA3l8hU8KVxc7aqfqzCRStGcV4GyMu63HCpuJCK1yB69fV1QfQYTW/j17QxZWgKuleuzT7W/FpXIT76G25bd4dNFoFoHmA98F2Hb34CP2BY+YyfB+2EE1i6ahcmjBsG783CEpMtQWVmp+iiTB4v2bmirMognaQaxWWs42vOVK0wkkIh5kFXU/Fik8f6SZccj8U4FUreMgmfXruiq+OuHFeeL8fh6MtIVn5vwYOXoCGtVA5w+NB2AyZMc8MtSb7Rp54nBkxbj6wIfjBnaBTpdWIsKZCSloKCtF7ztq85gAts+vdBB8RPpMmTHJ+JORSq2jPJU2cz++q3A+eLHuJ6crv64pw6aXgcyZCan4pFdd/R0Utvc1u8FdDTwZ90Ni0UNRHp8LctGfOIdVKRuwSjPqva6ot+K8yh+fB3JOhtsfD+0MNAGnpUjHKsE1hC7K35FQkoxHJ/3QZvqaiZF715doMoiTkxsfTB2kjceRqzFolmTMWqQNzoPD0G6rJLlalVt0cwFLp3KFw3Lf8380kWDtFEfylk7ZTxIJOaqFVWYwvX/Psf7A+5hx5x38T/Nj/wbBQ9SF1dUvxNlIoW0OQ8VZWUG5KZ8Rf1rpqljL/TV0LRtz+fRviQFidebSIOc1K9u1TvmFTeQmFoE+96+UA8HrJ9+fdFZloYEpePYcOACV7XjIZU2B69C3piB4wkHFRlJSCloCy9v++r4mdj2Qa/qpKiNpu85+12Sj+Rrt2HZ3QfqIdccA98Nw/Y3vPWPx0LVCjmN9pdhiAZMxiSHX7DUuw3aeQ7GpMVfo8BnDIbqHki0qJcGKjKQlFKAtl7eUJcjW/Tp1QFKzzcwvs0HY1yALRKPfIm4CqAo6hBOPOqPsSNaM2/opu5cq4Ctz1hM8n6IiLWLMGvyKAzy7ozhIemQsXqoLrNWcHS01mpfKz+14O5XXXY+EayGfIKLcd9iy/wAOBdexPaFr8HHawx23pChTMY8aMZXBUQFzxRmbEVlpUw5ILBlU3U/FPBU/89JmYy5wwx87RPAVHkCyNgJ9Nmni3J5ETUzBV+XEZXZCJ/qDe9/vY+I+HwIXfwwZeVyjHHQCh34/JrDME/eTU4a7a/SUlZULdAjcAEWLVpU/bdsQyh2rf0X2isaZv4xNVMfw+lDKwz55CLivt2C+QHOKLy4HQtf84HXmJ2ow4W1qJCxHU3MtPrFE4kgVBlRWsoy26IHAheobV60aBk2hO7C2n+11/aHLp6ADsC8zWPHm2rogCeRgI2zGlRlsAr5JKdqlUGxqIk+X5dC6aZALNBob9GyDQjdtRb/0t0gw5B+1OyJvDjV6JsCw2zgMYGaVbffULuZTfIiqfq3bur2f2V2OKZ6e+Nf70cgPl8IF78pWLl8DLRStUYucOnU0PzXyi9dNEgbhlOWlITrspZwdbdTrdHA1BX/9+n7GHBvB+a8F4kCXWGuN/I+11GUDMhN+XK9ayZfAL6m21l78sWq+DeVBvVRr7pV75iXsQm9fDjQ3sBj2jKT56fScYp+artJrTyDxhMu2HgoY56VH1MNTwRRdVLURsv3nP0ul5+CDbl8DcvV6B2PtWi8vwzCagg+uRiHb7fMR4BzIS5uX4jXfLwwZucN5icl2n7VqKX10kAFlOVIy/EQiYTVFjcsvhIMCBwB++sROBiTj8jD36J08DgMa6VVGLWpM9cqkR0+Fd7e/8L7EfHIF7rAb8pKLB/joD0Jlc9Z1MmoQDs/teHqlx5Lm5jKe4g9uAlHcrpj2spQHL2YjtsJG9Gv8BTCTt6Fo7MDzG4lIUnzTkFxAhJ/Bdo5OcPQuzF1YeboDAezW0hKuq8xEBYjQXkCOJvqsy9Htb8mJmjh5ACL/HSkabxEVZGyHa9PWI7jvxzC5kN3MXBTLC7/7yC2bViG2QGtUP6I7cuKdeMwa7S/TFszf0iKUGzZG4GTJmGS4m8Chni1h7uHq867Slw+dHwUi4ObjiCn+zSsDD2Ki+m3kbCxHwpPheGkQS+asX51cIbwzjUka3y5ZmnadWQyHcvvKrVm/ZYUFcOyd6DKZvY3YQi82rvDw1X7yk8XTa8DU9i7u0Iit/muusWS1DT1pF5eKKkMpY/VZaQsJwdVuzckFpX39Pj6j1ZwdpCgqNgSvQOr2puECUO80N7dA646r4YN6Afbx9SUUFb6WF0Qy3KQo7F/Naat629DQ44x64BuncTIvByrfHlDwSPExqao70ro9X8lboVvxqG7A7Ep9jL+d3AbNiybjYBW5ag7Vbl0yo67Fd4k+d8QbRhM5R/4dkcEbrZ6GSP9NG9xqTF1+z98unIA7m5/C+t/KTVsotNAOHOzgYOA7PZ1/Kr88l4FBYmJyDBzhpuuyWpDNKgTNulW/Ys1Wq+6Ve+Ymzkym81wi12saA8HifgV7eDE6bjGjydyzBw7wFl4B9eS89XxK03D9aqk4ICz32Yt4ORggfz0NI1cr0DK9tcxYfkpvePxiTsa/Wq0vwyhEvdiD2LTkRx0n7YSoUcvIv12Ajb2K8SpsJPMfv21tF4aYP3p4CzEnWvJGt9JXYq065nMO3IaHl9hn/EY5ZKJk2EbEHYaeHn8UFirtumizlxzzkH45kO4O3ATYi//Dwe3bcCy2QFoVf6IeYrr5kRdcPerMeWxfpjw8NvR1Zg9ZxVOZcnfmqvAo9u/416ZNRwcLNEiYCKGSiKxZnYoYvNZWIp/w1eLliO8qBfGvebOSkQjaRGAiUMliFwzG6Gx+ezsxfjtq0VYHl6EXuNegzu77NNnny4kA8ZhhF0MPluyB8kFLEgFydizYjV2/1IAyxZCdtVRhj8yMvCA+V527xfsmLMS3zyQX5zpfg+yPjTaX5b+mDjSBpc/fgNrfrjN0kGGP2I2YspL/TEi+DyKVLtpweHDTma/4ejq2Ziz6hSULnyE27/fQ5m1AxwsmdRKruFEaCi+jn+obE8HVq9MwWirM1j31k5cfShDSeY3eG/FYVTVJ0v/iRhpcxkfv7EGP9xmJ5H9gZiNU/BS/xEIPq/Tam2egA6a+wdhjO15fPjWNsQ9kKE06xRWrDiEbNXE0ETqCEeruzh7+DgyWJOlWaexauO36u8PbUAsTHj6fG0F/4kjYXP5Y7yx5gco3RSDjVNeQv8RwajLTVz9kH+c7OhohbtnD+O4siM4vWojvtX5RaiWDbChIcdIETBzItqcX4mJC3fjzIVzOPz+JLx9KBfEU04xuPwvv5PDK/sDGRkPWKGV4d4vOzBn5Td4IL+bV0eqculUcVehKfK/IXmqk3Lc/z0VycnJ7C8BP58Nx8YZAZgWVoFXV70L/zo/NTWF28xP8X7/R2zALNYzwS3BtROhCP06HnVnNwdcudnAQYAenMTa/x5FRkklCq+F4e2VJ8B/ZRKGtdQ1/BmgQQPqGHgCCAWEwgcPWD/kYaxH3ap3zFsgYOJQSCLXYHZoLJTDwVdYtDwcRb3G4TUDHMc9nhgQX6tXMGW0Fc6sews7rz6ErCQT37y3Aoc1J5f64Oy3BAPGjYBdzGdYsicZBexCsSB5D1as3o1fCiz1j8daX6PWeH9xa8AEvN+OYvXsOVh1Kov1RV6ib+P3e2WwdnCApRlHLa2XBqzwypTRsDqzDm/tvIqHshJkfvMeVhy+Uz1xbPB8QfA8xr/WETd2bsA3glcwbnBz1Qbd1J1rAvDNeCj7IwMZyoKIX3bMwUplQazjmyG44erXU3zJjKg8fT9N85CSqamImluIic+3IZ/ZRyhD8XywjHIil9NLDmLise0SoRmJ2vrR3Iibygec5S9NiVvTtJOqlwkY5fHLyEvsRcviFXvUpsYLGLKcSFr+kgOJeaYkkgjJTNSW/OZG0E3V4frt04WM8s+vpaFOYjIVSEjMNyGx01D64Cf52833KHJJT7I2MyGBeTMSCazJc8IaWuwvJenwXZSreGFCTK2nnaSqHpX+NJ/cxb1p3a9VJ3xAOwPE1W9+ar092AT+kt2NpjUBLmRuwmwUMX/wRNRu0DKKlL9FongJRkztZpxWPwTP0O/DckrfP408pKZkKmpOFmI+8W18aPaRDOWD8nlbaIiQT73X/SpfqgMZ3Y1aSYPbiciEL2AxaEG9gkZSV4nq5R359ug1FOBiTiYmAhKxfvNE7WjQskjVyy86eOI6ILp/YT0FOCltFjCbnw/wpbaiKptLKWnLKHIRm7BzSdg5nShg6Sx6wbxqO7NJXyx0wuFrpq/oNQHkYm5CJgIRCc14JGo3iJZF5jIP1o3+frCeJG2hUS5iMjFjmmN9cQpYSrNeMNfxEglDrw3KFwjE7WbQaS2BNcTuIkrcPZP6uUhJyG9GbX0m0pxRbiTs9q5qu37/y+5F0pKe1mTG9GTeTEQCa0+asGYx+UulNHwXO6/OXODQKVf+l+vOL13oz1NtbetC8ZKZqWJuqvjjMd0LLOzI3TeQln/9a3X9YXtqvGSmWqWiIu1zesmanb/Ol8zyaMsQIfF7r6Pq8lWL2jWPFSVa5iUmr2XxikX9uVnfmqnUmKTDMAoa0JqEIhHxTfhk5/dfOn1H3okGatCgOvaYzs5lGjQVUvNu8ym6lKNu1axRHPVA+yUz+Yocilz+EjmIeaweSJjNImrrN5ciVEVNPnaIW08j9XBQTvHLvEjstUy1zDGeGBRfud1RtHJwOxIxPwv4fGrRK4hGdpXU+ZJZTd9z1kFZPp1fO5ScxEzDElabTZjPhn5A8iFX3mad47HWueW7NtJfhmigPJ32T/MgqSnTcnMLZg+fbHxm0xHVQKK/lnL5QvtbFOSajVo5mNqJTIgvYGNBi14UNLIrSaq+RYEzvnVTnrSKnheYkcvsMxq1oibcuXYvcgn1tDZjOWVOzUQCsvacQGsW+5NUOpx2sT4pXjITt6MZ1YLQrZH6zIN48l0UU+GnRWUhbicn4rcHJrBx80SnViLVBhUV+UiPv4Zc2KGjhytaqJ8XbyIqkJ8ej2u5gF1HD7jWPAGXfbpgNv8Wn4xsmS06ernDprpJdoWZeRVXM0sgdfVE1zYS1fompNH+kuFhRgKSsgohbNsFHu2twd2Efh9WFt5GcuJveGBiAzfPTlC7sBJ5W0fhP9iKY//XSrWuDkpykXI1HUU2XdDdRVr7owbZQ2QkJCGrUIi2XTzQ3rq+HX8COijLQ2rcryi07Yqu2e/Dc/AlTE88hwXtldfHZX+kIS7tPpp38ELnVro+Eq5/LOr2tRLZwwwkJGWhUNgWXTzawyA3cfSDdQRpcWm437wDvDq3gu4Pt9U0xAbDj6lEblIM7lh64Dn7qtuQpTgzuyOGJr2Fx1FzVes4/F9ZgMyrV5FZIoWrZ1cYnKp6ddqU+d+QPH26VOZtxaj/AFu//j/oe0yPG47cbAgsnzPj4nGb74LnPNrAkEjUrUED6xjTVEbcVfxe2RYePZwh/xCrfnWr/jGvyE9HvNJx8HBtUX+N6BlPDI9vCXJTriK9yAZdurtAWm8tcPe7Iv83xCdnQ2bbEV7uNtrb6xyPa9Nwfxk6llWi8HYyEn97ABMbN3h2agWtEs1ZS+ungZLcFFxNL4JNl+5w0eX4BswXKvN2Y1SnD+F+Mg4f9DLkgLpzrbIgE1evZqJE6grProbloUHU1S/5BNeIkafC4wu0fOR/6Mss1dX4M4z299z+ffnr96OcrrznSULnibQ/vYgtV9DdnzfSK3Yiem7pZeUuRp4Cj+nC8pH0ny+z6JnP7n9QHVPzD4qvIfwjNCDvWyFdWdWXWvRaU+tTnb8DT/8OrpF/MJWorDSBSaPu7vw9KLuwAM8NuYSpV89ivsZXmPzd+Dv0ozL3NN4bNx0bo/NgIjZBeakY7q8FY8+2N9DDsO+nM9IEyL/+zOSfkNz/oDqmyT8nvobw7GugIvY99HzxQyTwumH+sR+wtr/ud1D+yhgnuEaMGHkGqMD9jGv4NbccFk6d0LFVk334ZcSIESP/PGQPkXntJkrsOsNd33Mef2GME1wjRowYMWLEiBEjzxTGzxuMGDFixIgRI0aMPFMYJ7hGjBgxYsSIESNGnimME1wjRowYMWLEiBEjzxTGCa4RI0aMGDFixIiRZ4p/zgT34XmELHgfR65X/7D+34hiXNy6AEsPJKuWnwKy3/DVqrcxd+5cxd+8eW9j/qKlWP15OC5ly394sAn4W8ekKSlFVmIK7hn4i5YNpjQLiSn38KRP87QpzUpESiOcJ7t5DGsWbMLZJxiA4otbsWDpAdWSATyjsfrH0MS1TZZ5HGvfWYBNZ/L0aEKGm8fWYMGms8rF4ovYumApDiRXKJefGjXs4OJZGgeeVt7KbuLYGqaHs/dUK54iTairOuuiLBPH177DNHQGeY1w5j9mgltZGI+IkF04e+tpJ3tTUIasn7/Fd1dzVctPgYrfEbX7c+z54VfcvXcPd+/mIfu3Kzj1yX/wQuee+L/DGayMNY6/d0yaCjYYfDEC3pMPIOtJVkVWEL8Y4Y3JB7KeqUmT7OYXGOE9GQca4TxZdjT2hITj8oMn94UyZVk/49vvrqqWOHhGY/VPomlrWwkubFqINZEEj+62egZtGbKj9yAk/LJysSwLP3/7Ha7mPu2JYw07OHhmxoGnmbeybETvCUH45QeqFU+RJtRVXXWx5MImLFwTCfLoDttGzFKNjyj8LZBi7I4kXPpgoGr5acFDK/93sXPfPuzbF4YDR07ip+Qr2DusELv/bzo2pz8DV9x/OoTCvD9Q+KQrIhUi74/CZ27CRIV5+OOJO6/xSMfuQNKlD1RLHDyjsTLSQGS3kGc1FlvCgjFAqlpnCNKx2JF0CR8M5PoxbSNNwj8lb5tQV7rrogy38qwwdksYgusl+No85QluJXKj1iPQxx4WAjOIbDpiyLwvkVKi3Prw6zfhO3ED9q8bg+fsJOALreHuvxjHswybSFXmRmF9oA/sLQQwE9mg45B5+LKqcUMpTsLe2QPRwUoEodQVLy3eh09n+GLa3t/ZxkrkHZqJvsM+QGyZcnf5F8wnfDwKfaftVS3r76NuHuDE/P7wm3cc91Vr5BT+bzEG9n8bx+8/xNdv9sHgFdF4cGI++vvNY+tUO8kp/B8WD+yPtxUrG3L+eiB0wfiPgzGCH43tu+NZ7+U0zTnLbh7HspFeaNOMDzOxLTr5z8OBa8WqrUwflz5HUN8OsDEXQGDpAO8xwYjM0V9OFJoavxY7lg+Fm5WQxdQZvtNDcfmhaofKPJz7KAj93G1hzjdlumkBt4FvICxF/RhGcdJezB7YAVYiIaSuL2Hxvk8xw3ca9v5eyQ4/hJl9h+EDtSBQkfAxRvVVbldQmYuo9YHwsbeAwEwEm45DMO/LFJQwv2WHzcTkbakoTd+FiX2DsDODab3O/VU8vITPg/qig405BAJLOHiPQXBkDmutDiqzETZzMralliJ910T0DdqJjD+OYJZvIJYsHY1O1uaw9lqIs8VM3+c+QlA/d9ia82HKzt3CbSDeCEuBwhsPv8abvhOxYf86jHnODhK+ENbu/lh8PKv6br6+GHHGAmW4eXwZRnq1QTO+GcS2neA/7wCqJJB/ZBZ8A5dg6ehOsDa3xnOz/ouZk7chtTQduyb2RdDODAPjuQ9zXnSDtUgAy/aDsOT7PHaZoeZJ6bDP4BXV/66zzumKlUIS+mpbPo7M8kXgkqUY3cka5tZeWHi2mLMe6u2HAX7UTQWyTq3CWB9HSIV8iG264NX3TqCqhOv3rbzO+WLihv1YN+Y52En4EFq7w3/x8erjWQM4vmwkvNo0A99MDNtO/ph34Bqqo1ORhVOrxsLHUQohXwybLq/ivRNV+uSoU/m6ckK1TQdNMt7otVeVD95+CHp/Naa/6KWVD0zJSNo3By+6WUPE6kD7QUvwfZ6GkuX52mcwVkSrapNqbHOzFkHQrB16Tw/BhpkvYMynScrtXL6tEw47mmR8UGpj/NodWD7UDVZCVoudfTE99DLboqQy7xw+CuoHd1tz8E3ZeVq4YeAbYaiW7JMc2xuUt/WA2b5vzovK2Fm2x6Al30PbxY0bMyqyTmHVWB84SoXgi23Q5dX3cEKRdDpqyzcHNXTFHRd9Gtesi3KU9cEbfkHvY/X0F+FV3/pQE/kPPTwtyhPXk5/UinrM2EynYuLowlerabizhFxnnqL7bPvdUH8SiZqR84tLaF9ULMUcDyb/NnxqPeWYsgF9lCfSej8pWfWYQZtPxVDcha9o9XBnkrjOpFOscdmtT2mA2Ilm/VCiOkAXhXR2rjsJrXvRnF1n6eLZ3TSvb1syFwmo7/p0tl1Gtz4dQGKnWaRuppR+fNuNxH3XK5a4+qgbGeXsHk5WViNp313VKrb34fG2JA3YTndkdynUX0S2QcdIlrObhltZ0Uj1jnT/8HiylQbQ9juyBp5fByVn6U0XAbnP/4n1sAayHNo8WEjCl76gHFlD+1wjJkXnaVE3CVk+N40+O3mBYiJ3Mt/bkMBpKh3Nk5/kZ/pvN3PqGBRKZ+KS6Mrpj2ikg4DaTT/FolY3ck0JBSJqydr94vsLdO7AEhpgxyeHfx+le/LthwPJTtSBxn16mmITE5nmPqSRTnySjtyn2E6FZ2muu5Cse82hXWcv0tnd86hvW3MSCfrS+vQKnboq/fFtchMrtzPDKXG9H0mtetCMzacoJu4CfbV6ODlLXGkmE2ZBwlEKHulEfPvhtDz0KMXf17+/vL2f/9uNzDsGUeiZOEq6cpo+GulAgnbT6VSdjiighKPBin7ZD19OoUfj6V7OZhokMCGJ5wzad/48hR+Opry8wxRoJ6IO4z6l07GJlBhznD6U2yZlulQ4K5T8RSJq5vwiLdkXRbFse7B/G+K3nkLHCth2jhhxxaLo/CLqJrGk56Z9RicvxFDkTuZrGwE5TT1KeTKWI5sHkcBEQp4z9tH58+F0+HQUHQ0eSU58exq+PJSOxt83IJ5n6C03IbV84R3aG3WRosIWUX87M+LxVfF6gjoU2Qap/11nnasdq/sctU2Rj4MEZCLxpBn7ztP58MMUnX1V/zFcseLyYx2Uxq0in2aW5DV9C30fe5nOhE6lbuZSGhJyg9u3pKxzombO9OKSfRQVG0PHg/2pDb81TVEIrIjOL+pGEsvnaNpnJ+lCTCTtnNeXbARONPVoHquipRS3yoeaWXrR9C3fU+zlMxQ6leWKdAiF3KjgrFMyXTkhN0sXTTLe6LdXfz7IpfwWuQlb0gvv7KWoi1EUtqg/2ZnxiK8ai5T5aktBxx6zhQKKfNONhC1foHf2nKWY6EO0zN+e5ZMZdVoYw7Zz+bZuuOzg9LtBvpJrQ0gCUUvmjy/o+wvn6MCSAWTHd6B/H1UUJzocaEeiDuPo09OxlJjItPOhvDZI2Vgp3/6kx/YG5K3BFNKZt1Sx2xtFF6PCaFF/OzLj8VW2N3LMKI2jVT7NyNJrOm35PpYunwmlqaw2SIeE0I0yHbUldYuGrrjiol/jmnWx8fWhNk9xgltCka87kqjXWkqVj/sq7oaNJmuLYbQrj/1bMQD60cabVelUSlFz2pPo+WDVct2URL5OjqJetFa7cRptbUHDWOMGJVHhVzTJRkS916ZSVSuyzC9oSHNDk4C7j3WSf4jG2Upp2M4cZTG5t59ea9GSXtsvn8iqJ7hsRzo0jk18h+1UTC7ZjrT/tRbU8rX9bK9GnL8m+ia4rBgeHGNBfBaX5IqGn1MzJgXh46mFuDetTVE3IsveScOkEhr4WSbJHkdQoHVz8g2+Qg8U/a6gjO+2UsixJFZa6kahKWFPWpNcHVHK3h5AUotXaUduOeVeOkCbdp3TGMhKKXpuB4XmrrFDCr+aRDYiZld152SU+cUQam7oBLckkl53FFEvDU3J4xk22poshu2iPFZ8Elb0ILHHe3SlnG3i3P8xRQRaU3PfYLqidARVZHxHW0OOUZI+R5Qn0IoeYvJ47wo7I+uFfDAXimhQyG2l3uTrci/RgU276JzGqF4aPZc6iJ6nYLkz5AOmUEB+G29WH1MaNYfaV23niJH+WDyk8PEtSNx7LaklwLbvHEZSyUD6LLNcMcEVigZRyG21feUJK6iH2IPeUzhPxhnPgoiJZCP2o48UFx9yZHR768tkoYrnk9Sh5gRXb52rESuu2qac4ApJNCiEqlzDeYzefnD7UTfKfgg93qXL1UWjkH4InkDTPr/E7VtFnWODpd9GUrsmiua0F9HzwddY8MJpfAsxq88p6tyQZdPOYVKSDPyMMh/L9xWSx7uXmSUqCn+g4AnT6PNLDznrlK6cqIsmGW8UfavL3rsc+fCQIibakNjvI1JL+TZtfdmCBLomuPe/pDEs3oND5H5Wce8QjbflKye4XL6t0yEFHHZwjw/1meAKe65hY45qFbNve4CULF7dQbnluXTpwCbadU5jMl4aTXM7KLVT8TTG9vrmraEURNBEGzH5fZSutv32VnrZQmV7I8cMRQ0XetC76qRlMgymCdM+p0vFtWuLlq644qI3J0u06mKj64MOnt4jCrJsxCfeQUXqFozy7IquXZV//VacR/Hj60hOV34uwJO6wNWuyiwTSKXNwatQf/yrGxmy4xNxpyIVW0Z5Vrfdtd8KnC9+jOvJ6eBqQY4sMxmpj+zQvacTTFXrTNr64YWOZqolDgzso06sXkHgUHOcO/INcisrkffNYfwgeJmta6HaoQorvBI4FObnjuCbXPlH5N/g8A8CvMzWtWjM+etFOWuvDDyJBOaVTXHOCtxITEWRfW/4ulR5nvne1g99O8uQlnAN5aIBmDzJAb8s9Uabdp4YPGkxvi7wwZihXdBMtX9dmDr7ob9rdURh28sHrmWpSLpeCVufsZjk/RARaxdh1uRRGOTdGcND0iFjMagkGTKTU/HIrjt6OqmPb+v3AgyXRDwS71QgdcsoeKp807VrP6w4X4zH15NR0z3c+4swYPIkOPyyFN5t2sFz8CQs/roAPmOGoguXI2rCs4Kjo3X1c0omtj4YO8kbDyPWYtGsyRg1yBudh4cgXcZ8Uan6PIwnhYurnfoYqRTNeRUoK2PbDYhRnbG49isSU4tg39sXagmw7X590VmWhoRr5Yo1PCtHOFrXVbbY/nrjWYGMpBQUtPWCt72GDX16oYMink9Wh5oYXucMrW08WDk6QukaA47R2w8uPypOWJvKfCRfuw3L7j7oUv3T9eYY+G4Ytr/Rndu3ijU8SF1coXaNFNLmPFSUlaHiRiJSi+zR29eluj6zBuDXtzNkaQlIyk3GtduW6O7TBerTD8S7YdvxRo97htWpGjmhm6YZbyrz9djb/bb+fEhMR1JKAdp6eUMtZVv06dUBukpTxa8JSCl2xPM+bdR9k/ZGry58xT+5fKtKv9pUZOi3o0nHJFM4+/WHunzYopePK8pSk3C90hY+YyfB+2EE1i6ahcmjBsG783CEpMtY7apExVMf25tGI3IqMpKQUtAWXt72attt+6CXsmg1csyoRH7yNdy27A4fddIyGb6LsO1vwEfxmK1mbdFF3XFJzdOjcWXjKgyovYo1ddcHXRgY3aagFKXMBosegVgQ1EmdRHJMmqNje2ZKEjPf1FR7G+uQIZQqG0fggiB00m4czTu2Zx017I1O4pnBzFTjnDwJJOIaNtQo8PLBX7nKgD7WSTMMnjAc1qOO4Njtl2F6+ByaB3yJlyxVmzVoNngChluPwpFjt/Gy6WGcax6ALxU73mnE+etBWRKbHMrQ0tedCa0xfVZTJqtgauRrC5JnCjO2orJSxvxrhSGfXETcywexP+IkvjuzHQv3b8KGEVsQHT5VYxCoDU8khlgzOU3NmJ2kKHzZ7FjfSYfwuLMf/Hp0g9+U0Xj14rtYlKbal+3HY0ZoS0ICbUnUEgSoalVpKStkFugRuABB2sJk7ukIuXu0vhvDgP2thnyCi3Ev4+D+CJz87gy2L9yPTRtGYEt0OKbqc0RNmH9NzdQdqcxmx/tOwqHHneHn1wPd/KZg9KsX8a7aGcpjapxC3YL+GMkVWncsyqCUgLZeeGy7GdikSqZ0qLw+aJhcA+54VshkzJHyNtXwRCIIVW0+SR1qUp86x13b5L7hsbiYVbfCfYy+fkyB6CuuvNBFOfMvc58pX2dvuH2rWMH6UYfAymRsGDSDtkTY/soGICurYNMKpie+rrMbUKcUbtTOibpokvGmXJ+9XPlQDqWUNbfzIBIJdfpeibLm6YTLt1X1rBasD3rtMMDvdU2ea8HaFYvVE3SGqRlrkeQX4NkIn+qLSYceo7OfH3p088OU0a/i4ruLUCXZpz22c2vEQFhSydgx2i4WQVRVtBo1ZhzCYGXSQqcMFWjXltroiYtejWvT6PqgA02bniymreHsIEFRsSV6B07CpEnKvwlDvNDe3QOudV8eGIApWjs7QFJUDMvegdVtT5owBF7t3eHhynVFrsTU3h2ukju4lny3+uFrlKQi7QYTgAq5c6msFI+rE6EMOTmq/RvZR5HvBIxqE4Oje3Yi/MeWGDFhAMxV27QQ+WLCqDaIOboHO8N/RMsREzBAvuMT9XEVlfjj2x2IuNkKL4/0g7BJzmkGRxY/s1ts4nxfowAXJyDxV6CdkzNM78Xi4KYjyOk+DStDj+Ji+m0kbOyHwlNhOMnxgo8sKxWphaoFRmFSEm6YusC9fQ7CNx/C3YGbEHv5fzi4bQOWzQ5Aq/JH8iGE/c8U9u6ukNy5huS76nOUpKahWhLyiQqVoVQtCJTl5KBqd9PWznCQFKHYsjcCVb6ZNGkChni1h7uHq+KqmKeRoJz74x5iD27CkZzumLYyFEcvpuN2wkb0KzyFsJM5qlZ0wdNXBxiVuBW+GYfuDsSm2Mv438Ft2LBsNgJaleMR60td46ImlQbEqM5YdHJhOjLDLbasLYFE/Ip2cHJW3mmqhabzKm9xxJPprIMzhPJ45qtPUpp2HZmstj5pHRqOZqwaUtu4j4G+fmRncfixDkxawMnBAvnpaVC7ogIp21/HhOWnOX1bR4SrMXNkuWF2C0lJ9zVsKEaCsgG0t3OCg0U+0tM0XrisSMH21ydg+be8JqyNTTPemLTQY+9pkf58cG2PDs5C3LmWDLWUS5F2PZN5vDZmHbqhkzgTl2M1zvUoFrEpytkll2/rSj92oH47mnRMkiErNRXq8lHI7L0BUxd3tM8Jx+ZDdzFwUywu/+8gtm1YhtkBrVCuKl5PZ2xvbN7qxsyxA5yFctvz1baXpuG6smg1cszIQwsnB1jkpyNNo35VpGzH6xOW48Qd9bq6qTsu7q30aPzEHdUKOdy1l6s+6KI+6moklvCfOBI2lz/GG2t+wO1S5pY/YrBxykvoPyIY54tUuzUQS/+JGGlzGR+/sQY/KBtHzMYpeKn/CAQb2nhzfwSNscX5D9/CtrgHkJVm4dSKFTiUXZUEJpA6OsLq7lkcPp4hv6ZD1ulV2PjtQ9XVRSP7KPDBhDHOuLBhA36yH43A3nV9DYcAPhPGwPnCBmz4yR6jA3tDuach569A2reh2HrkskZBqpvy+78jNTkZyewv4eezCN84AwHTwlDx6iq86y//ULZp4toiYCKGSiKxZnYoYvNZ4hb/hq8WLUd4US+Me82dXV3+hqOrZ2POqlPIYudAxSPc/v0eyqwd4GCpX8Z0/wTWLArH9WIZitIOYf7KY+D5T8KIVgLwzXgo+yMDGQ+YM2T38MuOOVj5zQPFVbH8DdTm/kEYY3seH761DXEPZCjNOoUVKw6hShImUkc4Wt3F2cPHkcHsKs06jVUbv8XDqiJp6Y+JI21w+eM3sOaH20wxMvwRsxFTXuqPEcHnUcRKokAoABU+wAN5veLa34SH346uxuw5q3BK6Qg8uv077pVZw8FBx+3+KngCCAWEwgcPdA6AcuR3i3hlfyAj4wErRjLc+2UH5qz8Bg/kSjfgxV8TA2JUdyxsEDBxKCSRazA7NBZKCXyFRcvDUdRrHF5zr3HVroInEEJAhXigcJ78DpT+eFq9MgWjrc5g3Vs7cfWhDCWZ3+C9FYdRVcefpA4NpkasGlLbuI7RHyvuvNCNBAPGjYBdzGdYsicZBWxiUZC8BytW78YvBZacvtUdYQ1aBGDiUAki18xGaGw+800xfvtqEZaHF6HXuNfg3nwAxo2wQ8xnS7AnuYDNawqQvGcFVu/+BQWWjk06/jTJeCPRZ68LRz60xCtTRsPqzDq8tfMqHspKkPnNe1hx+I56IqGJNAAzJ7bB+ZUTsXD3GVw4dxjvT3obh3JJeY3I5ds6g2PFYUdTjvuE+yfWYFH4dRTLipB2aD5WHuPBf9IItBLwYcYrwx8ZGVBK9hfsmLMSSskyxT6Nsb3eeVuCaydCEfp1vPobB3Rh9QqmjLbCmXVvYefVh5CVZOKb91bgcFXRauSYIRkwDiPsYvDZkj1ILmAXsAXJ2LNiNXb/UgBLK0Nqmp64NNOncSvV8UoaXR8YJddOIDT0a8RXOVT1LO7TQXaXotcEkIu5CZkIRCQ045Go3SBaFpmreDBc/sCxuPU0Oil/dllBOcUv8yKx1zLVsj5kdDd6DQW4mJOJiYBEQjPiidrRoGWRlMsaN+xBdsb9C7Q+wIlEJnwSCPjU4vkA8m0rUj2IzihNoi2jXEhsYkYiiYgkTgG0dNYLZF71YD9HH7mouLaGegr51GP5VcWD6ko0XzJTUXGN1vQUEr/Hcrqq3tGA8xfQ7mHy41ZQguZxNVG8ZGYqz23lH49HpgILsnP3pcDlX9Ov1TFiNLDP2jGRUU7kcnrJQUw8U+ZXFj9RWz+aG3FT5YdySt8/jTykpmQqak4WYj7xbXxo9pEMjQfra6N4iN2qJ73i15oEfAHxTYTUtv9iOpktt0xG9yKXUE9rM2a3OTUTCcjacwKtWexPUulw2iUXDuP+hfUU4CQiE3a8gN+Cng/wpbaiqm9JKKWkLaPIRWxCZiIJ04QTBSydRS+YV22Xuyea1gS4kLmJCQlEQjLjiajdoGUUqWr/8dm55CY0JWHzbjQ/upRz//L0/TTNQ0qmzE/NLcTE59uQz+wjlKHPEfSYzs51I6GpkJp3m09RWZtpkLgdzTitzgfZvUha0tOazFj+mDcTkcDakyasWUz+UikN38ViKX+5QNyapqkTlMrjl5GX2IuWxcujpD9G+mPBkOVQ5PKXyEHMtMZ8KTQTUVu/uRRxU9628lsUxO1mkIbJcufRXDchmQqbU7f5UQbEk9WJqJU0uJ0ynnwWz15BI6mrpCpeT1CHGi+Z6a9z2rGKLtVf25QvmYmp3YzTpBFN/cfo7YdheaETWT6dXzuUnMSmJJAwbZqIyWnoB/ST4q1xLt/K65yYWk87yTygojyelnmJyWtZvGJRlhNJy19yIDHPlOUayw1RW/KbG0EKici355+ntUOdSGwqIAnrkwmrL0M/+En5bS4cdUrxklmNnKibphlv9NurLx/k2+9S1MrB1E5kQnw2VvFb9KKgkV1JouslMzlFibR7Zj9ykbL636wt+UycQ6NY7nR797JiM5dv64TLDi6/G/ySmYiser5Cfq1Z3rLzmAjbUv/FJ0lZyu9R5JKeZG3GaqZ5MxIJrMlzwhpa7C8l6fBdSs0/8bG9nnlLebRlCItF73X0q97aLT91FK0c3E5pO5/Z3iuIRnaVVNveuDFDRvnn19JQJzEb4yUk5puQ2GkofSBPWl21pdZLZnriwtCncc26KLejsfUhb8sQEvJ70zqVQ3ny/yhmuk8R2cMMJCRloVDYFl082sNa/Wxz45E9REZCErIKhWjbxQPtG9R4GfJS4/BroS26ds3G+56DcWl6In5c0L56+x9pcUi73xwdvDqjlY4brU+0jwbwZ5y/Sc5ZkY/0+GvIhR06eriiRY02KgtvIznxNzwwsYGbZye0Eqk21MG9bS/DfnlbHEn/BF3TEnBH6ALPznbQPKyyIBNXr2aiROoKz65tIFGt16IsD6lxv6LQtiu6Zr8Pz8GXMD3xHBa0V15Xlv2Rhri0+2jewQuddQmCXVU/zEhAUlYhhG27wKO9tfqhe1SiICMOV3+vRFuPHnBW3AnUtz+jshC3kxPx2wMT2Lh5ohOXI+Swq+eMuKv4vbItPHo4Q+cNR7ZP5tWryCyRwtWzK9rodIZ+6oqRIbGQU5GfjvhruYBdR3i4ttDutw4qCzIQd/V3VLb1wPPOlobFsyQXKVfTUWTTBd1dpLU/ympiHdYbXbFqSG3jOEZfPwzyYx1U5P+G+ORsyGw7wsvdRjuGHL7lpgL56fFQSsQDrrUaYNt/i0dytgy2Hb3gbqO9vUlrY5OMN/rt5cqHktwUXE0vgk2X7nCR1nHHrTIXSTF3YOnxHOyr3oYsPYPZHYci6a00RM11UK3k8m3dcNnROL/fw7aX7bG87RGkf9IVaQl3IHTxRGc7zcRjdTTzKq5mlkDq6omuOovXEx7b65m3lXlbMeo/wNav/w+t6gidmhLkplxFepENunR3QW0XN3LMYHn5W3wysmW26OjljhoyrAND4iJHv8a1aEx9qMzDVqVD8X9yhyqmuUbqpvRHettNrL7KM/K3ovbdssaj/T23RgzlScTCiBEjBlB+hd7zFJLzxP2UXsSWK+7SzxtfITvRc7T0Mtct2r8COu7eNZY/fWx/TBeWj6T/fJmlugP8d+QJxKURPL6wnEb+50vKUjmU85rBCA8mpqYw0XyZxcjfBh7PBKYmPOVzZk2FvE1Tk6Zt8x/AE4mFESNGuDHzxOx1b8Px7FS4SSVoZm6HPu9nov+G7VjYw+D3+f9EWN0wUY7DTVc+/uyxXYSey44gdJz903wZqol5EnFpOKKey3AkdBzsVQ79Ux5RMGLEiBEjRow8ZSruI+Par8gtt4BTp45o1YBHkIwY+btgnOAaMWLEiBEjRowYeaYwPqJgxIgRI0aMGDFi5JnCOME1YsSIESNGjBgx8kxhnOAaMWLEiBEjRowYeab4kye4Mtw8tgYLNp1VLTeWUmQlpuCe4gc+inFx6wIsPZCs2NIUlGYlIkXZeMMovoitC5biQLL8d07+LGr4/E+0qfjiVixYekC1pIEsE8fXvsNsPIO8RrhbJ7KbOLZmATadvadaoZ+H50Ow4P0jqiXDkN08hjULNuFsY7Sigabu6vRZg9HMmYbQ9HmmjP98vB+RztRag7JfsGvRfHwe/UC14q/OE/DPn4C2puvXJ666qaXpwp/wxYLlOJjyZ9bIPwulX5cfTME/sfd1UpqFxJR7un+hzcjT5ynFQ5Z5HGvfYWP1mbzqc9V3PP7TJ7jZ0XsQEn5ZtdwY2MTtixHwnnwAWQpvlCHr52/x3dVcxdbGIrv5BUZ4T8YBZeMNoywLP3/7Ha7m1hq2nyI1fP4n2lSW9TO+/e6qaklNyYVNWLgmEuTRHbZNrVBZNqL3hCD8siETpEoUxkcgZFf9LsBk2dHYExKOyw8a//5mTd3V5bOGUTNnGkLT5pkC2R38uPcz7I76vfZAX5GGEyGf4ciVR3+TAe8J+OdPQFvThvfJkLqpqenKogR89fk2RN78J07xHiPpaAi2Rd40TnCrkN3EFyO8MflAlnGC+1fgqcWjBBc2LcSaSIJHd1vVRLX+4/Ez9IgCoTDvDxRWe12KsTuScOmDgarlxkGFefhD3XjDkI7FjqRL+GCgrl+6+pP4E22Sjt2BpEsfqJaqkOFWnhXGbglD8ACpat0/l5q60+2zhlIzZxpC0+bZs8ez6B/D+2RI3WxaTRt5pqBC5P1RaJzc/lV4WvGQ3UKe1VhsCQtGY6YBT3mCW4ykfXPwops1RAJLtB+0BN/nad7lqkRu1HoE+tjDQmAGkU1HDJn3JVJKVJvxEJc+D0LfDjYwFwhg6eCNMcGRyKmsRHbYTEzelorS9F2Y2DcIOzPy8fWbfTB4RbTiuK/f9MXEDfuxbsxzsJPwIbR2h//i48iqunFZmYdzHwWhn7stzPmmMBO1gNvANxCWUorK7DDMnLwNqaXp2DWxL4J2ZsgPQN65jxDUzx225nyYmonQwm0g3ghLQam8vfwjmOUbiCVLR6OTtTmsvRbi7J2v8WafwVgRXSbfA2U3j2PZSC+0acaHmdgWnfzn4cC1YsU2XRSdeQ+D+kzFHs27IWWXsDbAF68fqutuCofPH2rYpMtmZk5lbhTWB/rA3kLA/GKDjkPm4Ut1UFCRdQqrxvrAUSoEX2yDLq++hxNVjq3IwqlVY+HjKIWQL4ZNl1fx3oksNo2Vn/pN9Bm8QrkfQ+kPb/gFvY/V01+El5Y/DIihLoqTsG/Oi3CzFkFg2R6DlnwPLclxao6b4qR9mPOiG6xFTJPtB2HJ93ls6qiGy38PL32OoL4dYGMuYDY6wHtMMCJzKnXqTstn8tj5TsSG/esw5jk7SPhCWLv7Y/FxpX/1a1RXzshYGpzDR0H94G5rDr4p80cLNwx8IwwsDRj5ODLLF4FLlmJ0J2uYW3th4dk7Gnkmpww3jy/DSK82aMY3g9i2E/znHYAeWTeCBmoCFcg6tQpjfRwhFfIhtumCV987oTqGI69VPl+3awVGdGnJcsoc7Xq/zuKZhLDXfeHYnMXQyg1DV0fjviJN5TYa7h95fH0nbsD+dWPwnJ0EfKE13P0X47hGh/TqqY4crm+t0a9p7T7VR7+67PvmoHYdkF945f8UjAB3KwgEFnB6YTpC4woUWyrzDmFm32H4IFZZQ+VUJHyMUX2nYe/vlQbUyPrluzIe67BrxQh0aclqiHk79H6d7Z8Uhtd9HdGcjUNWbkOxOvq+Yn8u+xTL+uolg+7H4IPXPNFKLFDoefD8r8BSUwVHfj28hM+D+qKDjTnznSUcvMcgODKH9VoHCi2Px9odyzHUzQpCoRTOvszXlx+qdpD3R189YLD6unf2QHSwEkEodcVLi/fh0xm+mLb3d7aR5dKhmeg77AOo3VGBhI9Hoe+0vaplPfGozEbYzMnYllqK9F0T0Tdop8IP+utpXXME1WZ9FJ3Be4P6YOoezbuTZbi0NgC+rx9SLavhjDVnfa6Jsp6NX7sDy4e6wUoohNTZF9NDL7MtSjjjIR/v987GwA5WELF4ur60GPs+nQFfhb8NiYce/zYoHrWpq14oUenb2w9B76/G9Be99I4fnHVN/j24T4vCM2+Rm7AlvfDOXoq6GEVhi/qTnRmP+H3XK7aXJ64nP6kV9ZixmU7FxNGFr1bTcGcJuc48Rffl23/+L3Uz70hBoWcoLukKnf5oJDkI2tH0U4VUkHCUgkc6Ed9+OC0PPUrx9+U/ISci26Bj7Ejlv0XNnOnFJfsoKjaGjgf7Uxt+a5pyrEBx7ruHA8lO1IHGfXqaYhMTKeb4hzTSiU/SkfvoXkECHQ0eSU58exq+PJSOxjNr7h6mQDsRdRj3KZ2OTaTEmOP0ofz80pG07x6RLGczDRKYkMRzBu07f57CD0dTXl4o+YtsKejYY6Ki87Som4Qsn5tGn528QDGRO2leXxsSOE2lo3l1/HBf/iEa21JMfT5IpaofiS05+ya1bzaAPrmh+2djuXxOd9U26bS5NJHW+0nJqscM2nwqhuIufEWrhzuTxHUmnZIHpTSOVvk0I0uv6bTl+1i6fCaUpnYzJ+mQELpRUUpxq3yomaUXTd/yPcVePkOhU7uRuXQIhTB75T/dKrINUtrB6Q/uGNamkM685UbCli/QO3uj6GJUGC3qb0dmPH71zzPq15yMbn06gMROsxT76qTwDL3lJqSWL7xDe6MuUlTYIupvZ0Y8vuqnfMs5/Ff+M/2X+atjUCidiUuiK6c/opEOAmo3/RQV6tCdls8UsRNRM+cXacm+KIplGgz2b0P81lNI4RIOjerKmcOBdiTqMI4+PR1LiYnMxx/Kzy+lkUpR0+ZBAjKReNKMfefpfPhhis7L08gzeRgXUTeJJT037TM6eSGGInfOo742AnKaepTqknUtSi/Sgo4Ccp59hkpUq6op2k+jzAXU7+NMFp2GaEIu2VXk08ySvKZvoe9jL9OZ0KmsrkhpSMgNTp8pfC7kk9hxCK2IuEBx0ZtpjCOfLFo40PP/2UqRP8dQxMI+JBX1pnWp8pzUrEPc/lHEV9SMnF9cQvuiYlkdCib/NnxqPUV5PJeedOZwQT1rDZemNftUT/3qsi91i1rTyu08MrXyplnbIuli9AFaMqAV8Z2m04l8tv3WpzRA7ESzflArQ+unszlqJNcYUxN5PNiFOTkOWUERF+IoevMYcuRbUAuH5+k/WyPp55gIWthHSqLe6xT7c9qnt17K/Soknmkr6r8wjM7FXaZvNwwne34rmnxUqWf9+imnn//L6mvHIAo9E0dJV07TRyMdSNBuOrEhsjYKLQtI1PI5mvbF93ThnNzXdsR3+DcdlWudxVlvPWD19excdxJa96I5u87SxbO7ma7akrlIoKqv6vqpdkcp/fi2G4kNGvMLKOFosGIcth++nEKPxtN9Dv3rmyNwk0+HxrYkcZ8PSJG6ckrO0pvtm9GAT1htqAFnrLnqcy2U8ReIWrL4fkHfXzhHB5YMIDu+A/1bERCueLCInJ1L7kJr6jVnF529eJZ2z+tLbc1FJFD4mzse+utL/eNRC331gm3Wr+8a47EBc6inOMEtoIiJNiT2+4gUNVKO7DZtfdlC5fwSinzdkUS91qrFxbgbNpqsLYbRrjyixxGBZN3cl4KvPFD+dnNFBn23NYSOJcnVUk4JK3qQ2OM9uqL4aW3NgUUlHL+NdLOqnpdG0Zz2Ino++BpbkFHupQO0adc5jUG4lKLndiDR88F0jdlTnrCCeog96D1l4yTLvUQHNu2icxoDRGn0XOogep6C2QGKQi0U0aCQ20pb5WhMJgvCx1MLcW9am6LurCx7Jw2TSmjgZ/LBWxeP6GhQaxL2WEEJCjOK6LuZjmTpv4Vu6TyAy+cMDZt02VwS+To5inrRWu2g0GhrCxrGglIaNYfaCz3o3culqo0syX4IpgnTPqdLj+Q+FpLHu5eZN1UU/kDBE6bR55dKFINH1cDG7Q+uGOqgIIIm2ojJ76P06sFOdnsrvWxRVYC5NMc9wS2ImEg2Yj/6SO1gur31ZbIQKIscl/+YqCnQujn5Bl+hB4p+VVDGd1sp5FgSi15t3dWa4LIBym/jzep4KeJRpUEOjdbKGVkuXTqwiXady1PrrzSa5nZQ+rhCMcEVkmhQCN2u3kEzzwoofHwLEvdeS+owyih75zCSSgbSZ5lqO/RSrwluPTXBlBg1pz0JPd4ltWQL6YfgCTTt80vcPlP5XK4fZRdL6PuZDsR3nEnfq36MXZb9Ob0oak3TTshX1M8/igmVwI82qjuksFdeh+Rw6UlXDte31nBpWqtP9dSvLvs0NV21/YUP02rkLBvE997jnlTorZHcY0xNlPGoaptR8j3NdOCT48zvVb+9z+L3+Yskaj1NucRhn956WaLS8wsfqut16QWa7y4i71XJbIFLP0UUEWhNzX2D6YoyGGyI/I62hhwjxRBZE4WWhdRzTbLa19nbKUBqQa/uyCUZVz0o/Iom2Yio91r1xYQs8wsa0tzQCa4B8ShPoBU9xOTx3hVWrbj1r3+OwM2jo0HUWtiDVijFQ0XfzSRHS3/aomOANWiCq6c+10YZf2HPNZRc7dBs2h4gJYtXd1BuOUc8WB37apINu9jS8Kcsk74Y0tzgCS7neFXPeNRCb73g0ne51nhsSF17eo8oVGQgKaUAbb28YW+qWmdiiz69OkDxS9iybMQn3kFF6haM8uyKrl2Vf/1WnEfx4+tITi+DaMBkTHL4BUu926Cd52BMWvw1CnzGYGiXZorm9MOD1MUVdlU9NpFC2pyHijL5vXoT2PqMxSTvh4hYuwizJo/CIO/OGB6SDlllJSq1PtJWYmLrg7GTvPEwYi0WzZqMUYO80Xl4CNJlbP+qA3hWcHS01vEcSAVuJKaiyL43fF2qnCFv0w99O8uQlnAN5ap12jTH4HEBsE08gi/jKoCiKBw68Qj9x45Aa12R5PK5LrRsliE7PhF3KlKxZZRndUy69luB88WPcT35OnKSr+G2ZXf4dBEojpBjPvBdhG1/A95Fybh22xLdfbqgeqv5QLwbth1v+Gg+82uoP/TFsDYVGUlIKWgLL297qLvfB706qHpvgOb0U4GMpBQUtPWCt9rBsO3TC8pTcPkvHWWiAZg8yQG/LPVGm3aeGDxpMb4u8MGYoV1giKrBk8LF1a5aYyZSKZrzKlBWRoZpVBOmDZ+xk+D9MAJrF83C5FGD4N15OELSZWz/StVH1DxYOTrCWqfebiAxtQj2vX2hDiPzh19fdJalIeGablXXhgf5z8PrtJFZIf/tRV7178fXTxOozEfytduw7O4DtWTNMfDdMGx/w8cwn/Es0N6trUpTPEiaiWHW2hH2fMUKmEgkEPNkqKj5OaSB/uFJXeCq7hCk0ubgVcj7Y4Ce5Ido5XB9aw2XpmvQEP3WWRdVmDqiV18njZztiefblyAl8bqyf3rRUyOpYfnOs2gPt7Yqa3gSNBObobWjPZThNoFEIgZPZshrYZXI11MvlSWR6bm9G6pOBxMLWDTjobTksQH6McWAyZPg8MtSeLdpB8/Bk7D46wL4jBmKOodIU2f49XfV8HUv+LiWITXpOio46kFFZjJSH9mhe0+NWLX1wwsd6xxdtKl3/eXWv0mj5ghMPYPHIcA2EUe+jGOZUISoQyfwqP9YjNA5wBqAnvqsG1M4+/WHqzog6OXjirLUJFyv5KjPskwkpz6CXfeecFIHBH4vdKx7vNfCwPpSTX33Z+irF/UaPwyraw2MWkOogIwVfBMzTVfzIBIJ2X/llKKUecOiRyAWLFqERVV/yzYgdNda/Ks9O85qCD65GIdvt8xHgHMhLm5fiNd8vDBm5w3mai54MDVVO0JB1RjJCk92+FR4e/8L70fEI1/oAr8pK7F8jEOdDqrMDsdUb2/86/0IxOcL4eI3BSuXj4GD5gE8U5iaVZ9EizJ5QTTjawuP7S93T2WlTOsZTk0kAwIxwv46Ig7GID/yML4tHYxxw1rVYSeXz3VQw+ZSZVAQuEAjJouWYUPoLqz9V3uQfBQ3MwVfV4Pl7Pysh6Y6N2pjmD/0xVAHzDYZ84x290UQCasOMkBzHFQoHaxlN08kQtUpuPxnBisM+eQi4r7dgvkBzii8uB0LX/OB15iduMEtaoWP6nKJQRrVpDIb4VO94f2v9xERnw+hix+mrFyOMdqiZuczq8PtZVCGUdtvPLa/GcuxSlldqq6BCZsgitncpOBRrTyofPQQjyp4EEvMVZqvpyZY2VNKlq9zN8Pymg++ajJbDZtw17BCB4b5h8f6o92W2lJuPTFq5HB9aw2XprVpgH5r2FcbPgR8TYczW+SL1b8qX8Ni+eCusaruGtmwfOexYNcOt75o121fub56qYDpSKtgVSFvgFs/VkM+wcW4b7FlfgCcCy9i+8LX4OM1BjvrCgarh2Kxpq+ZLljXiNlsSD0gHju3qUZn2AWARFyjc7XcwS5SFf+qfzw49d+oOQJDMgCBI+xxPeIgYvIjcfjbUnbBNAytNF2kRd2xVqCnPuuGjc+s+GlFRBkQ1rQB9Zl4LK9NNc7BLsDlF2CqJQV1xsPA+qJBfffXXy/qN34YUtfqDFuTY+aIDs5C3LmWjPzqJ7hLkXY9k03DGKat4ewgQVGxJXoHTsKkScq/CUO80N7dA67WwL3Yg9h0JAfdp61E6NGLSL+dgI39CnEq7KTiIfLqmzr1pfIWwjcfwt2BmxB7+X84uG0Dls0OQKty+VcRyf/H0Gq8ErfCN+PQ3YHYFHsZ/zu4DRuWzUZAq3I8kteF6v7VhRkcnR1gdisJSco3UZQUJyDxV6CdkzNqFtRqhH0wfpQLMk+GYUPYaeDl8RjKfKMTLp9zYorWzE5JUTEsewdWx2TShCHwau8OD9eWsHFygEV+OtI0nuKvSNmO1ycsx6kyBzhY5CM9TeMlh4oUbH99ApafuKNaIacR/tCDmWMHOAvv4Fpyvvr8pWm4nqnqPafmuNKD2d3BGcI715CsdjA7xXUoT8HlP4WocXDTEeR0n4aVoUdxMf02Ejb2Q+GpMJxsnKgN0qhm85W3wrH50F0M3BSLy/87iG0blmF2QCuUGyZqhd6cHcxwKylJ9YKVkuKERPyKdnByNjCKZvZwdRThYXwsklj91OTRhRgkUxu072CuWlNPTFrAycEC+elpGi+eVCBl++uYsPx4I/Oag0b7h1tPtRVb39zi0rQ2lU9Cv7LbuP5roWqBUZCIxAwzOLuxAVM++acylD5WD3ZlOTm4qxmbumpko/PdAPTaZ4IWeurliTuandABl34cHyH24CYcyemOaStDcfRiOm4nbES/wlMIO5mj2rsGsiykpmr4upDp5IYpXNw7wISjHpjau8NVIq+vd9X1tSQVaRqTafnFJ5WVQu2OMuTkqPY3KB48jckZl/6luM8xR+BGiD7jR8El8yTCNoThNF7G+LoGWEO0WG9kyEpNhToihUhKugFTF3e0z+Goz6b2cHeVKMZ7tQ0lSE1TT+71xsOg+lKfeNSuR3rrxV37etRHw+paE2S0oVjhlSmjYXVmHd7aeRUPZSXI/OY9rDh8R+VcS/hPHAmbyx/jjTU/4HYpC/UfMdg45SX0HxGM80XMtb8dxerZc7DqVBabprHC8Og2fr9XBmsHB1ia8CAQCkCFD/DAsNmbBmbgm/FQ9kcGMh4wa2T38MuOOVj5zQNW2UuZRFiaCYQQUCEeqBqXX2Xwyv5ARsYDZr8M937ZgTkrv8ED+VVp3S8QVtMiYCKGSiKxZnYoYvNZm8W/4atFyxFe1AvjXnNn0qkLAZ4f/xo63tiJDd8I8Mq4wWiu2lIbLp9zY+k/ESNtLuPjN9bgB2VQELNxCl7qPwLB54vYBe84jLCLwWdL9iC5gF0MFCRjz4rV2P1LASzbvohxI+wQ89kS7EkuYDlYgOQ9K7B69y8osLRSnUFJw/2hB6tXMGW0Fc6sews7rz6ErCQT37y3AoerBxIuzal204PVK1Mw2uoM1r21E1cfylCS+Q3eW3EYVafg8p8J7zccXT0bc1adQpZS1Lj9+z2UWbOLA0um+Rq6qw/cGq2RM/KrYV4Z/sjIgDINfsGOOSuhTAMDRI0WCJg4FJLINZgdGgtlGL/CouXhKOo1Dq+5syhWpOHb0K04cjlfdYwuLPDSuKFoeW0TgiavxcEzsbgafxGnd7+HwLcP4X7Hf2F8r4Z+rZ0EA8aNgF3MZ1iyJxkFbGAoSN6DFat345cCy0bntX4M8A8HXHrSRX1zi0vTmjwR/dIDnFz7XxzNKEFl4TWEvb0SJ/ivYNKwljCTOsLR6i7OHj6ODHa+0qzTWLXxWzxUzzEYddXIxuc7FyYc9umtl1ZcwzGHfjqZ4bejqzF7ziqcUgYDj27/jntl1nBwsFQ2URO6jxNrFiH8ejFkRWk4NH8ljvH8MWlEK5hw1YPm/ggaY4vzH76FbXEPICvNwqkVK3Aou2o6ZQKpoyOs7p7F4eMZ8gxC1ulV2PjtQ9UdQwPiwRNAKCAUPniguCmjX/+POeYIbLp37QRCQ79GvPqLImoheH48Xut4Azs3fAPBK+MwuI4BlivWDYNw/8QaLAq/jmJZEdIOzcfKYzz4TxqBVgKu+twc/kFjYHv+Q7y1LQ4PZMzfp1ZgxaFs1QSXKx4G1Jd6xaN2QumvFzb1qo8G1TXlo7lPCdldilo5mNqJTIgv4BO/RS8KGtmVJFUvPLHt0WsCyMXchEwEIhKa8UjUbhAti8xVPlRdnk77p3mQ1NSURM0tSMznk43PbDqSoXzI+PHZueQmNCVh8240Pzpb4+UO+cPbYmo97aTqxQBGeTwt8xKT17J4tiCje5FLqKe1GTuvOTUTCcjacwKtWexPUulw2pXLzv74LM11E5KpsDl1mx9NsnuRtKSnNZmZCMi8mYgE1p40Yc1i8pdKafiuXCqXvywhbkczTqsfQFc8dF71LQrsnDmRy+klBzHxTEUkEZqRqK0fzY24qXh4Wy/lSbTqeQGZucymM9UdqgMun2vYpHjBo6bNzM670WsowMWcTFhfRcxOnqgdDVoWSXK3yLfnn19LQ53EZCqQsJiYkNhpKH3wk/IVSln+eVo71InEpgKSiPlkInaioR/8pHhjWeuFKU5/cMVQN7K7UbRycDsSmfBJwPTSolcQjewqqf4WBf2a437JTG733aiVNLidiEz4AuLzW1CvoJHUVVL1YgqX/8opff808pCakqmoOVkwH/FtfGj2kQzlixs1dFfrJTNxa5p2Ui2C8vhl5CX2omXx5ZwalZ9eK2ei7lDkkp5kbWZCAvNmJBJYk+eENbTYX0rS4bsot1z+kpmY2s04rfHylzwuVXnGkOVQ5PKXyEHMY/2RMH+KqK3fXIq4qVJ1wW4aJuRTjxUJyuW6YHE5t24kdZIyfyk/VCPwhNS6zyzan1J19oZpgomSzq8dSk5iUxJIxMQ3EZPT0A9ILllOn9XyeSn9NN+dxL3X0a9V7zo82EkB4qo8r59/5PEVt55G6pCWU/wyLxJ7LVMt69dTXTlcv1rDpWnNPtVPv7rsq/WSmaQDDQsaQK2FIhKxesK386P/nr6j0Kvc30lbRpGL2ITMmP9EEicKWDqLXjDXeBFMTl01kmuMqUGteJT+RPPdxdR73a/VL1Y92BlA4uo6xmWfvnqpS89J9H4PMXV7N1a5zKGf8vT9NM1DSqYszs0tmLb5NuQz+wiphkhtFLXfinq+4ket2dggYLYI2/anxSezlb6Q3dNfD+Q73b9A6wOclPWVtdHi+QDybStS19fSJNoyyoXEJkxzEqY9pwBaOusFMjd0zGeeODvXjYSmQmrebT5Fl3LUU445Qt6WISTk96Z11cmqi3JKWvU8CcxcaLbeAZYj1hz1uTbKvLLq+Qr5tWZ5x/xpImxL/RefpGx53wyJBxtZL6wPICfFeM/aaPE8Bfi2JVGVv7niwbyuf7yqZzxqwVEv9Oq75njMXdd48v/IJ7pPk5LcFFxNL4JNl+5wkda+apU9zEBCUhYKhW3RxaM9rNXP4zMqUXg7GYm/PYCJjRs8O7WCSLVFvq0gIw5Xf69EW48ecJZfstWDyoJMXL2aiRKpKzy7toFEtb6KyoIMxF39HZVtPfC8M7sirixA5tWryCyRwtWzK9rUPMAQKvKRHn8NubBDRw9XtNDqax1U5mH3qE740P0k4j7opX6BSw9cPudE9hAZCUnIKhSibRcPtNcOiqIfv8UnI1tmi45e7rDR2lyB/N/ikcyu7G07esFde6M2DfEHJyXITbmK9CIbdOnuAl3d1685AyjJRcrVdBTZdEF3F2ntj0Y4/FdZeBvJib/hgYkN3Dw7oZVa1LV1Vx84NVozZ4CCzKu4mlkCqasnujZI1PIwpiP+Wi5g1xEeri0M0qhOSvKQmpiGnCITWDp2RjdnK9R+rqthVOT/hvjkbMhsO8LL3UZtY1PkNQeN9g9XPuqivrnFpWkNml6/rM5nxiH+Nh8uz3nUikHZH2mIS7uP5h280LmVjrv5HDWy0fnOAad9euslN3r1U1mI28mJ+O2BCWzcPNFJMxia3NuGl+2Xo+2RdHzSNQ0Jd4Rw8ewMO63dWX3grAdlyEuNw6+FtujaNRvvew7GpemJ+HFB++rtf6TFIe1+c3Tw6gxd7tAbD5aPGXFX8XtlW3j0cFbcidWvfz1zBKaLraP+A2z9Gv9X54O1lcjbPQqdPnTHybgP0IsjNpyxNph72PayPZa3PYL0T7oiLeEOhC6e6KwVEEPiwWzKS0Xcr4Ww7doV2e97YvCl6Sj+cUHVVs546PVvveNRG331Qk696qOeuvanTHCNNBz5p4SP44IxZPBJDI3+EUs6c3+sacSIESP/FIw10kCqJ7g3sP2VOibB9aXsJ7zTreYE969DycUVCNzVEZu2jIO9rvmtUjwIHjIYJ4dG48clnRv2eFyDUE9wb2x/RePGXWMow0/vdKsxwf3noO+i3MhfjYpYLOthAWufD1Hyn7WYZSzcRowYMaLGWCMNh8eDiakJ+78GvAhYJ/I2TWHSpG02HaKey3AktI7JLSoQu6wHLKx98GHJf7B21tOc3MrhgWei9F2TRoS1aWry14zHk8Z4B/dvhQwPM6/hZokdOmt+pGrEiBEjRhjGGmmk4cgeZuLazRLYda7/YyNG/noYJ7hGjBgxYsSIESNGnimMjygYMWLEiBEjRowYeaYwTnCNGDFixIgRI0aMPFMYJ7hGjBgxYsSIESNGnime+Qmu7OYxrFmwCWfvyb//4++EDDePrcGCTWeVi8UXsXXBUhxIlv9+CBelyEpMQd1dLsbFrQuw9ECyYqnwpy+wYPlBpBjStC64bJPdxLE1C7Dp7D3VCiNPkuKLW7Fg6QHV0t+XimtfYtn8DTjN9ROm/zRKs5CYck/xjUZNzcPzIVjw/pGqBYQseB9Hrlf9MpWR+tJ0uahds582jRtHH+J8yAK8f+S6avnvjSKmjRkvjRhGE8wbnv0JbnY09oSE4/KDv9u7dDJkR+9BSPhl5WJZFn7+9jtczeUabNjE+IsR8J58AFl11qIyZP38Lb67msv+XYmihK/w+bZI3GxownLZJstG9J4QhF9+oFph5ElSlvUzvv3uqmrp70vFzUhs++xLxPxhnOBWw4r+FyO8MflA1hOY4FaiMD4CIbuUF9WVhfGICNmFs7eMI3lDabpc1KzZT59GjaOVhYiPCMGus7dUK/7ePE46ipDGjJdGDKMJ5g3GRxT+LkjHYkfSJXwwkOuXUgiFeX+gUO/oJ8XYHUm49MFA1XIjMdg2I08D6dgdSLr0gWrJyDMFFSLvj8IncvfWSNPTdLnYxDXbiJF/AE91gvvw6zfhO34tdiwfCjcrIYRSZ/hOD8Xlh/Ktlcg7NBN9h32A2DLF7owKJHw8Cn2n7VUts71yo7A+0Af2FgKYiWzQccg8fJlSotoKFCftw5wX3WAtEsCy/SAs+T5P8UP2VXAdr4uHlz5HUN8OsDEXQGDpAO8xwYjMqRpiKpEbtR6BPvawEJhBZNMRQ+Z9iaom84/Mgm/gEiwd3QnW5tbwWqh65KAWxUjaNwcvullDJLBE+0FL8H2ehuUPv8abfQZjRbTcOQ9x6fMg9O1gA3MB66eDN8YERyKnshLZYTMxeVsqStN3YWLfIOzMkOmw4Rt8/WYfDF4RrWxbDuXjp+AAuFuxPlo44QUWl7gC+QYD4qJlG6M4CfvmvAg3axHzV3sMWvI9NLuCsps4vmwkvNo0A99MDNtO/ph34BrzQN3o146cMtw8vgwjvdqgGd8MYttO8J93ANeqGs0/glm+gViydDQ6WZvD2mshztY6oYF99Z2IDfvXYcxzdpDwhbB298fi41nQd2+9IusUVo31gaNUCL7YBl1efQ8nspRHVOadw0dB/eBuaw6+KdNQCzcMfCMMKaWKzcq+T1yHXStGoEtL5lPzduj9OtNYUhhe93VEc6YBK7ehWB19v3r/PoNXKP4tp+zmcSwb6YU2zfgwE9uik/88HKh2zEOmBV9M3LAf68Y8BzsJH0Jrd/gvPg6VefKkQdT6QPjYW0BgJoJNxyGY92UKqrJGp8YbEOP6wxHzOvNEtbkWSl+MX7sDy4e6wUoohNTZF9NDL7MtSrhipcjjvbMxsIMVREIpXF9ajH2fzoCvQj+NrHGV2QibORnbUkuRvmsi+gbtBEtvzpqmv37VAw4dyPN+7+yByrxvxjQ6PQQbZr6AMZ8mKTYbpvMN2L9uDJ6zk4AvtIa7/2IcrxZiDSrzcO6jIPRzt4U535T1vQXcBr6BMHUwtFHk7nis3bEcQ92sIGTxcfadjtDqIpKPI7N8EbhkKUZ3soa5tRcWsiKhL38enJiP/n7zcFyZekoK/4fFA/vjbbZSMxcN6V/ddUKuTXXN5tThw0v4PKgvOtiYQ8DGEwfvMQiOzGEKNAyucZRTC/rgjFs981aluw5WIjYuuOKlxfvw6QxfTNv7u+Jch2b2xbAPYlm1UFGRgI9H9VVuV6B/DNcJ3UfMB6/Bs5UYAnkcB8/HV/JkVMDy/NxHCOrnDltzPkyZf1q4DcQbYSkoRRHOvDcIfabu0fqEtezSWgT4vo5DuTo6qa9/BtWU+vevOGkvZg9Uxr9Zu96YHrIBM18Yg0+TKphLD2Fm32H4QH1C5tKPMarvNOz9XWm/fn3qzjN5P/XNG7g0r3Mckn8P7tPibqg/CQUiavncNPri+wt07sASGmDHJ4d/H6V7JKNbnw4gsdMs+qFEdQCV0o9vu5G473rlYnkirfeTklWPGbT5VAzFXfiKVg93JonrTDp1n20vPENvuQmp5Qvv0N6oixQVtoj625kRj9+X1qdXcB+vi/Kf6b/dzKljUCidiUuiK6c/opEOAmo3/RQVyjcnric/qRX1mLGZTsXE0YWvVtNwZwm5zjxF91mfcjYPIoGJhDxn7KPz58PpcHSest0aFJ55i9yELemFd/ZS1MUoClvUn+zMeMSv6vvdUPIX2VLQscfMpP9SN/OOFBR6huKSrtDpj0aSg6AdTT9VSAUJRyl4pBPx7YfT8tCjFH9flw2pFOovItugY6xh1XaeKVl5z6JtkRcpWh6XVnxymn6C8g2Ji4ZtrCd05i03ErZ8gd7ZG0UXo8JoUX87MuPxqe/6dLa9iM4v6kYSy+do2mcn6UJMJO2c15dsBE409WgeO5tu9GuHtXp+EXWTWNJz0z6jkxdiKHLnPOprIyCnqUcpjzUqy9lMgwQmJPGcQfvOn6fww9GK9doY2lcRNXN+kZbsi6LYmOMU7N+G+K2n0LEC5S61KI2jVT7NyNJrOm35PpYunwmlqUxT0iEhdKPiLh0OtCNRh3H06elYSkyMoeMfjiQnvpRG7pP3TNV3vpgch6ygiAtxFL15DDnyLaiFw/P0n62R9HNMBC3sIyVR73XV+4tsgxT/Zo6hRd0kZMn89tnJCxQTuZPm9bUhgdNUOqpwwF2FFkTNnOnFJfsoKpadP9if2vBb0xRFh8opcb0fSa160IzNpygm7gJ9tXo4OUtcaaYiaXTpK6NBMa7J4xNTyU7QnZZfLVet0YYr5vryRDdyXwhJIGrJ2vyCvr9wjg4sGUB2fAf691F5LLhjVXh2LrkLranXnF109uJZ2s363dZcRAKFfhpb4woo4WgwjXTik/3w5RR6NJ7uc9U0jvqljdo+xdKtT2mA2IlmKYzl0kEBRb6pyvs9Zykm+hAt87dnujCjTgtj2HbDdC4SNSPnF5fQvqhYijkeTP5t+NR6irxO1ebu4UCyE3WgcZ+eptjERLb/hwrfSEfuU9SEWshzVyggUUumyy++pwvnDtCSAXbEd/g3KcIry6HNgwRkIvGkGfvO0/nwwxSdcU5v/shydtNwKyvWh7vKczDuHx5PttIA2n5HppWLnP3jqBPqms3ly3L6+b/dyLxjEIWeiaOkK6fpo5EOJGg3neqUviZc4yinFmogu0WfDhCT06wfFItccatf3hbS2bnuJLTuRXN2naWLZ3ez+LQlc5FAOd5onFudcj/S225i1XjEzqd3DK+Noh6z8bJV/4UUdi6OLn+7gYbb86nV5KOqHQ5ToJ2IOoz7lE7HJlIiGyM+lI/J0pEkD0/+obHUUtyHPkiV+1JOCZ19sz01G/AJi7NqVTUc/TOgptS3f1QQSW+q4r/nbAxFH1pG/vYsL8w60cKY0hp1QUnpj2+Tm7hKHxz61JVneY845g1cmtc913r6E1xhT1qTXBVFGWVvDyCpxau0I7ecM1Alka+To6gXra0WBuNuGI22tqBhu/KoIGIi2Yj96COFk+XI6PbWl8lCoHQ81/E6eRxBgdbNyTf4Cj1QjMwVlPHdVgo5lsRKeglFvu5Iol5rSbvJ0WRtMYx2sQIod7pQNIhCbusb1gsoYqINif0+IrXpt2nryxaqgZGhMYl8HBFI1s19KfjKA9ZDRkUGfbc1hI4lKSckCSt6kNjjPbqimBfoskGzWFZtf4E+TKvhN5aQe+/Vc4JbEEETbcTk91E685QS2e2t9LKFKiELwml8CzH1XptSvZ1k2bRzmJQkAz+jzDrcpF87Dyl8fAsS915LKepGKXvnMJJKBtJnrFHFBFcookEht9mWujCwr2yQ9Nt4s7qd0qg51F70PAVfqz65FortQg9693Kpag0rWz8E04Rpn9Ol4ly6dGAT7TqnMfErjaa5HUT0fPA1hY8UfVdpWEHJ9zTTgU+OM78n+SWFoq+fv0ii1tMUS4qBVDWoFoSPpxbi3rRW7Rjm7p00TCqhgZ9lsiNVkzq/jXRT3SGa0155fpY09LqjiHqtTVXHix0TNtqaLIbtIrnVtfTVwBjXRP8Et4Az5vrzRBdKXwh7riG1zLJpe4CULF7dQbnlXLEqpK8m2bALDY16IMukL4Y0N3iCy1mjyhNoRQ8xebx3hWW6AfvrrV810TPB5dLB/S9pDDvP4BC5plTcO0TjbfnKCa7MUJ370Ua1EClqTnsSPR+sWtZERrmXDtCmXec0LlRLKXpuB8X+OlNRkbtC6rkmuboPsuztFCC1oFd35JJMMfAKSTQohNRS5sqffDo0zpakw3ZSjuKYe7T/tRbU8rX9zDvKPmlOcPX1T2+dKNGo2Zy+fEwRgdbU3DeYriiDzqT/HW0NOUZ1Sl8DrnGUuybUQGuCyx23euVt4Vc0yUbEao3aFlnmFzSkuaETXK4xXLVCA2Uc2XhZ7Z9SujDfnUTeqxRLstxLdGDTLjqn7iALz1zqUDVGPDpKQa2F1GNFgiKHqeg7muloSf5bbqnjWQVX/9gR+mtK/ft3/8sxzP+DKUSjUN87xC7a+AZOcLn0qSPPOOcNnJrXPdd66s/gmjr7ob9r1S88m8C2lw9cy1KRdJ3riW0ZsuMTcaciFVtGeaJr167Kv34rcL74Ma4np+LXpBQUtPWCt71G+316oYOZ/N9cx6erP8LQRDQAkyc54Jel3mjTzhODJy3G1wU+GDO0C5rJshGfeAcVqVswylPVHvvrt+I8ih9fR3K6skWelSMcrfW4uiIDSSkFaOvlDbXptujTqwMUptdANGAyJjn8gqXebdDOczAmLf4aBT5jMLRLM9UeteGywdSxF/o6afit5/NoX5KCxOs6vVInFRlJSCloCy9v++rf8Tax7YNeyiCg4kYiUovs0dvXRf0736yvfn07Q5aWgGvlqnU6qFM7135FYmoR7Hv7wkXdKGz9+qKzLA0JVY3yrODoaM22NBKeFC6udtXtmEilaM6rQFmZ1od4KiqRn3wNty27w6eL+rcfzQe+i7Dtb8BHbAufsZPg/TACaxfNwuRRg+DdeThC0mWorKys/liQZ9Eebm1VneNJ0ExshtaO9uArVphAIhGDJ6uZQxW4kZiKIvve8FU7hrnbD307y5CWcA1Kz/AgdXGFnbpDkDbnoaKsDLLseCTeqUDqllHwrMqZrv2w4nwxHl9PhkriWvpqTIwNpuIGZ8wbkidMZXD26w+1zGzRy8cVZalJuF7JEStZJpJTH8Gue0+oU6kt/F7oqDOPa1PfGmXA/vrql6oVQ+DSQeq1BKQUO+J5nzbq/JL2Rq8uSoXK/WiQzqUucFULEVJpc/AqdNUgFmufsZjk/RARaxdh1uRRGOTdGcND0iFj7VXqSkU5ps7w6++qUZt6wce1DKlJ11m2yOHBytERSikbkj9WeCVwKMzPHcE3uey8ed/g8A8CvMzWtVDtr0nd/eOoE5qvN3D6UoQBkyfB4Zel8G7TDp6DJ2Hx1wXwGTMUeqWvoAIZesdRbi1U1QTdcMetPnkry2Tae2SH7j2d1DFt64cXOhqWcfIXmQwZw2vCk2rUY9YnC4tm4JWWKJdsfTB2kjceRqzFolmTMWqQNzoPD0G6jPVP3sHmgzEuwBaJR75EHBNdUdQhnHjUH2NHtGYtafP0+1eBXxNSUOz4PHzaqK2R9u6FqlTmxKBc18wzdlaOeYNhbbJWa8xzavrzicMTiSHWPKupGesQMSNVyzUKk1wQVatKS1kwLHogcMEiLFpU9bcMG0J3Ye2/2rMBRsZ6ZKY1mPBEIgh5yn9zHa9bMlYY8slFxH27BfMDnFF4cTsWvuYDrzE7cUNWCmWTgVhQ3R77W7YBobvW4l/tlS3yTE1hprJBNxVQmq5lOUQiIfuvDqyG4JOLcfh2y3wEOBfi4vaFeM3HC2N23qjzOVBOG/gC8DXjwmyRL1b/kLOeuGhRIWM2mMgPV8MTQVQVhDIZ660Z+FrO5jEZsBVMBDKdjSqpWztsIsYKhZl2o6zPci2wolLVKM+UHaI3EEq4+ipvpyoLVehrtZz5BGam4OvaqTIb4VO94f2v9xERnw+hix+mrFyOMQ7aqcnj81GzvvCYHVyUKR2jrW12nNLdMlW/mP/r6lBpKZtUWaBH4AKNnFmEZRtCsWvtv6CSuLa+GhFjwzEg5g3IE7mdIrFYqzCastiB5IOTAbEiHvOtqYYeeMqLD9WSAj36qm+N4t5fX/1SNWIIXDpQyEeei3U8KGmozpmOtJWoK2nkVCI7fCq8vf+F9yPikS90gd+UlVg+xkH/oMZqkVi7iMhTk4W3ym55LphVn9WQ/Gk2eAKGW/+II8du486xwzjXPACBL1kq962Bvv7prROaGOBLqyGf4GLct9gyPwDOhRexfeFr8PEag50GBL2CYxw1tCboxoC41TNvicdsNdVwGk8CiVjbidopJ59IV2ecQWN4TZR1RjeV2eGY6u2Nf70fgfh8IVz8pmDl8jFQh0eCAYEjYH89Agdj8hF5+FuUDh6HYa10K9eQ/tVdUxrWP2W9U/1bJ7VOqJ4rGJTr2nnGOW+oR/3QHOJ1e/QJIstKRWqhaoFRmJSEG6YucGczdfkgS2WleFztuzLk5NxlcpRjitbODpAUFcOydyAmTZqk/JswBF7t3eHhagvnDs4Q3rmG5Hx1ZErTriOT1Sju43Xf2au8F4uDm44gp/s0rAw9iovpt5GwsR8KT4Xh5B+t4OwgQVGxJXoHqtpjfxOGeKG9uwdc9dwx1cLMER2chbhzLRlq00uRdj2TTRRqUol7sQex6UgOuk9bidCjF5F+OwEb+xXiVNhJxYP4vBraNwTZ7ev4VSMuBYmJyDBzhhtLAP1x0cbMsQOchXdwLTlfvb00DdeVQWDbneFgdgtJSfc1ji9GQuKvQDsnOOu5SqxTO51cWBzMcIst39cwqjghEb+iHZz0NVqD+vTVMEzQwskBFvnpSNN4S6IiZTten7Acx385hM2H7mLgplhc/t9BbNuwDLMDWqH8EdtXf4UxADM4Ms2b3UpCkrZjoHS3M7g8Y9qaxUtShGLL3gisyplJEzDEqz3cPVyrr8A1aUyMDYbljP6Ym3LmiW5kyEpNhVpmhawfN2Dq4o72OeH6Y2VqD3dXiSKP71a3X4LUNPXA3LgaJ69RPI0pEff+zAl11696vGjGpQNb927oJM7E5ViNF5kexSI2RXm7vvIWh+/qS+UthG8+hLsDNyH28v9wcNsGLJsdgFblj9j55f+rA1kWUrWLCJJumMLFXdenZQbmj8gXE0a1QczRPdgZ/iNajpiAAeaKPeuB/jpxQuO7oDl9WXkPsQc34UhOd0xbGYqjF9NxO2Ej+hWeQtjJHFUrdcH6rHcc5daC3mGPM27c45smpvbucJXIxxuNGl2SirTqibz8ZgShrPSxekpWloOcqgQ1bd00Y3g1lbgVvhmH7g7EptjL+N/BbdiwbDYCWpVDU+rCPuMxyiUTJ8M2IOw08PL4oWDZWgvu/rF99NWUevfPDB26dYI48zJiNZz9KDYWqlSWnxCmVIZS9QmZS3Oqa15Dcp1r3tDQ+lHf6DUaun8CaxaF43qxDEVp/9/emcBFVa///zMDs7INIIiibCq4QqThlqSmSUqueTNF8afW38zMuq7XDRPRyiwrTclccim3UlPzFrlAKYYKsimGiSQIiiiyyDY8/++ZGRiWmTkDmrfsvO/LG2f9fr/P83me53vOnDOzC7OWHoAoaDyGN7eEyt0d9nnHsftgBnfdgcyjy7D6+4IaYdoFhWCE01l8+HoEfsoqY8nqFmJXT8RzfYcjPKYY9oMnYpT9Max8cxMuFKhReu07LAzbjercwHe8IcSiK9i/fDpmLDuCTO5tvcp7yPrjNsod3OBmZ4+gkBFwOvshXo/4CdpTxmL1xOfQd3g4jJzSAPYYPHEU7I+txJubLqBAXYpr3y1E2O4bemfXwErclf1YPn0Glh3JZFbiupSFP26Xw8HNDXZiEaQyKajoLu42nB0bhe4exor/7EdGaRWKUrfj7aWHIBk8HkOb8fulDvaDMXGUPY6tfBObLhRAXXoN3y0Mw+5qJzgGI2SIElER0xEZl88m8CW48s1cLNlTjB5jXoRP3dsbdTCuHScEhwyBMioC0yPjkM/GXXLlG8xdsgfFPcbgRVMnrYO4cWM1E2W/MRjuEotP5m9FSiFL4YUp2Bq2HFvOFcLOUcauOMtxKyMDd5mJ1LfP4YsZS/HdXRbfuo+8HgTH4BAMUUYhYnok4rSGwTdzl2BPcQ+MedGHpX8e7IIQMsIJZz98HRE/ZTGLqHErdjUmPtcXw8NjYFDi5vi4Mg3fR27A3rP52mOMQaXIz7iIlJQU/b/US8gqdOTxuYQnTrSnbwjhzqEIzN1zGSXqYqTtmoWlB0QIGj8czaUSHl/ZICh0NJxj3sebn8fjrprp50gYwnZl6ya4/PrizVEiKWRSQtHdu5qLX779TeevRqR/Ph2ogjE1pCViloZgzpZjOHVyN94Z/zZ25ZL2gpu7C/pQdc59QiBC+a0MZGhPiHNfzMBS7QmNv81Pd3AoYi72XC6BujgNu2YtxQFREMYPb26wGJoXP1IEjBsNz1OrsOqX1hg1tiea8oWJJvOEfa3e8dmS1YAr+5dj+oxlOKJ1Ou5l/YHb5Q5wc+PuLJci9VAkIr9NqPl2kNrw1dEm5YQa+PzGV9+0Z6nBJgiho50R8/6b+Dz+LtRlmTgSFoZd2dqI4x63cne3R97x3TiYwc7Gth9dthrfF9RE3EOq4Xq4T5VE5beQkXGX1W81bp/7AjOWfoe7XMRXC1P6FF5+sT1+37QK30kHY8xAG92GevCNjzenNH58quCpCGkZg6Uhc7Dl2Cmc3P0Oxr+9C7mkvbgWq9zhbp+H47sPQmvSo1i2+nvUmLQpsc43b2hq/tA9i/tI0Dxwb9+dBge2IKlEShKxjFz7zqPD2bqHgsuSaf1IL1KILUmulJPSI5gWTXuarKpf8CE15UVHULCXFYnFUpLLLEkkb0UDFkdRruYUbPuJpTSwlZzE3PkljtQjdAR1Vla/oMN3vCEqKH3HZPJVWZCF3IZsFRKSOAXQ9L0Z2oeh1XkUHRFMXlZiEkvlJLMUkbzVAFoclcta0z74rGj1Kh3VP49tGHaeE0sHUiu5mCRS1oZjDwod0ZmUtV9uqn6RqyKddkz2JRW7NJXb2JJCIiGngOm0N0P7ePb94zPJW2ZBMpsuNCv6voE+NHzJTNluKIX2a0EyuZz5RUIugf+hozfM9EvtvjHUeSdo6cBWJGfnkbK+OfYIpRGdlbqH4tn2nCha8pwbKUSs/0oZWcpdKXDmPrpq+GV5DbzaUedQ1JLnyE0hYn5SMj/IyTVwJu3TnVTzkpmiFb3K5whzxqpoQZMPa8fKUZGwmPwV/rQ4wdgA1JQfs4KGeCjIQqpk/hKTwmMIvfvLHbbpNkXN704OlmKSWlmTXOpAfuMiaF6QilTDNmt0yY1d0WIy1TRZ9gvN8lFQz5W/1TyQf3dTMClqv61d/S0KnH+jltBzbgoSWbDxMM3LXQNp5r6r2hccNFpQUIvJh3UvrDEqEmixv4L8FydoFtV50RQR7EVWYtZHOfOXSE6tBiymKE3QGNY4r48Lt9BQmUTzooUxNC+ZiTV5uu4/kYpe3lPMNWLS53xx0hBtXNh3H0yBLZjGWByKZa7Ud95h0sjMDF8R3aFT7wWThyaO2Tkcn6LgPq4kr9bPA+e4+3R8pjfJLGRk02UWRZfx7c+Tv+pg4iUzbtmkDhjFSbRl6jPkpZKRxNqVAkJm0EhvGXVZcNYs2zXQOet7wmJ/Uvgv1i3XRk23o+ZTdwdLlnetyFouJQe/cRQxL4hUqmG0ubpPtdHkKXvqPjiQWjDfSlkcylz70rzD2exsDM3LLwpq9epR/QtJnL5Nxo+OylSK6M7G3XUJ1X4nsnYs8o/PRJ6onbPNsGVF+g6a7KsiC9ZnG1sFq4VOFDB9L2mlf5PWD2J97bmSfjMYCnx1lO3Bp4Xa1HvJjNdvjY3bO6fovWAPbb1hfnV8Kpj6uMpr6k1Z8noa6aUgMcsPSpYnPIIX0bSnrWq2c7XXeA1viCE/Jr/TlRRdFmiW1LejaH53B7Jk8WhlLSepgx+Ni5hHQSoVDdusP2dF8jJ6SmpJXtOP6XOvIXjGx5tTGjk+juKkLTT1GS9SsRxt7RpAITNGsjlFF1pwlhN3GSWvH0leCjHL60rWpgcFL5pGT1tVv2TGo88KQ3HGddPEvIFX84br0COf4GqEUVxI187/QrEpNww4toxuXoqlmNMplFN79LWpvEtXz/9MJ6PjKP22/o3TGu7nUGrszxR3hfuiLgPwHW8AdeF1Sjx1kqJjUynHgBor716l8z+z7XHpZOYpDXI/J5Vif46jK3eMSa8aNRVeT6RTJ6MpNjWnnh3VdO/qWYqJ/pV+171FaxbqQso4G0O/XMgiNn2ohxl+qQObWKfG0s9xV8jwUCro9m9xFMPG+lsev8HM0w476+3fKC6G+f63PNbjptLYsZpJxW1Kj4tmGrpEN+t0jvkr4zzFnDxFSVkNLf9QYG3/FhfD/PEbmWFuA1TS3avn6Wemt7j022batnE+biqmfW4qTuqjn+wXF16j87/EUsqN+keY56uy3IuaOP797v2638Kh4QFznPoeXWVxGv3r77pvRmDw5DS+/GU+RnTAJodJv8RTZu0X3Ut/otc95PTMh9d0Kx6+ztX3Muh8zEk6lWQoZ9Wj5uK0mAqvnadfYlOogXuN8cDx0wiM5onamGFLls+vJ55imoil1HpOV+eup2FD1+u++cEIfHW0STlBC7/fGhO3HGWUe5GrNywm7tf9GjANZTfpUmwMnU7JqTOpqs3DquEaWIxmnI+hk6eSyKh7cjfTMIeONOe0OY3xjM+MnGLu+NQ5SfRLfGadb1kp/el1dtH+DH1Y65sVym5eotiY05RisMGmxrqpeUPjz/m/meA+UIIV+CciaEfgz0c/wX14Mqv3NXOPKxXnaaGfjDxDdlA6V3sq8+jX1YPJRf4ELdLc9fkLYODTl38m9+nUkhH0yleZRiauf3Pqfc/tXw/O6kV0fllvcuxR6ysJzeVPHl/F+YXkJ/OkkB3pmouPyrxfafVgF5I/sYj+KqFsLo14COvBEYnEsBCLtM9kCQg0AkE7An8+TF9iC4iZyB6mzLhzctp9rLH0w/SVb8P9+CR4q5SwtnJBr3euoe+qjZjT1dj75o8Y5lexhZj955+eROTovngvIse0Nvjc8d8fzs/aOP4rUhm3GF1tHRDwfileWTENHc19RaSGP3d8ln7TsfJtdxyf5A2V0hpWLr3wzrW+WLVxDv4qoWwuIm6Wq/tbQEBAQECg6VTeQUbqb8itsIVHh/ZortStFxAQ0KIuwLXUqyh16QgfJ/13Hv/VqLyTgdTfclFh64EO7Zvj7xjKwgRXQEBAQEBAQEDgseLx/IRCQEBAQEBAQEDgH4swwRUQEBAQEBAQEHisECa4AgICAgICAgICjxXCBFdAQEBAQEBAQOCx4h82wVXj2sEV+PfsNTh2s/p3Bw2gvooDEbOx5vhtzWLJ6Q2YvWin5u+/GwUxazH7nb26pb8KRfjls9lY8vVFzc+NPmrU1w5ixax3sC+9+ucO9ZSf24y5sz5F9F3diseaMmQmXcRtE6HwUFFfw8EV/8bsNcdQE34FMVg7+x3svdzQF39l1FcPIILlkeNNNl4BYtbOxjt7L2uX/pJxKmCcEpzeMBuLdqbolh+AktPYMHsRdqY85GxY/gdORC7A5JED0TewP57/11Qs3RqL3JpQe4hjeGj8b2uDwJ/EQ9R4Y+Zj/6wJbukprJkTgSjyxZPOJoauzkb01rXYc1Y7yynP/BXf/3BB8/ffiyoUJezD2s3Hdct/EaqKkfjNp/g86ur/ZoJ742d8+ckWnPijYeuVaYew9pO9OH/vUc36/leocfWz4eg2YScyH9FQS0+twZyIKJDvk6gOv6qiBOxbuxnHr/+9ypk6Oxpb1+7B2btN/BKaqiIk7FuLzcevcwt/zTgVMEE5Mn/9Hj9cyNUtPwDlmfj1+x9wQT/zfHDUv2PzmJ4YvPQE1O0HYOTooXi61U3sndkXPUK/0sX8QxzDw+J/XBsE/iQeosYbMx/7R01w1ddvwv6l9dge3g8q3TpzUL30BZLPvKtbEhB4HCAU3byFokc2j1fj+k17vLR+O8L7NSb6BAT+iqjw0hfJOPNuf93yA6B6CV8kn8G7/WW6FQ9O+blIrDpihf/39Y/YEjEXM96YiQWr9+LE5jGo3LMMn/5azvZ6iGMQEDDFQ9R4Y+Zjj3CCW4Wbu6ai99B3EcfFloZKJH44Er0nf6lZKvj2DfQJWYUdK0fjCRclJDIH+ATNw8FM/ll/ZeYRLHspAO4qGSQKJ3R6YSEOVR9XfhUHF49At8BQvLN8Cp71D8JbO1NRot0KlCRj24xn4e0gh9SuDQbM/xE3a92Y4frVa2CYbqkEyV9OR39vB8il1mjVcwrWrpqKp0d/rNvONXcQi0f4o6W1BJYKZ3QIegs7U2taM0Axji0cgF6Ttta5m1Z+ZgWC+7yGXbmmZiFVyD3xHsYGtIat1BJyp/YY9NZXuFiq22wOBd/ijT4hWLVjJUY/4QKlRAYHnyDMO5jJpiVaTI+pAN++0QchKzcjbHgnNJNLYdWqJ1776iKSt7+GPu42kErt4T1kOaLv6MdC+b8gPNgH9lIpbD2expTIeBTqtuXvnYY+Y+dj0agOcLBygP+c42youTjx3lgEtLaF1FIOp/aD8BZrozFDbRy6ca3agZWjn4CLUgKZgw+C5h0EnyQ1Wn55Bb5YMgTe9jLIVJ7oMyUSZwt0O1TdxMkPQvGMjzOsJBawlDvCu//r2H6xTLcDJ8svMb1/O9jLZVC1fQ7ztn2MV/tMxpd/VLHDd2Fq76F4Vx9MqEz8ECN7a7dzVOWewHtjA9DaVsrO74T2g97CVxphVCF7+1RM+PwSytI3I6R3KDZlsAE11b4FZ/BpaG+0c7JifraDW7fRCI/KYa1o0WqnGwJD38HyKc/C31Q86GLVv6U1JJYKOHeoF6sN0Pro5RVfYMkQb9jLmK08+zAtnWVbOPjzDrcPXwyVJG/DjGe94cC0bddmAOb/eJNdIugxbuumYE5/OG1o+2PNYm3K2lWY+vRofJzM3fdiYz75AUKf8YGzlQQWzJeO3v3x+vaL0KorH3un9cHY+YswqoMDrBz8Mee4IQvznccATNe7pvbG0HfjoDd3Ij4c2RuTv/xDs8ib582IjQZoctjLWPHFEgzxtodMpoJnnymIrA64/L2Y1mcs5i8ahQ4OVnDwnwNuyMbz2l0cmtUXgW8dxB3tGTQU/Xce+vd9GwfvcLrrhYFh0Zr1/LWrEplHluGlAHeoZBIonDrhhYWHtHmE63uvgQiL1lqs6uZJfBD6DHycrSCxYP539Eb/17fD1PDrQwV3UUjcL+jpVmgQw/H5f+PD8EnobsNtaOwYDGNS+7rasnJzGIZ3asZqphWrma+x7cnY/lofuNtIIbX3xpDl0ahVGkzWBtP2MaJtVuO/nN5fW+OtW6HnlLVYNfVpjP44WXNOpgRcPbgYI/xbwlpiCYVzBwS9tRMmy3Z9mqBb3jxuRm1uvF74cqaR+mvKRncPYVbfQLx1sE604L/z+qPv2we146jRuBl1tTITR5a9hAB3FWQSBZw6vYCFh7Rjrjsf48lR3A89PBrUdP3jfqTwmEY/lepW1fud9rzIIJLLrcnz2fm07UQcxR4Mp6CWEmox8YBmu1HK4mlZgDXZ+U+h9T/G0dljkTSpixWpBq2l3yuLKWZuF1LaPUGTPzlMp2KjaNNbvclJ6kGT9t9kvSqiY296k6zZ0/TvL0/Q6RPbaW5fF7IUSWp+61nTL+dQzd+FUW+Qt6wZPf3vrXQ8Npp2LQ6i1lIxWXaYo9lOxTE0t4uS7J6YTJ8cPkWxUZvord5OJPWYRPtvGv/l7/xdL1EzRS9691L1D1OX0vE32pB1v4/YGHSrDFCR9B4Fquyp66vr6EhsPJ36ZjkN81RS26lH6E4tm5uE+412uZysPZ+l+dtOUFzsQQoPakmSFhPpQCHbzjsm7jf8ZSRRuNOgsH10Kj6a1o12J4mtI7k99QptiPqVYvfNoV4qOfVceYlJIYfWDZCSyMKeuk37nKJOR9PO+f2oucSDphzKZ+dTU866ASQVK8nv1W0UE7OHdkdnU9J7gaSy70qvrjtCsfGn6Jvlw8hT2ZamHrnDjcJsyk7PpvZST5p+rEaINRTvGElW0mfow2vV45KT3NqTnp2/jU7ExdLB8CBqKWlBEzWGMQ6nGZlUTs2YzT778RSd3Dmf+rlIyO3/9tNtbvvuseQib0djPj5KcUlJTOvv0wgPCalGbNNsp6LjNNNHRg49ZtDm46fp+Ja3qLerFcmlvem99EpSX/+Y+ik8aJo+mKjs57fJW6HdzoRB7wWqyL7rq7TuSCzFn/qGlg/zJGXbqcSZqzBxP4WP8CBJ62G0JHI/JdypaKJ9K+jX/3Qhq/ahFHksnpLPH6UPRriRtNUUOlLENvNop+44+GLVEFrtSeXN6InJn9GPp05qtOQicaP/289Zkj/vmI4hRtExetNbRs2e/jd9eeI0ndg+l/q6WJJIYp6tDaK+Th/3U5DHtJ+4hTpxytufwih6Q9efrcdjKXrXYgpqLSWxZQeaE1vGiYvGusip3ZiP6WhcEiWxeH6f87VqBG3TmEQbf2KlH726LYZi9uymaEO5ie88hqg1Lr256/52Pl+e540NQ3A5TCYleTOmnc9+pFMnd9L8fi4kcfs/4mSgzllHA1ieVvq9SttiYmjP7mi6WWhKmxWUs2UY2duzsebp2mDW3/2yM6mCN9INtTY3OIfq+swzprL4ZRRgbUf+U9bTj3Fn6VjkJOpipaJBa3/X9l3uTKEH7nNnot1jXUjebgx9fDSOkpJYznl/BHlIVDTCqNENcC+KZrD8IWnmRyPeXElbjpyn60X1fdy4MRiET/sav0hI4T6IwvadovjodTTaXUK2jm701CsbKOrXWNo3pxep5D1pJVf7eGsDj30MaruAot7Q1fitxyk2ehctDmrN6osldZgTqxlGccxc6qK0YznkEzp8KpaiNrF86yQlj0n7yUTZrkNTdMubx/lqc5P0wp8zG9bfm6ZtVJFDW4bZkz0bqz5cdtPLzioK3nhDNw69xk3X1TKKXxZA1nb+NGX9jxR39hhFTmI1RjWI1rLJUO35GF+O+stNcGXSQFp9tVpRZXRiRhuSPxWuWzZM2YkZ1EbmSwvOsuSuo+incBo3+VM6k7eHXnZUUM8VF6lmnqjOpk1DVaTs/wldK9hHIU4KCvwgvWa7OmsDPW8rNTDBvUNfjXYgm4FrSTP/0XCbdrGkJ9FNcAv3vEyOip604mJNa6y5TTRUpaT+n1wzUqQZ9/ZTaAsZdQ1LZFMGRvEPNNXdjoLWXzd+DCshUa+5k7zHCqqZFzPyto8iB9uhtJlFptkTXFYcAldfrWlLY1P5UxSeWmnGmHQBw/zIxSRH6Y9TyU3iTlN/5ATNYDb/9Fk5tZh8iP3NJSEZyZ9+n9L0RqcNz9uyZPAls6g2wGTyAbQ2S9ej0ih6zV1OPVZc0vuRtbt9lAPZDt1MN3VrzKFxE1w2rsDVpJfkCZrRRk5PhafqVhhGo2VZd4pIqRkgZW8MJpXtC/RFbgXlntlJazafrJU8yyh6ZjuN1pnJqeib8eTEkv6KGseq6dpng8jGzAluadRr5C7vUet4Rt52GuVgS0M3c9aqoMSwrqTwXUjnOcE12b73ad9YFhN9wun8Xe1gKjN+oA1rD1Ayy1V82qmoPY5CnlitsVVttD6SdY8gvamzaWOwimxf+IJy1Xx5hy+GWLf2hZCTIpA+qBY380XWhufJVucLflsbwOgEl78/d74aTQ42A2ltLYPc3vUyOUu0E1x17hnauWYznaxVmcuiZ1I7XTzXxN+AtVQdXobgPY8hzJzgGs/zat7YMIgmh8moe0SKPo9nb6RglS298EUuVXATXJmcBqzNYi1o4c1r+btoDCvQQzflaI+5vYNedGxGL+7gSri2SNeeHBofk/Zvme8C0peoIvopfBxN/vSMtu/VxV+dS2d2rqHNJ2td0JVF08x22pxjbPiGKLt6mMJDniYvO3YxBhGJFS7kO/h1Wvtzju48jRmDYXi1r6stnO+1e5TSj1PdSOI+lfSl4VN6Vt6CJh/ixs9TG/jsY0jbd76i0Q42NHBtrfp7exebfEl0E9xC2vOyIyl6riC9FFi+3jSUVMr+9InhxFOPpunWrAmuidrcNL3w58wG9dcMG+XvGkPOqqG0KUd7zO0dL5JjsxdJGy61NK5r32hd1fwtI98FZ5kFdRT9ROHjJtOnZ0o1Oq2e4PLlqL/cM7gilRfaulR3SwyVygaiSv3t+4ZUIT8lFVl2TyKgk/53na36L8D2ja/jyawkXCpujZ59vGCh2waxMwJ7d4Q6LRFJ6cm4WOgK/26ta7aLnXuhRztL3VItKn9D4sUSuD8VgJY1llOhZ49OkGj+rsTvSZdQ3Lon+njVtMbOF4jeHdVIS0xFhW5dA2wGYkywM5L2foX4SqD4xC4cutcXLw1vYfw5EnU2EpJuoPLSeoz064zOnbX/ngmLQcn9y0hJN2W3eohU8GrrUtOWWKWCjagS5eUVZo5JBNs23nDV7SJSWkNh2QLurbWWgVgJpUIEdWX1ZxAWcO/RGx56o6P7U21QejEJl3XdFtm7w91B2yN1dgKSblTi0vqR8NONs3PnZxAWU4L7l1PQmKFCxNI9002VofeDuIs+tpXtokMElVdb6CWpgspGhMpy/gYtPAPRt23NAOHcIwBtyy8h+XIVnANewvhuBdi3Yi6mTRiJAd06YtjadKiruH6pcS3lEu65PInuegPBNfBptDcgy4aokZ2QhBuVl7B+pF+NLjo/E4aYkvu4nJKu//hYR9PtK0e/CePhdm4RurVsBb+B4zHv20IEjB6CTtaNi4fK303HaqrR4LGAZ2Bf6E3tjB4BbVF+KRmX+d5U4Y2hEmQkX0Shqz+6ta7ly149oE0Rjbe1Sczoz2+JF1Hi/hQC9EkIqp490Kk61JwD8NL4bijYtwJzp03AyAHd0HHYWqSrmbZqRC+Cvbs7dOFlEPPO0zSM53lmW5OxoT3CIBaeCOzbtlYe74GAtuW4lHxZ+8KSyB7u7g6sBQ4ztGk/GGOHWOHk3u+Qy9q++d1u/CR9nq1z1O1dF6NjqspHSmoW7J4MgL5EWaH/gu3Y+HqAblkH027AS+PRrWAfVsydhgkjB6Bbx2FYm65mNq+q81gMH1KPwViwLQZXcrORfGwnVs98Dvapm/HGwAGYe6L6A/+6NK7+mql9kS3aeLvq/CKC0loByxbu0JcGJRQiNWpKg6naUGmOfepqu/K3RFwsccdTAS11vmeoeqJHdcBU/o6kS8Vo3bMP9FJgOgzsjY7qNCQaTzy1eADd8mG0NrOTNlkv/Dmzdv01x0b2g8diiNVJ7P0ul7V9E9/t/gnS59k6g+FivK5W5acgNcsOTwZ0gj5c+mPB9o14PaDuM7x8OarG34+MehbnOlF7lcjCoiZBaamZaRilgosMSwtIDO1azgIHlpDUmRiIYGHJVjABqCvULEzF4BZrEMkhlxlvlzjB6v6uT7maqcNSwlqshchCc/6qKrUJwSnRb+xwtL68D1/H5iNq9/coGzgGQ5ubclEZylgGse06FrPnzsXc6n+LVyFy8wr8q02dXpiG9ZGZvg7VFjBvTCJIJLqEUQObKNY7Z20kUkkdAVpackt6PXBasKzuRFkZS5a26Dp2tn6c7N/iVZHYvOJfaMxQxUoFFChG4b363qjCvYJ7qBQpoLSq7hnTijHD8CCSs3ZqD9DCkmmbmM2qkL1nErp1+xfe2ZeAfJkXAicuxZLRbrXswabZzMAWtdoSaQqBbkFDvf5zCU23qkwrDIydXUsXcxdjVeRmrPhXm7q+5HgA+9oP+gin47/H+lnB8Cw6jY1zXkSA/2hs+l3duHjgi9X67qpBBLlCUUdLFiwfsEDVx2kDU1XrjD+GKtUsv4gt64xBJJejOkU02tYmMTOmubEZSUJV2XswqVs3/OudfUjIl8ErcCKWLhkNt9oG0uja0qSUzTuPYeqamyvwddcYz/PmxIYRWN5W1A04rixo8rUGLsfVJBRz8po1Bo4bBoef9+JA1g0c2H0SNsFj8Zydbt96GB9ThWbyZmkhMWlvDVXZ2DOpG7r96x3sS8iHzCsQE5cuwWhzjF5DJVK/WYVVe5O0zyHKnNCx3xi8GbEVx87txZSWadjyRZRmz/o0tv6apX2RhNUGze56REx/uj8NYbQ2mGUfQ9rW5l3DlEMrhbqRKmLnsOS0azzx1OIBdFsvWrjArhMunG7rGatmbE3WC3/OrFN/zbGR9UCMG+aAn/ceQNaNA9h90gbBY5+D4XAxUVcrKtmcjNU+gxO6uvDlKH7bP0S4AVF5Ge7XOK8cOTl5NQZtGmI4erjBNj8daTn6M1Ve3IjXxi3BUbk73CyvIzn5Tq12SpCY9BvQygNt27SDp+wGUlPy9dvL0nD5GvNmfSzboUsHBa6djYO+qXuIi7uouxNlCXdPN1heT0Zy7SfmSxKhbc4T9eO8NrJeL2Ok1zUc3r4K248Cz788BA66bQaxaAFPNyWKS+zQc+x4jB+v/TdukD/a+PiiranbM2bzYGMyjhpZl39DkW4JKERSUgYsPb0NTqYsWnjCTVmMErueGKsb5/jx4zDIvw18fNuavBNVH8vWbeEuL0BCXDJTYG3u4VRsCqhlG7Sz0q16ANSZl3BJP0AUJSfjdwsv+LTJwZ51u5DXfw3izv4XX3++CounB6N5xT0uVbD/WaC1T1sob6QiJU9v89JLaWBzRi1cIaJylOmDCeU5OdDuboEWzGfK4hLY9Rxbo4vx4wbBv40PfNtq72Lp71I/gH2rbiPu6zXYm/MkJi+NxP7T6chKXI1nio5g++G8RmnH0p31wUSsehoVmhqZly7V0lIRO8fvsPDy0dxlNZl3eGNICvd2npBxvsjX96os7TK0KcI8W5uNGf1p16UDFNfOIq5WvrsXF4eLmiRUhet71mFXXn+siTuL/379OVYtno7g5hXgvvnOaI1vQFPPwxVjQnnZfX3ZLs9BTi0dm6TqOk9smECdiUt1Aw7Jv1vAy6cdy2L1MS+vyfuMw8iWsdi/dRP2/NwMw8f1Q6NTg9gRHm62yE9Pq1U3KnFx42sYt+SQbllL1fU9WLcrD/3XxOHsf7/G56sWY3pwc1Q0ynlVyP/5cyyYuwG/1HtJSqzyQxd3MdTcRdsD85C1X4Px2uCZ03j7WLbrgg6Kazgbp3/xlQUM4rQBwyUeFnOWuM7yc10pJOE3tIKH8cSjp6m6NZnH+Wm6XkznzAaYZSM5+owbiZax+7F10x783Gw4xvVrfCEVO3rAzTYf6Wm1/FV5ERtfG4clh27oVnDw56im6a9JiKFyd4d93nHsPpjB3adA5tFlWP19Qf3rl0ajZFenw11i8cn8rUgpZGIqTMHWsOXYcq4Qdl5DETJEiaiI6YiMy2dppQRXvpmLJXuK0WPMi/BpNhgTR9nj2Mo3selCAdSl1/DdwjDsvmFIHCoETw1By5ilCJmzBcdOncTud8bj7V25IN1swTE4BEOUUYiYHom4fFYBS67gm7lLsKe4B8a86MNSggmkT+HlF9vj902r8J10MMYMtNFtMIYdgkJGwOnsh3g94idksct19a1YrJ74HPoOD0dMsW63B+SBxmQUwt3DK/Cf/RkorSpC6va3sfSQBIPHD0UzQ6q0C0LICCec/fB1RPyUxdSjxq3Y1Zj4XF8MD4+BZqiVafg+cgP2ns3XHGIU2+cwZkgzpK4JxYQVX+NY3AUknD6KLQvHMl/eQft/vYweD+Ebe+jOIUTM3YPLJWoUp+3CrKUHIAoaj+HNpZCwS+PyWxnIuMt0pr6Nc1/MwNLv7nK3RDTfWmATFIrRzjF4/83PEX9XjbLMIwgL24VsXV0Sq9zhbp+H47sPIoP5vSzzKJat/h4FumCyCwrBCKez+PD1CPykFQZiV0/Ec32HI1wjDBGkMimo6C7uchM1c+xrCLEIV/Yvx/QZy3Akk7tfVIl7WX/gdrkD3NzsGqcdx2DTsWpUaIQ7hyIwd89llKiLkbZrFpYeECFo/HA0F/PlHf4Ysh88EaPsj2Hlm5twoUCN0mvfYWHYblSnCH5bNwb+/qiCpyKkZQyWhszBlmOncHL3Oxj/9i7kck9asjNwd1lE5beQkXGXlQA1bp/7AjOWfoe73Oh1L7ebQ5POI1bB3d0eecd346BWmDi6bDW+rxYmL9wdfNOxYRS6g0MRc7HncgnUxWnYNWspDoiCMH54c4OFzixtSgMwbrQnTq1ahV9aj8LYnk1JDEr0GzMcLrGfYP7WFBSyyluYshVhy7fgXGG9+1vcHWVROW5lZEA7/HP4YsZSaIevHX1l2veI3LAXZ2tdcNVFih6TX0GP25vx2v+txn8v32XeY5Rk4ed1b2HNaReMHPNwvhrs4Wq/GhO1QcpvnwaogjE1pCViloZgzpZjOHVyN94Z/zZ25ZLuIt8RwSFDoIyKwPTIOGil8A3mLtmD4h5j8CKXeEpTcSgyEt8mVH/PQH2aplu+PM6LGXoxjKmcqdulDmbYiCENGIfRnqewatUvaD1qLJoWLv0wZrgLYj+Zj60phWyiWoiUrWFYvuUcCu3sdTtp4c1RuudyHw1lybR+pBcpxJYkV8pJ6RFMi6Y9TVa1XjJTtJhMh3UPn3MvwiQs9ieF/2LdsjHUlB+zgoZ4KMhCqiSFREwKjyH07i/aV5jVOVG05Dk3UogsWLsyspS7UuDMfXRV8zYX2553gpYObEVysYSkEgk59gilEZ2VBr9FgXvTO2nLVHrGS0UyiTW5BoTQjJHeJOuyQLddTTlRS+g5NwWJLNgYZWysroE0c99V7ctjPFQkL6OnpJbkNf0Y1ZjBFOo8io4IJi8rMYmlcpJZikjeagAtjsplPWnES2aKFjRZb3iqSFhM/gp/WpzA9ZpvTNxD4wpqMflwTZ/LfplFPoqetPK36ifS79KmYIX2hQbNiwBKajc0lPq1kJFcLiGxxIUC/3OUbmieFdc+5K5o9Sod1T97z4YaTRHBXmQlFpNUzvwoklOrAYspKlf3gHnhFhoqk2he1ONDnXeSVo7oQCpmLy4MuH8iWQvqNW0HXaxps+G4mGFosb+C/Bcn6FYYRqMZ++40OLAF05SUJGIZufadR4ezub6q6XbUfOruYMl8ZkXWcik5+I2jiHlBpFINo8268dw59R4Fe8iZbaTsHI70VHAfcpXrXj6gMkpeP5K8FGKmZyXTtQcFL5pGT1tVb1dTXnQEBXtZkVgsJTnzmUjeigYsjqJqc90/PpO8ZRYks+lCs6LL+O1rhIr0HTTZV0UWTBs2tgqSSJwoYPpeytC43rR26r9kwRerDeF8JCf77oMpsAWzs5RpSeZKfecdJo2pOXjyjukY0uxAeSeW0sBWWl9ImC96hI6gzkrzbd0AE9+iwN8floWSttDUZ7xIxfRu7RpAITNGMl92oQVnK0h9O4rmd3cgS9YXK2s5SR38aFzEPApSqWjYZnYOTfwpqNWrR/UvghmA9zy6/epTlryeRnopSGzJbM206RG8iKY9bVUnnxrP8+bFRgM0L7HYU/fBgdSCaUDKaoDMtS/NO5yt6afmWxQUrejV2gmFbTEnV1emRlB3Lq8suVBrvVZ3tV/QMlm71PkUs2IIeSgsSKpkMSJmvh/yLmlKVO0XcNS3KWp+d3KwZDFoZU1yqQP5jYugeUEqUg3brNFT4ZahrPZ0pbBEo0HBqKTsH5bSsPYqFsesTSsbUnI2cXmKJq4/S/c0+zRyDAbh0X6D2lJGv8zyIUXPlaQvDZsoWFE9fp7awGefCiPaLk6iLVOfIS+VjCTWrhQQMoNGesuoy4Kz2u2s3aglz5GbQkQWTLMypl3XwJm0rzrx3FxPg5gGeq78TbvcgCbqli+P89VmM/TSEL6cabj+8tpIQyWlRnTX6HPJhVrra2tc077puqrOj6EVQzxIYSElpYL1j9WIIe/+ovkWmdrzMb4cJeJ24mbCjw52tZEWj7Q7Nmjn3xHNH8Kdshoq83ElIQXZame09/eBk/6dM0Yl8tMTkJoLuLT3RVvHOhsZpci9eAHpxU7o9KQXVAavYqqQmxyLG3a+eKK1tW5dGY5Nb48hyW/i/omZunUM1pf0hFTkwgXtfduiQXNGqLq5BSM7vA+fw/F4t4eZBzHUBRlITM5EkcwVnXzbwMH8Q82niWMyRVXRNcQnZEHi9QR8Wyp1a02hRkFGIpIziyBz7QTfNg76B9GbQOnNS0hKy0Gx2A7uHbvA097Q5zON5/bnz6P1ElfsTf8IndMScUPmBb+OLpDrtnNUFV7DhQvXUKpqC7/OLWFw9OU3cSn+NxQ5d0bn7HfgN/AMpiSdxOw22ivm8ltpiE+7A5t2/uhoKJjUBchITEZmkQyunXzRpo4wqlCYEY8Lf1TB1bcrPO040TfRvlVFyEpJwpW7Yjh5+6FD89ojZTRKO3yxWpvb+Pz51ljiuhfpH3VGWuINyLz80NGlXvtm5B3eGCrNxcUL6Sh26oQnvVQN7wqatHXjMdafqtxkxN6wg+8TrVGThY5NR/shyXgz7Rhmcg+gVRXi2oULuFaqQlu/zjArtAzR1POU30JafBru2LSDf8fmaGyaNys2anP7czzfeglc96bjo85pSLwhg5dfRzSQgSH+hLxmjMr8K0hIyYbauT38fZyMxBaLy2sXcOFaKVRt/dC5yc7jKMOt9GRcziqG2K412nf2xENKcXV5yNrnMF4bGmmfqlwkx96Ane8T0JftY5jefgiS30zDiZluupWcf9KRoE088G3rWMs/Vbi5YSRewQYc+H/Ndesa0mjd6uDN4yZprF7MzZmGMW6jhw2rA1cSkJKthnN7f/jUndDpMZWjNNNgATOpoPML/UjmGUI70ovZciXl/bqaBrvI6YlFuivBJsNdOhXR+WW9ybFHra/vEPhb0vBuyINT5+tjBHQYuBvwmFNxfiH5yTwpZEc6abJQ3q+0erALyZ9YRGdN3dR7nDFwp0tAQEPFeVroJyPPkB2kLdt59OvqweQif4IWmRsw90/RkhGv0FeZxu7E/p345+RMg/cpBYxhCb/pK/G2+3FM8lZBaW0Fl17v4FrfVdg4p6tun6ZRGbcYXW0dEPB+KV5ZMQ0djT5vKPB3QCQSw0Jc++vGHgLcOS3ED/ecf3uYjcUWEDOj/FPMYuk3HSvfdsfxSd5QKa1h5dIL71zri1Ub56Drn3F37u8A879YExtCcAjUw9IP01e+Dffjk+CtUsLaygW93rmGvqs2Yo65ASPvibBvIjGm9eMwZfrn5Mz/wSMKjwOVuJORit9yK2Dr0QHtm5v7QYQJ1AW4lnoVpS4djd+KFxAQENBReScDqb/losLWAx3aNzf741ABgX8klXeQkfobcits4dGhPR5G2Rb4ayNMcAUEBAQEBAQEBB4rhEcUBAQEBAQEBAQEHiuECa6AgICAgICAgMBjhTDBFRAQEBAQEBAQeKx47Ce46qsHEDF7DY7fNvarLw9KAWLWzsY7ey9rl2LWYvY7ezV/P86UnN6A2Yt26pb+iZQhM+ki/jRZ1UZ9Bd8sexszZ87U/Hvrrbcxa+4iLP90D85kl+l2ahqPjV5LTmPD7EXYmcL9LNtfjRKc3jAbi3am6Jb5KctMwsVHIi4Bc/jrxYk5+UeNPw6/i3/P+gBHsx9QSwUxWDv7Hey9rPspxb88alw9EIHZa47rlnn4E8ZXO4Yfu3pZlomki7fxKDLUg9ju8Z/gZkdj69o9OHv3T3qXrqoICfvWYvPx69wCihL2Ye1mM4Pqb0x55q/4/ocLuqV/Gix5fjYc3SbsROajiPDKP3Biy6fY+tNvyLt9G3l5N5F95TyOfPQKnu7YHf9vdwbrUVN4jPRanolfv/8BF3L/igW4HJm/fo8fLuTqlk2jvvoZhnebgJ2PRFwC/PzV4sTM/FMeh7Vzw3G03BcBLg9W6quKErBv7WYcv/5XvIA0hBrZ0Vuxds9Z3bJpHvb46sfwY1Uv1Vfx2fBumLAz85FMcB/EdsIjCgJNQvXSF0g+865u6Z8GoejmLRQ90vmHCM2DFmDTtm3Ytm07du49jF9SzuPLoUXY8v+mYF363+XOyp+E6iV8kXwG7/Z/mD+N+LBQ4aUvknHm3f66ZdNQ0U3cerTiEvhbYV7+UWflwm7UOuxcORAOQqV/pNSP4ceqXlIRbt4qeiSTW44Hsd0jlX3Bt2+gz8sr8MWSIfC2l0Gm8kSfKZE4W8BtrcLNXVPRe+i7iCvX7M6oROKHI9F78pe6ZbZX7gm8NzYArW2lsJQ7of2gt/DVxVLdVqAkeRtmPOsNB7kUdm0GYP6PN1k60GP6+AJ8+0YfhKzagZWjn4CLUgKZgw+C5h1EZhPnD/z9/RLT+2v7a92qJ6asXYWpT4/Gx8naK8mqmyfxQegz8HG2gsTCEnJHb/R/fTsuaj6ZzsfeaX0wdv4ijOrgACsHf8w5XqI5rjZ3D81C38C3cPCObgVH0X8xr39fvM2trLqJkx+E4hkfZ1hJLFg/HeHd/3Vs1zbCmtmLaX3GYv6iUejgYAUH/zn47us30GtgmHY7o/zqQSwe4Y+W1hJYKpzRIegt7Eyt7ksBznwait7tnGAlZX5x64bR4VHIMRIhpnXC4OsvSpD85XT0b2cPuUyFts/Nw7aPX0UfnY6qbu7C1N5D8a5eaKhM/BAje0/Gl39oO2Xcb1XI3j4VEz6/hLL0zQjpHYpNGUwcVbk48d5YBLS2hdRSDqf2g/DWVxdRo6wznyK0dzs4WUkhtXNDt9HhiDJmAHOReeHlD8MxXBKNjVsSWLQwePrBx8P0IyozcWTZSwhwV0EmUcCp0wtYeChTe7eZz4cF3+KNPiFYuTkMwzs1g1xqhVY9X2M+SMb21/rA3YbZ0d4bQ5ZH4w7XPrd/r4EIi9b5tPwqDi4eAf+W1pBYKuDcIQhv7UxlytCi0VjIKuxYORpPuCghkTnAJ2geDtYEehVyT7yHsQGtYStlcefUHoPe+gr6VHEGn4b2RjsnK0ildnDrNhrhUTlGkj6XV3phYFi07m/jOaYqezumTvgcl8rSsTmkN0I3ZbBjTPclf+809Bk7H4tGdYCDlQP853B3Gnn6z+NL03nHAKZ8jXJcPbgYI/xbwlpiCYVzBwS9tRN6WWl9vWrHSox+wgVKiQwOPkGYd7D6eD5dcs0fwbKXAuCukkGicEKnFxbiULUveWLCsP1MwJt/6tFYLTOM299Q/rllsA6obyQhOupXXKlOc0Z9ZF7t1cP2P/kBQp/xgbOVBBbMpo7e/fH69oswJo+66GJg5WaEDe+EZqz2WbHa9xrzSfL219DH3YbFlD28hyxHdLVB+DTE5fxtM/CstwOzrx3aDJiPH2/W/dSWrxbXgSd/mMJQDHP5pqZeavTwMlZ8sQRDvO0hYzXKs88URNYUOH6916b42EIM6DUJW2vfzi8/gxXBffDaroafGvHWV1O2rsrG9qkT8PmlMqRvDkHv0E3Qlj8TtjUjvk3ljzq2a2zscd+D+6jgfr5UJpVTsycm02c/nqKTO+dTPxcJuf3ffrpNarr+cT9SeEyjn0p1B1AZ/fy2Nyl6v6ddrEii9wJVZN/1VVp3JJbiT31Dy4d5krLtVDpyh20vOkZvesuo2dP/pi9PnKYT2+dSXxdLEkl0P2/Kd7zmJ+zkJLf2pGfnb6MTcbF0MDyIWkpa0MQDhdwODVFfp4/7Kchj2k/cQs0YNPC1VxhFb+j6u/V4LEXvWkxBraUktuxAc2LL2A55tHusC8nbjaGPj8ZRUhLrz/sjyEOiohHbbrPmcmjdALa/0o9e3RZDMXt2U/TNhj8lqM7ZQsPs7dkxebo1RHd2v0zOqmDaeENNebvHkou8HY35+CjFJSVR7MH3aYSHhFQjtjG/cMevowFSMSn9XqVtMTG0Z3c0XVofRHLnUO3JimNobhcl2TG/fnL4FMVGbaK3ejuR1GMS7Wf9qfj1P9TFqj2FRh6j+OTzdPSDEeQmbUVTjhRpj6+HaZ2w7Tz9LTo+k3xkDtRjxmY6fvo4bXmrN7layUmq05H6+sfUT+FB0/RCq/szuDx+K0zcT+EjPEjSehgtidxPCXcqKOm9QFLZd6VX1x2h2PhT9M3yYeSpbEtTuQMqfqX/dLGi9qGRdCw+mc4f/YBGuEmp1ZQjZNgC9Sg9Tm94Scln1i8sIurBaWCgjGTPfUY5ap5+NKCeXh+qH8soflkAWdv505T1P1Lc2WMUOakLWakG0drfK3l9qPnpVZmEFO6DKGzfKYqPXkej3SVk6+hGT72ygaJ+jaV9c3qRSt6TVl5iPuP2lztT6AHuxyeLKWZuF1LaPUGTPzlMp2KjaBPTgJPUgybtv6n5UWxOY3K5NXk+O5+2nYhj7YdTUEsJtZh4gGudSeA9ClTZU9dX19GR2Hg69c1yGuappLZTj9AdqqBf/8PG0j6UIo/FU/L5o/TBCDeStppChiWtzSvOody5eXJMYSLtD+divDUNWxJJ+xNYayb7oqacdQNIKlaS36vbKCZmD+2OvslzDCdJU77kyTsNMO3r4pi51EVpR09M/oQOn4qlqE1vUW8nKXlM2k+adKXxnZysPZ+l+dtOUFzsQQoPakmSFhNJk3Z5dEll8bQswJrs/KfQ+h/j6OyxSJrE4k01aC39XskXE4btV5e6ccKr3fo0Vss89m+Qf24brgOlR6aQq2IQrdcMx5SPynlrb52cmbebxrrIqd2Yj+loXBIlMX+9z/VHNYIMyqMBXAzISKJwp0Fh++hUfDStG+1OEltHcnvqFdoQ9SvF7ptDvVRy6rnykuYIPg0VHXuTvGXN6Ol/f0knTp+g7XP7kouliCRmzh3q1gT+/GESAzGsyTfV9VKjBynJm7Hzf/YjnTq5k+b3cyGJ2//Rfs5+fHqvT/4ueqmZgnq9e4mqf8S99Pgb1Ma6H33E4q8+fPXVtK0LKXF/uEbvrYctocj9CXSHb57DF998taKW7Robe49+givrThEp1UZXU/bGYFLZvkBf5FbwBllp1GvkLu9BKzRJQEfedhrlYEtDN9+kwn0h5KQIpA9qfqtfTVkbnidbqXbiwnc8W9AEnjRwNV2t1lHZCZrRRk5PhafqVtTDxASXr707X40mB5uBtPaaXrS3d7GJp0Q3wVXn0pmda2jzyVpBVRZNM9tp+1OpmeDKSD5gLWWZjLp82jXGmVRDN7FJELd8m3a86EjNXtzBRqym3DM7ac3mk9pio6GMome2I/lT4ZTKuq6Z4MrkNGBtVk0/aouucM/L5KjoSSsu6sepzt5EQ1VK6v/JNSreN5aNsw+Fn7+rPb4yg37YsJYOJBu+aODTien+FtE3451I3nMF1ZhdfY0+G2Rj9gSXXycVlBjWlRS+C+k891PmpVH0mruceqzQJxhOS9tHOZDt0M108/4+GutgQ33Cz9NdrQEo44cNtPZAMhm5bKqLqQkuS8Zfj7YlCRt7SjFPP3Rr9NTV60P1oyZuZOS74Ky+z0U/Ufi4yfTpmRJezWmSIisCvd9L142llH6c6kYS96n0o+4H1NXZn9Kz8hY0+RBboUmiuglu4R562VFBPVdc1NtBnU2bhqpI2f8T4sJNm+QDabU+0OnEjDaa9rm2ol5zJ3mPWhpi5G0fRQ62Q2nzzfu0b6wD2fQJp/NahzJT/EAb1h4gw5KuP8E1nWMqEsOoq8KXFmrFxdMX7QRNJh9Aa2uSAN8xRPdN+ZIv7+hW1WDS13m052VHUrB41MuKxfOmoaRS9qdPtM7Q+Dpw9dWa9spOzKA28qconImBT5f3uX1lvrTgrD46in4Kp3GTP6UzBXwxYch+9akdJ/z5sgGN1TKv/evlHyN1oM4ElyceGzPBVeeeoZ1rNtNJvQFY92ZSO52/+NHFADt3daku/XEquUncaareIPTps3JqMfkQWyjk0VAB7QtxIkXgBzXnI3UWbXjetibn8+X0OjXBjPzBR90Y5iRQf4Iro+4RKTXnV2dvpGCVLb3wRS4V8Oi9YfP3aH9oC5J1DaNETXPF9MNUd7ILWk/XDfTVdH0t4I/XikQK66og34XnmRL5bcsX36a1WVrLdo2PvUf+ZI6FZyD6trXQLYnh3CMAbcsvIfky38PdamQnJOFG5SWsH+mHzp07a/89E4aYkvu4nHIJvyVfRKGrP7q1rnX+Xj3QTvNz03zHp0P76YwIKq+2qHkmX6yCykaEynL9x9nmwd/f1MSLKHF/CgEt9W5Q9eyBThLdgtgZAS+NR7eCfVgxdxomjByAbh2HYW26GlVVVbpHL0Swd3fnecbKHoPHDoHVyb34LrcKVTe/w+6fpHierXPkbBTwEsZ3K8C+FXMxbcJIDOjWEcPWpkPN2qiq/pRHZA93dwe2d30q8XvSJRS37ok+XtV257oeiN4d1UhLTIVFvwkY73YOi7q1RCu/gRg/71sUBozGkE7Wur0bYlwnVab7W3kNKZfuweXJ7vCoOdwVgU+3h3m/Om6uTvSosxOQdKMSl9aPhF/1/p2fQVhMCe5fTkG6uB8mjHfDuUXd0LKVHwaOn4dvCwMwekgnGLeAuVSg5H45REol5Dd4+mFSwg/Xj1X5KUjNssOTAZ1Q88PTVv2xYPtGvB6gMFNztmjj7Qptb0RQWitg2cIdrXXxIWZjVojUqKz5nEtL5e9JuFTcGj37eOmOZbBYCuzdEeq0RKRWaFeJVF5oqw90qFQ2EFUyI6mzkZB0A5WX1mOkX7UdO+OZsBhm68tISRej34TxcDu3CN1atoLfwPGY920hAkYPgQlJ16IROYa3L9pjRPbucK9OAmYcIzflS7Pyjh6Tvn4yC0mXitG6Zx/oZcXiObA3OqrTkKh3BrzautTkF7FKBRtRJcrLK3h0mYzclFRk2T2JgE76nzi36r8A2ze+jq63zYuJOvYziZn5sj6N0XIj7a/FdB0wHY+Ne25d7ByAl8Z3Q8G+FZg7bQJGDuiGjsPWIl3Nxm/UAPURwbaNN1x1LhUpraGwbAF3vUGgVIig5gxS+btpDSWlI/liIVz9u0Ff+p3Rq0c7Xc5vXE43N388EBaeCOzbtub8YuceCGhbjkvJqfiNJw83bN4GA8cEwzlpL76KZ/Oo4hPYdege+r40HC2M6MFofU39zbx4rcFM2xqNb2qENhsfe+bV/IeISK6AorbRLSyZk9kgqx8fqddJLmCqV5WVMVPZdsXY2aHooPc9Qwyb9m1Ah1gwiC3rDEokl0Mm0v7Nd7z2OBEsLOps5FY1Cb72LL5lfxKXFLRrG1CVjT2T+mD8rvvoGBiIrl0CMXHUCzi9YC7SdLto+2vJ20XrgeMwzGEk9h7IwvMWu3HSJhhfPWfHtlQhe88k9Bm/C/c7BiKwaxcEThyFF04vwFx9I6wZC+Yqw62Uq1lQWUrqiontb8lWVFWpQfZD8NHpeDz/9Q7sO/wDjm2cgx1rVmH4+mg2vlpJpBbGdWJGf0nE2raoZRNWUJSKejZqIDRU/2i1eTqpRVkZC2JbdB07G6F1D4DYpj3aWNrD+aPTiH/+a+zYdxg/HNuIOTvWYNXw9YhmY6mVxxpPeTKb9KvRrI8PXCoSePqhWzDCQ/VjRSVLfcxnEkOaMVdzEkiqL/aqETG96/40SjmbKLC2JXUHwiSkGQjUOj+LWJzXPVd1X8uglcBYzA7tUHcfsQ3aM0PaO3+E0/HP4+sd+3D4h2PYOGcH1qwajvXRezCJ16GNyTH8fUGCdiz68DTjGPtBxn05UY5vePNOLUz6upxNUjhZ1XEG6y+Xp1nu0zuD2UT7ZzXVZ+PTZTk3CWLxbrB53tjUZoK69jOFmdqtT2O0bFberw9PHTDpIx0NUqK+9tamKptpvM947LrfEYGBXdElcCJGvXAaC0waoD4iZo8GBuHcagA+DVVArSn9tbeLIJfLauzBn9NrfduCmfnjgRDJoahb4DgJs+lAFX8e1q2qjbLfWAxvvRX7vo7FrMDd+L5sID4Y2pyNzjDG66uZ8VoLftsma/pvNOWZo00NjY89Y+P/01BnXsKlIt0Coyg5Gb9beMGnHRsgswCVl+F+jQ3LkZOTx4bFYYEWnm5QFpfArudYjB8/Xvtv3CD4t/GBb1tneLbzhOxGKlLy9TPGsrTLuMYcxn+8obuTDwJ/f326dIDi2lnE1XpL515cHC7qLpKqru/Bul156L8mDmf/+zU+X7UY04Obo+Ie258FQqOQ98G4kS0Ru38rNu35Gc2Gj0M/K7a+6jr2rNuFvP5rEHf2v/j681VYPD0YzSvucXLW2d4UlnBn47S8ziZaNS8EMEoSkfQb0MrDnY3pa6zZm4MnJy9F5P7TSM9KxOpninBk+2GjLygZ1UmbHNP9tWgNn7ZK3EhNQV7NuUtxKe13FkQ6mM4sqBxleqGhPCdHt795OmG1qQaLFp5wUxajxK4nxlbvP34cBvm3gY9vW6juxOHrNXuR8+RkLI3cj9PpWUhc/QyKjmzH4Qd60awKt77/AvuuNsfzIwKh5OmH6RtUD9ePYkcPuNnmIz2t1otXlRex8bVxWHLw3ANqzjSW7swOlteRnHyn1rlKkKgdCDzr19X6WLSAp5sSxSV26Dm22o7jMW6QP9r4+KKt6g7ivl6DvTlPYvLSSOw/nY6sxNV4pugIth/O0Z3kAagrLtN9MeRU3mOA2yZ8mZ3ZuLxj0tdH5awvlrjO4reurJLwG1rBg9cZfLpsAxcPN9jmpyOtlggrL27Ea+OW4HuR+wPEhAEeOF/yY07ery0RczDpo0M3eGpvbapwfc867MrrjzVxZ/Hfrz/HqsXTEdy8Ak0pS2Zh6W5aQ23boJ2nTJPz9aW/DGmXr7GJKkfjav8D5w8OPgepM3GpboFD8u8W8PLpAC+TeveEweZlvfDySC9cO7wdq7YfBZ5/GUNYnBvDaH3t4GVGvLILEe1qxoPPq/i0WUMTYq+x4f3A0J1DiJi7B5dL1ChO24VZSw9AFDQew5tbQuXuDvu849h9MIO7B4HMo8uw+vuCmisWu6AQjHA6iw9fj8BPWWXMS7cQu3oinus7HOExxbAfzK4k7Y9h5ZubcKFAjdJr32Fh2G7c0I2c7/iHDV97quCpCGkZg6Uhc7Dl2Cmc3P0Oxr+9C7mkExB3FScqx62MDNxlY1DfPocvZizFd3e5qyYjb38aRYqAcaPheWoVVv3SGqPG9oT25j93pSpC+a0MZGgbwbkvZmCpthGz3r53DA7BEGUUIqZHIi6fpZSSK/hm7hLsKe6BMS92gOWV/Vg+fQaWHclkXmXavZeFP26Xw8HNDXZGFGhcJ1Ke/togKHQ0nGPex5ufx+OumunoSBjCdmXXTHDFKne42+fh+O6DyGAdKss8imWrv0eBTmj8OhFBKpOCiu7iLpdB7YIQMsIJZz98HRE/ZbExqnErdjUmPtcXw8NjcF90BfuXT8eMZUeQqTUAsv64jXIHN7hxBqhMw/eRG7D3bD7XvFEq7vyBSykpSGH/En89jj2rX0Xw5O2ofGEZFgRZ8/aDT+EP1Y/Kfhgz3AWxn8zH1pRCVvgKkbI1DMu3nEOhneMDa84kjsEIGaJEVMR0RMblsyJXgivfzMWSPcXoMeZF+Bi8S1QbOwSFjIDT2Q/xesRP0EogFqsnPoe+w8MRc1+EK/uXY/qMZTiidSjuZf2B2+UOcHPjPhV5MERSGaRUhLtacZnui0Gn8h0jhsiUL6WNzDsmfe2F4JAhUEZFYHpkHLSy+gZzl+xBcY8xeJHfGTy69IFNvzEY7hKLT+ZvRUohK3SFKdgathxbzhXCzn3wA8VEQx48X/LCm/fr5R9z4IlHvtpbG+7unqj8FjIy7rJJhRq3z32BGUu/w13uSJ0BSlMPITLyWyTovxjgAXDk0VAzDJ44CvbHVuLNTRdQoC7Fte8WImz3jZpJT6Nqvxn5g298dWPYAHQHhyLmYs/lEqiL07Br1lIcEAVh/PDmcOLRu+GIkeKpl19E+983YdV3UgweM5BVQuMYr69O/PEqkkImJRTdvau5gHjgeZVJbdrrduIwJ/YqkfZ9JDbsPau92NE9i/tI0DwsbN+dBge2IKlEShKxjFz7zqPD2bonhsuSaf1IL1KILUmulJPSI5gWTXuarHQPinMPGedFR1CwlxWJxVKSyyxJJG9FAxZHUa7mFGz7iaU0sJWcxNz5JY7UI3QEdVbq3o7nPZ57+F1BLSYfJt2j7kQVCbTYX0H+ixN0K+ph6lsUeNsjKk7aQlOf8SKVTELWrgEUMmMkecu60IKzFezw2xQ1vzs5WIpJamVNcqkD+Y2LoHlBKlIN20y5FdzLBQpq9epR0r8uZYLKVIroLiNJ1yV0QfvsO0NNt6PmU3cHSxJLrchaLiUHv3EUMS+IVKphtJl1VPOSmaIVvXpU30qdh+bZOXKiltBzbgoSWTC/sXHKXQNp5r6rmofQqSKddkz2JZWFBcltbEkhkZBTwHTam2HgqXCGaZ3w95foDp16L5g85GKSSNnxjk9RcB9XktfoqIyS148kL4WYLOVKpjUPCl40jZ62MlcnRPePz2R+siCZTReaFV1G6rxoigj2Iisx85VcRpYiObUasJiiNAdUUPqOyeSrsiALuQ3ZKiQkcQqg6XsztC8ZFG6hocz/XcMSuaWGaF4ys+BqjfafSEQWUlty8elDY5d8S7/ViJX13GQ/6tNQrw/Tj+r8GFoxxIMUFlJSsjGLFR405N1fNG/+8/qQezFB0YImH64eXBn9MsuHFD1X0m/Vzd3dRMEK3Ytl3P4136LA2s6JoiXPuZFCxPqqZHaQu1LgzH10Vad7TmOKFpOp5vRshAmL/Unhv1i7qM6j6Ihg8rISsz7KSWYpInmrAbQ4Kpf1njPFDprsqyILZicbWwXLNU4UMH0vGTYFl1dqv2TGk2PuH6eZ3jKykNlQl1nRPH3RviSlaPUq1QpP3v6b9CVf3jEgJeO+5jbmUNSS58hNwXTL4k1mKSfXwJm0T++Mer7mTLKY/BX+tDiB24dHl2x7fswKGuKhYHGhZGMRM00PoXd/0bTOExNG7FeHui+Z8eefejRWy2bYv07+OZFpsA7U/RYFdlpTPuKpvXVeMrsdRfO7O5Aly41W1nKSOvjRuIh5FKRS0bDNWn3dXD+IZJKetLJmgLVpGANlv8wiH0Xt/e/SpmCFLmYYfBpiej+xdCC10uR8ll8de1DoiM6kNHPuUP/FY778YXp8jHoxXKdeanKVPXUfHEgtWF+lTK8y174073C2xnZcX03r3QgVybTsKSlZek2nY/pQagDvPIzP1sxrx2d6k8xCRjZdZlF0GU+95I1v1qQJbeptZ07sFdKWodwcR/vCnYg7OTfvfRTc/vx5tF7iir3pH6FzWiJuyLzg19EFct12LezKNS0eaXds0M6/I5obev5dXYCMxGRkFsng2skXbRz0LxdoKM3FxQvpKHbqhCe9VA1vU/Md/7Ax0l5VbjJib9jB94nWNS8blR2bjvZDkvFm2jHMdON6XoXCaxdw4VopVG390LmlUrvjQ6aq8BouXLiGUlVb+HVuiSa1UpmP9IRU5MIF7X3bwrGOWatQlJWCpCt3IXbyhl+H5vX8rsccnZjT3/KblxD/WxGcO3dG9jt+GHhmCkp+nq3byrbfSkN82h3YtPNHR0NCM6kT5peMeFz4owquvl3hqbmFqUZBRiKSM4sgc+0E3zYO+ofmGVVFWUhJuoK7Yid4+3VAc2MGeGBM94OXh+RHLZXIv5KAlGw1nNv7w8dJf7KHojmTsLbTE5CaC7i090XbugMxC3VBBhKTM1Ekc0Un3zaoK4EiZKUk4cpdMZy8/dDhITq0qjAD8Rf+QJWrL57y1N4VNtkXI5g+xpQvm5J3jPuaozI/HQlaZ8C3rWPjNMlhUpcMtv1KQgqy1c5o7++Dus0/YEzU48/XLp/9DeUfczDlIzNqbzVVhbh24QKularQ1q8zGnbvJjaMfAXY8C3+X3Nz+8YPn4ZKcy/iQnoxnDo9CS+VgXYbVftN5A8zxmcohjXc/hzPt14C173p+KhzGhJvyODl1xEu9dMHn97rw/q0ZWQHvO9zGPHv9jCqb/PmYTy2Zv7PiL+AP6pc4dvVU/sJ3gPPq0znj2oaFXvcBPdR0fCuyT+bivMLyU/mSSE70qmYLVfm/UqrB7uQ/IlFxN3A/afy8HVS7/uUBQQEBAT+NO6fWkIjXvmKMnU3BR83Hmh8Bu5oPihcN4rOL6Pejj1qff2XYf5J87CHd2llBiKRGBZiEe/z1/8ULP2mY+Xb7jg+yRsqpTWsXHrhnWt9sWrjHHSt+xLjP4o/QycisYXmnAICAgICfy7y7ouxN3IMWj/SGcaj44HGxwqb2ELM/vOQ6lFlHBZ3tYVDwPsofWUFpnU0/Vz7P2ke9kgfURAwTOWdDKT+losKWw90aN/8T/i4S0BAQEBAQODxQ42Ca6m4WuqCjj5OD/TozeOGMMEVEBAQEBAQEBB4rHhMP0AQEBAQEBAQEBD4pyJMcAUEBAQEBAQEBB4rhAmugICAgICAgIDAY4UwwRUQEBAQEBAQEHiseKQTXPW1g1gx6x3sS6/+0VQ95ec2Y+6sTxF9V7fi70LJaWyYvQg7U4z8JJ9AQ9RXcSBiNtYcv61b8TfiIfa95PQGzF60U7f04KivHkDE7DU4fruqoS7VmTi8NASDAp9G/0kbcfF/JNeyzCRc5Pr3OCHkAC0PU2Mamy7B1/8rodagxtUDEZi95rhmqX7MqjMPY2nIIAQ+3R+TNl7E/6a3ZchMuojHLaz+yhjL3Zo5zr9ZfTh2E39Pd9TV+wNRlomki7f/p3Z4tBPcGz/jy0+24MQfDdNAZdohrP1kL87f+5vJojwTv37/Ay7kNpy0CxhBnY3orWux5+zf7WqG8RD7Xp75K77/4YJu6cFRZ0dj69o9OHuXGuiy5NAiTFr+Myx7jcDwgV3g8j/47EZ99TMM7zYBOzMfs0os5AAND1Vj95Oxf+3niLr6v5/gZkdvxdo9ZzVLdWO2BIcWTcLyny3Ra8RwDOzi8j/4SJRNSD4bjm4TduJxC6u/MoZzdylOrZmDiCiC75POf9OPx+vqvcmor+Kz4d0wYWfmP2eC+1iieglfJJ/Bu/1N/a6hgEBDVC99geQz7+qWHjJ1dFmFwuxsFLZ4Hm8t/TdmvNwd9v+DyKeim7hV9BhWYSEHMP4aGvuzqROzVYXIzi5Ei+ffwtJ/z8DL3e3/BwWVUHTzFh7HsPorYzB3q6/jpv1LWL89HP1UunX/VKgIN28V/c/vYv81U1DBt3ijTwhW7ViJ0U+4QCmRwcEnCPMOZrLrCzOozMSRZS8hwF0FmUQBp04vYOEh3bFVN3Hyg1A84+MMK4kFLOWO8O7/OrZfLNMcWvDtG+gTshKbw4ajUzM5pFat0PO1r3AxeTte6+MOG6kU9t5DsDz6jmZ/TV97DURYdLl2ufwqDi4eAf+W1pBYKuDcIQhv7Uxl1/ocBfj2jT4IWbUDK0c/ARelBDIHHwTNO4jMmoFVIffEexgb0Bq2UkvIndpj0Fus/VLt1vy909Bn7HwsGtUBDlYO8J/DfZRQjqsHF2OEf0tYSyyhcO6AoLd2IlXbqEk04315Bb5YMgTe9jLIVJ7oMyUSZwu026tu7sLU3kPxbpxufIzKxA8xsvdkfPmHVr5VuSfw3tgAtLaVMns6of2gt/BVdYc5SpKxbcaz8HZg9rRrgwHzf8TN2t++XJWLE++NRUBrW0gt5XBqPwhvfXWRXQ+bQyUyjyzDSwHuUMkkUDh1wgsLD9XYs/zqQSwe4Y+W1hJYKpzRIegt7Kw2jDk6M9V3pqVdU3tj6LtxzAM6KhPx4cjemPzlH7pl41rkbN9rYJh2v/y9mNZnLOYvGoUODlZw8J+D4zz+K0nehhnPesNBLoVdmwGY/+NNVu501OiyBBdWv4jB77E+5n6L6b164o1vmXN5bG5QZzzHaGNnFXasHI0nXJSQyBzgEzQPB5kzqrK3Y+qEz3GpLB2bQ3ojdFMGO8K01tkZcebTUPRu5wQrFnd2bt0wOjwKOeZkzcc4B6DgDD4N7Y12TlaQSu3g1m00wqNyzCompmPVnL4ZotKwxnj9azp2ucnbndh38aJfcyikXGwOxKxvMnSxWYWbJz9A6DM+cLaSwILp0dG7P17ffhFaL3Jm+hShvdvByUrKYtcN3UaHI4pXPCVI3jYDz3o7QM5s22bAfPxYK1nVxGzlBax+cTDeY3kx99vp6NXzDWjDypR987F3Wh+Mnb8Iozo4wMrBH3NYkDfdJ1XI3j4VEz6/hLL0zQjpHYpNGZx1/jz9aCnGsYUD0GvS1jp3jcvPrEBwn9ewK9fYmZjPdk1F76HvQl9OKpH44Uj0nvylZslUDuGjMvMIlr0UAHeVDBKFEzq9sBCHdMdV3TyJD0KfgY+zFSQWzCaO3uj/+nZoQ15n45WbETa8E5qxfGrVqideY7kteftr6ONuw+xkD+8hyxF9Rzu2Orm7uv52C0ToO8sx5Vn/uvW3qfMZzXEvY8UXSzDE2x4ymQqefaYgUl+c+esPb201rXdeLRmiKhvbp07A55fKkL45BL1DN4GTpUmdm2Mjk2MxHFvgfujhUVF2eja1l3rS9GOlujV6ineMJCvpM/ThNbX2t5rlcrL2fJbmbztBcbEHKTyoJUlaTKQDhboDjFJG8csCyNrOn6as/5Hizh6jyEldyEo1iNb+Xkl5u8eSi7wdjfn4KMUlJVHswfdphIeEVCO20W12NPc7zawgkvugMNp3Kp6i140md4ktObo9Ra9siKJfY/fRnF4qkvdcqW1O01dnCj3A/bBzMcXM7UJKuydo8ieH6VRsFG16qzc5ST1o0v6bpKY8igySk9zak56dv41OxMXSwfAgailpQRN1A6tIeo8CVfbU9dV1dCQ2nk59s5yGeSqp7dQjdIedIWfdAJKKleT36jaKidlDu6NvUnHMXOqitKMnJn9Ch0/FUtSmt6i3k5Q8Ju2nmzy/la0Zr1ROzZ6YTJ/9eIpO7pxP/Vwk5PZ/+zX2UF//mPopPGjaT3qflf38NnkretN76ZVch+m9QBXZd32V1h2JpfhT39DyYZ6kbDuVjtzh9i6iY296k6zZ0/TvL0/Q6RPbaW5fF7IUSaj3e+lsewUlvRdIKvuu9Oq6IxQbf4q+WT6MPJVtaar2BCYpi19GAdZ25D9lPf0Yd5aORU6iLlYqGrT2d+aOGJrbRUl2bGyfHD5FsVGb6K3eTiT1mET7OcPw6oyn7+rr9HE/BXlM+4lqrFP2M73trdCNjUeLzPZy51DNYeqcdTRAKial36u0LSaG9uyONu27omP0preMmj39b/ryxGk6sX0u9XWxJJFE55caXRZTzumv6cMJnUjqNIDmfvYFfX+xiMfmhnSWzesnzXjk1uT57HzadiKOxVY4BbWUUIuJB4gKE2l/+AjykLSmYUsiaX/CHR6tM2X8+h/my/YUGnmM4pPP09EPRpCbtBVNOVKkac84j3MOqKBf/8PG0j6UIo/FU/L5o/TBCDeStppCvGbhjVX+vhmG6aWBxkp5/WsydjmbykRk0bwvzdl+kuLPfk+rhrUmSfMJtJ/rSt5uGusip3ZjPqajcUmUxGL3/REeJFGNoG2cEyt+pf90saL2oZF0LD6Zzh/9gEa4SanVlCMsqo1TdOxN8pY1o6f//SWdOH2Cts/tSy6WIpL0fk+zvSZm1Tl0+usPaUInKTkNmEufffE9XSzisS87Zt0AKYmVfvTqthiK2bOborMvPJBPChP3Uzg37tbDaEnkfmJh9efppxb5u16iZope9O4llms0lNLxN9qQdb+PiIWYEdR0/eN+pPCYRvpyUkY/v+1Nitr2NZZDTFEWT8sCrMnOfwqt/zGOzh6LpEnM/6pBa1l/8mj3WBeStxtDHx+No6QkZsP3uVykohEasXA2lpFE4U6DwvbRqfhoWjfanSS2juT21Cu0IepXit03h3qp5NRz5SVNc7VzN2/95a0zRtDEgJTkzVgu+exHOnVyJ83v50ISt/+j/drizFN/+Gsrn975YtgwhZS4P1yTU1sPW0KR+xPoDl/u4bURz1gMxRYz/l93gsscG7j6KgsJLWUnZlAb+VMUnmo0erSUnaAZbWTku+AsCx0dRT9R+LjJ9OmZEso9s5PWbD5Za/JQRtEz25H8qXDiTq0pblLdJIGj9Eea6iYh96k/Ele+uCDN/vRZkreYrFnSOkZX3Ar30MuOCuq54iLV9FKdTZuGqkjZ/xO6ptYGkjRwNV3VD4z1V05PhaeyhVKKes2d5D1WUE3eYORtH0UOtkNpM+s0N/GQyQfQ2qzqExTSnpcdSdFzBV3UN0rZm4aSStmfPuHsaQLNeGXdKSKl+mB27MZgUtm+QF/kqnknuKVRr5G7vAetqNthGuVgS0M332Td20chTgoK/CC9xibqrA30vK1UG4SlUfSau5x6rLiktxlLONtHOZDt0M3EzmCCMjoxow3JfBfQWb2z6afwcTT50zPMHS+To6InrdAbhrljEw1VKan/J9dIzaczvr7zJRiTWizV2L7OBFcmpwFrs2r6YorCfSHkpAikD6p1yo7K2vA82VZrt7YuOZ8yzSo8p5Mm9HhtbkBnZvhJGzuBtFovbo1/uNjiqEgMo64KX1p4voIt8Wmd6P6+seRg04fCz9/V2qQyg37YsJYOJJuqCozHOgfcp31jHcimTzidv6s9QWXGD7Rh7QHiMwtvrOoKvfG+maKexnjHYTp2NTZlsfn0+/rYKzs1i3zk3WgZy1Xq3DO0c81mOql3IpVFz6R21bF7fx+NdbChPuHnSWumSsr4YQOtPZDMMqYxCmlfiBMpAj8gfVhl0YbnbUlaf4LLwfz66bMK8px+TBP/vPbVFGEZyQesJX1YPahPKigxrCspfBeSJqz+RP3U4d5+Cm0ho65hiawHjOIfaKq7HQWtv66NVYOYN8E1lUOMocnbMl9aoBcTC/lwGjf5UzpTkktndq6hzSe5zKajLJpmttPakF3yam3M+qAP+ankJnGnqT9qI17razm1mHxIs6jXgRn1l6/OGENznIy6R6TUxIA6eyMFq2zphS9ySc1Xf3hzNp/e+XO0USoSKayrgnwXntfog1fnfDbiG4uB2OJ4tI8oiEQQoQpVte+AV0Nsss22sl20iFTwaqt/aF+sUsFGVInyckMH66nKT0Fqlh2eDOik/01mq/5YsH0jXg9QwDngJYzvVoB9K+Zi2oSRGNCtI4atTYe6St8vkW0beLta6BaUsFZYooV7a0g0K8RQKhUQqQ28KPd7Ei4Vt0bPPl7QHc12d0Zg745QpyUitYJbIYLKq63+BQyxCiobESrLy8G9wJSQdAOVl9ZjpF9ndO6s/fdMWAxK7l9GSrr2gwiRvTvcHXQnqPwdSZeK0bpnH3jpG4VzYG90VKchUduoSSw8A9G3bfXB7NgeAWhbfgnJl/le8FAjOyEJNyovYf1Iv5r+dn4mDDEl93E5JR0lGcm4WOgK/26ta2widu6FHu0sNX+rsxOQdKMSl9aPhF/18Z2fQVhMCe5fToFuyIapykdKahbsngxAJ72z0X/Bdmx8/Un8nnQJxa17oo/eMKztQPTuqEZaYiq07jCus0qevvNhWosGntcU2cPd3aGmL8apREbyRRS6+qNb61p+69UD5nTNXJvX1pnZx6i80FYvbqhUNhBVGnCiGVqX95uA8W7nsKhbS7TyG4jx875FYcBoDOlkrTuJYR7vHCBGvwnj4XZuEbq1bAW/geMx79tCBIweAtNm4Y9VrZdM9K0x8I3jco6J2A3QLrLYbOPtqo89W1tYi8pQep+YSQPw0vhuKNi3AnOnTcDIAd3QcdhapKuZDzknyvthwng3nFvUDS1b+WHg+Hn4tjAAo4d0glEzVWYg+WIhXP27QR9WzujVox34w8p8+9q7u0MbVn+CT/40/dTDZiDGBDsjae9XiGdhUHxiFw7d64uXhrcwI3+ZxuwcUkMV8lNSkWX3JAL0YmIhvwDbN76OAIUzAl4aj24F+7Bi7jRMGDkA3ToOw9p0NdNKle6xLhFs23hDH/LWUFi2gHtrbcRDrIRSIYK6st5DBebW3ybOZ1hxRmDftrXqTw8EtC3HpeTLrAqYhjdnl/Do3cz5CD9m6tyEjcyrP7VjS4t5lfohIWZFQYFiFN6r79Qq3Cu4h0qRAkor1jtus8gCFjWC0VI99zVJRSUzpyUsJIb2rkL2nknoM34X7ncMRGDXLgicOAovnF6AuWm6XRgiiURXyPSIWH94KVcz0VlCUseqIlhYshUskNSaYbNlowMrQxlzlG3XsZgd2kFfIDnENmjfhp0nge3OjresOaacBR1zZN1G2T6WrCcs2WsbNYlIzvxSSxSsw6xt4rqso945uKSgW1Wm7TDGzg5Fh7odhk37NrCsPMr8IQZnghpEcshlugGUlbER2KLr2NkIrXsCNuT24IZsnApw+cbSQmJQG+Vaw9QVOfOj1h1q7ahM6Yyd3GTfddS1DjdJ0q0xqUUDcH3RO9YklWo2cDHnYz0iuRz1umYYM2zOjaCOzsz0E3dM3a3GOmSG1u0H4aPT8Xj+6x3Yd/gHHNs4BzvWrMLw9dHYM6nWBLI+j3kOsHf+CKfjn8fXO/bh8A/HsHHODqxZNRzro/dgUq2Lufrwxqrmb1N9awx84yCcNhG7GnSx2gBmw6psNtY+47HrfkcEBnZFl8CJGPXCaSyocaI9Bn10GvHPf40d+w7jh2MbMWfHGqwavh7RzP+GzcR0owmr2o2KIJfLzDIBv301UcXsa1lzvofvkz9PP3VRot/Y4Wi9dR++jp2FwN3fo2zgBxjavHYhMYIuPVbDXZDUXmV+DtFToS0EMBzy2Sxf9MH4XffRMTAQXbsEYuKoF3B6wVzoQ14ECYv5uog4CfJgZv01VWdMweqNom5x5oYJ0hfneuasVX94c3YljprUuxk52kz4dZ5s2kZm1J8Etnft2OIwQ40PD8vWbeEuL0BCXDLrbG3u4VRsCqhlG7Sz0q1qImJHD7jZ5iM9rdZD85UXsfG1cVhy8Bz2rNuFvP5rEHf2v/j681VYPD0YzSvucbLQ799ELN094WZ5HcnJd2qdqwSJSb8BrTzgWT9+6mPRAp5uShSX2KHn2PEYP177b9wgf7Tx8UXb2pcm1Vi6s2MscT05Gbrn3zWUJCbhN7SCB2+j7Poq8xIuFekWGEXsXL9beMGHux3IJRsqR9l9fRiV5+QgT9OWBVp4ukFZXAK7nmNr+jt+3CD4t/GBb1sHSN3bwVN2A6kp+XqblKXh8jXt9adFC2YzZTFK7HpibPXx48dhkH8b+Pi2rXM11gCxIzzcbJGfnlbrxaNKXNz4GsYtOQp31jfL68lIrmsYaN3h2WACUx9Lnr5z47ewIJSX3dcnmfIc5GiNY1qLh27oVjQFS7i384TsRipS8vVjK0u7jJqumaApNn8gP1VT8/EMg1frwO24r7Fmbw6enLwUkftPIz0rEaufKcKR7YdNvmj2WOcA1R3Efb0Ge3OexOSlkdh/Oh1ZiavxTNERbD+cozuJIfhj9aEWA75xNHMyEbuHdMvGqML1PeuwK68/1sSdxX+//hyrFk9HcPMKcN8yydX+qttx+HrNXuQ8ORlLI/fjdHoWElc/g6Ij23HYmHhYLm3nKcON1BTow6oMaZevsZ7x0RT7Phyf1A6rP08/DZH1ehkjva7h8PZV2H4UeP7lIWBhaxJuok7lZdCXk3Lk5OQ9YNyJ4ejhBtv8dKTV8m3lxY14bdwSHDy3C+t25aH/mjic/e/X+HzVYkwPbo6KarE8CA+h/ppEnYlLdYszkn+3gJcPd5fVdP3hzdlSHr03ZT5SA/dpfTUPrvOm1h9z4ufhYfscxgxphtQ1oZiw4msci7uAhNNHsWXhWLy96w7a/+tl9HjQb9pR9sOY4S6I/WQ+tqYUMv0WImVrGJZvOYdCO0dILEUov5WBjLvMo+rbOPfFDCz97i7za5mZb+2bwDEYIUOUiIqYjsi4fCaSElz5Zi6W7ClGjzEvwqfe1UlD7BAUMgJOZz/E6xE/IauMdfFWLFZPfA59h4cjpli3Wx0cERwyBMqoCEyPjEM+U2bJlW8wd8keFPcYgxf5GwXdOYSIuXtwuUSN4rRdmLX0AERB4zGcXY2LVe5wt8/D8d0HkcH6U5Z5FMtWf48CXUTZBYVghNNZfPh6BH7Sdhixqyfiub7DEc512H4wu1q2x7GVb2LThQKoS6/hu4Vh2H1DF1F2QQgZ4YSzH76OiJ+yWHipcSt2NSY+1xfDw2NgcMg1KNFvzHC4xH6C+VtTUMiSVWHKVoQt34JzhXbMHSEYooxCxPRIxGkNg2/mLsGe4h4Y86IPCzse+PouVsHd3R55x3fjoNY4OLpsNb6vNo5JLdpr92ki9oMnYpT9Max8cxMuFKhReu07LAzbjequmaQpNn8gP2kRSWWQUhHu3uXSJ5/WxRBd2Y/l02dg2ZFM1h4rWPey8Mftcji4ucHOVOZ6nHPAfRGu7F+O6TOW4Uimxiq4l/UHbpc7wM3NTnsKI/DG6kOFz7+mY5cP7o6ZqPwWMjLussmRGrfPfYEZS7/DXaaUMuZEsegK9i+fjhnLjkBrpnvI+uM2yh3c4GZUPPYYPHEU7I+txJubLqBAXYpr3y1E2O4bZk3AmmLfB/eJCFKZFFR0F5qwemD9lCL1UCQiv02A7l1940ifwssvtsfvm1bhO+lgjBloo9tgDDFU7u6wzzuO3QczOE8h8+gyrP6+oP5N3Uaj7DcGw11i8cn8rUgpZBeqhSnYGrYcW84Vws5RBktROW5lZEAb8ufwxYyl0Ib8g0b8g9dfk9AdHIqYiz2XS6AuTsOuWUtxQBSE8cObQ8xXf3hzNp/emzIf0SGSQiYlFN29q5ksP7DOm1p/dM/iPjLUeSdp5YgOpLIUcV7Q/BPJWlCvaTvoYvWT0twDx4oWNPmw7gFvRkXCYvJX+NPiBM0j7SZR58fQiiEepLCQklIhIbHCg4a8+wtx30JwO2o+dXewJLHUiqzlUnLwG0cR84JIpRpGm3PVmofHFS0mU03TZb/QLB8F9Vz5W83DzXc3BZOi+kUDrq81L/OwtnOiaMlzbqQQWZBcKSNLuSsFztxHVzXd5h5mV1CLyYd1L6swKhJosb+C/BcnaJfVeRQdEUxeVmLWRznJmJ3krQbQ4qhc1nvtyz+KVq/S0ZqnyhnqHIpa8hy5KURkIVeyY+TkGjiT9mkbNYnmYXn77jQ4sAVJJVKSiGXk2nceHc6uedSbktePJC+FmI1FycbkQcGLptHTVtUv4TCbRUdQsJcVicVSksssSSRvRQMWRxEzpwZ13glaOrAVycUS1oaEHHuE0ojOSt2bntz2aIoI9iIrsZikcmYzkZxaDVhMUdUnMIU6n2JWDCEPhQVJlQrWfwV5DHmXftG84snsFbWEnnNTkMhCTkrWN7lrIM3cd1X7YoQZOuPre1nyehrppSAxs7mS2ccjeBFNe9pKPzajWtTZvvZLZopW9Godx5qC2f3EUhrYSk5izm8SR+oROoI6K814yYxbY9LmhnXG56cGscOsnLDYnxT+i7WL94/TTG8ZWchsqMusaO6EJrTOqEinHZN9SWXBYsnGlhTM/k4B02lvhv41A2M8vjmAM8sOmuyrIgumaRtbpnmJEwVM30v8ZuGLVTP6ZpSGGuP1r6nYNRSbye9QV0UXWhBXQerbUTS/uwNZsnFYWctJ6uBH4yLmUZBKRcM2c+evoPQdk8lXZcFyog3ZMg1InAJo+t6MWi+pGID1+cTSgdRKLiaJlB3j2INCR3QmpRkvmXE2MGlfzYswCmr16lH9S0EPwSf3j88kb5kFyWy60KzoMs0Ymq6fm7R+kIwkPVfSb/xhxnyyjJ6SWpIXs4HeUyYoS6b1I71IIWa5WMlypkcwLZr2NFnVsq/JHGIUNeXHrKAhHgqykCpZrhCTwmMIvcuJSX2bouZ3JwdLlresrEkudSC/cRE0L0hFqmGbmZ0b2rjsl1nko+hJK2uMcJc2BSvIOVT7bQ51dcBTf82oMwbR5BV76j44kFowLUrZmGSufWne4WyNHzl46w9fbeXRO28MG+U+HZ/pTTILGdl0mUXRZTw6N8NGJsdiMLaIRNz/aWa6j5jSm5eQlJaDYrEd3Dt2gae9+c9zmEcl8q8kICVbDef2/vBx0j98XlV4DRcuXEOpqi38OreEUrf+4cHaTk9Aai7g0t4XbR31bZuLulNpYNAAAAzzSURBVCADicmZKJK5opNvGziYcYrK/HQkaBuFb1tH/Qs2Jrj9+fNovcQVe9M/Que0RNyQecGvowvkuu3VlN9KQ3zaHdi080fH5gZus6sLkJGYjMwiGVw7+aJNgw6XIvfiBaQXO6HTk15QNbiJokZBRiKSM4sgc+0E3zYOZvW/msr8K0hIyYbauT38fZzqHluZj/SEVOTCBe1926Lx7uDpe/ktpMWn4Y5NO/h3bI6G1jGuxQemNBcXL6Sj2KkTnvRSNfIjmabY/MH8VFWYgfgLf6DK1RdPeWrv1JnWehWKslKQdOUuxE7e8OvQvIE2jfMY54CqImSlJOHKXTGcvP3Qobn5VuGP1YcLXy4zGbumqCrEtQsXcK1UhbZ+ndHSgBOrirKQknQFd8VO8PbrAHPNVJp7ERfSi+HU6Ul4NUxWpmmKfR/IJ1UozIjHhT+q4OrbFZ66O9RN1U/VzQ0Y+Qqw4dv/B75HaqtubsHIDu/D53A83u1hbp/LcSstHml3bNDOvyMMlZMmw3L9lYQUZKud0d7fB/qQZza6dgEXrpVC1dYPnQ2J5QFpSv01ye3P8XzrJXDdm46POqch8YYMXn4d4dKwOPPUH/6czaf3psxHuPjMiL+AP6pc4dvVU/up2wPnnsbVn//ZBFfgr0HNBPf3jRjciBopICAgIPC4UYrTYWOxuf0arB/T2sQFM/ch9n3Ehw/CwMNDEP3zfHR8wE/jBepRM8H9HRuF4twkeK7PBB53RCIxLMS1vp5NQEBAQOAfihzdF+9FpMnJLVAZtxhdbR0Q8H4pXlkxTZjc/hmwoiy2ELP/CMW5qQh3cAUEBAQEBATMR12Aa6lXUerS8eE+ciUg8BARJrgCAgICAgICAgKPFcIjCgICAgICAgICAo8VwgRXQEBAQEBAQEDgsUKY4AoICAgICAgICDxWPMYT3BKc3jAbS76+CM0PvDx2qHH1QARmrzmuW35AyjKRdPG27hdMBAQEBAQEBAT+vjzGE9z7SN6/Fp9HXX1sJ7jZ0Vuxds9Z3fIDoL6Kz4Z3w4SdmcIEV0BAQEBAQOBvj/CIggBARbh5q0iY3AoICAgICAg8FjzSCW7Bt2+gT8hKbA4bjk7N5JBatULP177CxeTteK2PO2ykUth7D8Hy6Dts7yrc3DUVvYe+i7hy7fHcz18mfjgSvSd/qVtmazKPYNlLAXBXySBROKHTCwtxKFOt28rmbndi8e6LfmiukELm4IOBs75BRvXm8qs4uHgE/FtaQ2KpgHOHILy1MxUlus0oOINPQ3ujnZMVpFI7uHUbjfCoHKMTQZN9MdlWAb59ow9CVu3AytFPwEUp0fQ1aN5B6IdSguRtM/CstwPkrC9tBszHjzerv+HNHFtVIvPIMrwU4A6VTAKFUye8sPAQMiuysX3qBHx+qQzpm0PQO3ST1j4m+5uPvdP6YOz8RRjVwQFWDv6Yc5xtqcrFiffGIqC1LaSWcji1H4S3vrqIUs0xnDk/RWjvdnCykkJq54Zuo8MRlSNMqwUEBAQEBAQeMtz34D4q8iKDSCZRkPugMNp3Kp6i140md4ktObo9Ra9siKJfY/fRnF4qkvdcyfZW0/WP+5HCYxr9VKo9nqiMfn7bmxS939MtxtOyAGuy859C63+Mo7PHImlSFytSDVpLv1fmUWSQjEQWzanvnO10Mv4sfb9qGLWWNKcJ+wvZwcUUM7cLKe2eoMmfHKZTsVG06a3e5CT1oEn7b7LWK+jX/3Qhq/ahFHksnpLPH6UPRriRtNUUOlKkbb4OJvvC1xbXVznJrT3p2fnb6ERcLB0MD6KWkhY08QDXV6KiY2+St6wZPf3vL+nE6RO0fW5fcrEUkURjC35blcUvowBrO/Kfsp5+jDtLxyInURcrFQ1am0SJ+8NphIeEWg9bQpH7E+gOn23UObRugJTESj96dVsMxezZTdE3yyjpvUBS2XelV9cdodj4U/TN8mHkqWxLU4/cIar4lf7D7NE+NJKOxSfT+aMf0Ag3KbWacoQMmVNAQEBAQEBAoKk8+gmutDe9l16pXVH6I011k5D71B/pvmaFmrI/fZbkLSZr/uadtJ2YQW1kvrTgbJlmmaPop3AaN/lTOlOqneBKn36fqpujslM0y0dO3ZalEBXuoZcdFdRzxUWq3kzqbNo0VEXK/p/QNfV92jfWgWz6hNP5u2rN5sqMH2jD2gOUrJ1z1sFkX/L42tL1NXA1XdU2xZ2QZrSR01PhqWyhkPaFOJEi8AP9WNRZtOF5W5KaNcEtoxMz2pDMdwHpu1dEP4WPo8mfnmGTz0QK66og34Xn2bSewWebCm6CKyP5gLWUVd3f0ih6zV1OPVZc0h/DJu7bRzmQ7dDNdPP+PhrrYEN9ws+T1pyVlPHDBlp7IJmNTkBAQEBAQEDg4fHIn8EV2baBt6vuh6tFSlgrLNHCvTUkmhViKJUKiNTmvBZWhfyUVGTZPYmATvqfCrTqvwDbN76OABm3JIKqjTeqm4PYFrbWIpSV3kfl70m4VNwaPft4oeZntMXOCOzdEeq0RKRWyNFvwni4nVuEbi1bwW/geMz7thABo4egk7Vu/xpM9+XJLL62uBWsr15t4VLtEbEKKhsRKsvLgcoMJF8shKt/N7SuGYszevVoB0vdokmq8pGSmgW7JwOg754V+i/Yjo2vB+iW9fDbhlshgr27Oxx0/VVnJyDpRiUurR8Jv86d0Vnz7xmExZTg/uUUpIv7YcJ4N5xb1A0tW/lh4Ph5+LYwAKOHdEIDcwoICAgICAgIPACPfoIrkegms3pEopppVEPq/ZBwVRXVrKqoVAOWFpCIdCsaIIKFpaEpIDtDuRqVbHooqbNZt39VFdRsF/tBH+F0/PdYPysYnkWnsXHOiwjwH41Nv9c8GFuDyb6Y0ZZm2aKeHWrOVQk1O724zlhEkMtl+l04jNqqAtruSerubwyz+2upP19ZGcphi65jZ2Pu3Lk1/xavisTmFf9CG0t7DProNOK/X49ZwZ4oOr0Rc14MgP/oTTBgTgEBAQEBAQGBJvPIJ7iNgZvwUXkZ7tdM3MqRk5One8lLDEcPN9jmpyOt1otKlRc34rVxS3DohumXlyzdPeFmeR3JyXdqvTRWgsSk34BWHvC0uI24r9dgb86TmLw0EvtPpyMrcTWeKTqC7YdzdPtXY7ovR+XuptuqP+Ovj6U72nnKcCM1Bfk1JyhD2uVrbCKqxaStxI7wcLNFfnoa9N2rxMWNr2HckkPsb1GdiS+vbQz016IFO0ZZjBK7nhg7fjzGa/6NwyD/NvDxbQvVnTh8vWYvcp6cjKWR+3E6PQuJq59B0ZHtOCy8aCYgICAgICDwEPkLT3DFULm7wz7vOHYfzGDTuTJkHl2G1d8X1NyoVPYbg+Eusfhk/lakFFahqjAFW8OWY8u5QtjZ8wzNMRghQ5SIipiOyLh8Nt0rwZVv5mLJnmL0GPMifCQiXNm/HNNnLMORzDJ2QCXuZf2B2+UOcHOz056jFib74jXUdFsmbmBrscfgiaNgf2wl3tx0AQXqUlz7biHCdt+omeybtpUS/cYMh0vsJ5i/NQWFVVUoTNmKsOVbcK6QjUUkhUxKKLp7Vzth5rONof7aBSFkhBPOfvg6In7KYj1Q41bsakx8ri+Gh8fgvugK9i+fjhnLjkBrznvI+uM2yh3c4GbHfFWZhu8jN2Dv2Xzt+QQEBAQEBAQEmoruWdxHAveSmaLFZDqsfaOMqOwXmuWjoJ4rf6t5MenupmBSOIdqF8qSaf1IL1KILUmulJPSI5gWTXuarHQvmXEvV+XHrKAhHgqykCpJIRGTwmMIvfvLHbaNe3FLQS0mH9a9wMaoSKZ3uiqoy4I4zaI6J4qWPOdGCpEFO7+MLOWuFDhzH13VvGnFdk/fQZN9VWRhIScbWwVJJE4UMH0vZejfoqqFqb7wtWWorwm02F9B/osTtMvqPDqxdCC1kotJIpWQxLEHhY7oTMpqW/DZSp1PMSuGkIfCgqRKNhaxgjyGvEva7t2n4zO9SWYhI5susyi6jKe/mm9RUFCrV49SzTttDHVeNEUEe5GVWExSOTtGJKdWAxZTVC73VlkFpe+YTL4qC7KQ25Ctgo3BKYCm783Q+r5wCw2VSahrWCK3JCAgICAgICDQZETc/+nmun9RynErLR5pd2zQzr8jmmteHqtHZT6uJKQgW+2M9v4+cNK/52UGlchPT0BqLuDS3hdtHesdXFWErJQkXLkrhpO3Hzo0l+s2GMFkX3jaMoPS3Iu4kF4Mp05PwktV/y41v60q868gISUbauf28PdxQk0PqgqREX8Bf1S5wrerJ7ibqk3rrxoFGYlIziyCzLUTfNs46NtgVBVlISXpCu6KneDt1wF85hQQEBAQEBAQaCx/gwmugICAgICAgICAgPn8hZ/BFRAQEBAQEBAQEGgswP8HjOqstDE3C78AAAAASUVORK5CYII=;" vertex="1" parent="1">
          <mxGeometry x="240" y="30" width="696" height="174" as="geometry" />
        </mxCell>
        <mxCell id="ky9Ritnjeez94bwjMqiF-2" value="CAMIONERO" style="whiteSpace=wrap;html=1;align=center;" vertex="1" parent="1">
          <mxGeometry x="230" y="340" width="100" height="40" as="geometry" />
        </mxCell>
        <mxCell id="ky9Ritnjeez94bwjMqiF-3" value="transporta" style="shape=rhombus;perimeter=rhombusPerimeter;whiteSpace=wrap;html=1;align=center;" vertex="1" parent="1">
          <mxGeometry x="500" y="335" width="90" height="50" as="geometry" />
        </mxCell>
        <mxCell id="ky9Ritnjeez94bwjMqiF-4" value="PAQUETES" style="whiteSpace=wrap;html=1;align=center;" vertex="1" parent="1">
          <mxGeometry x="760" y="340" width="100" height="40" as="geometry" />
        </mxCell>
        <mxCell id="ky9Ritnjeez94bwjMqiF-5" value="llegan a&amp;nbsp;" style="shape=rhombus;perimeter=rhombusPerimeter;whiteSpace=wrap;html=1;align=center;" vertex="1" parent="1">
          <mxGeometry x="750" y="440" width="120" height="60" as="geometry" />
        </mxCell>
        <mxCell id="ky9Ritnjeez94bwjMqiF-6" value="PROVINCIA" style="whiteSpace=wrap;html=1;align=center;" vertex="1" parent="1">
          <mxGeometry x="760" y="565" width="100" height="40" as="geometry" />
        </mxCell>
        <mxCell id="ky9Ritnjeez94bwjMqiF-8" value="tiene" style="shape=rhombus;perimeter=rhombusPerimeter;whiteSpace=wrap;html=1;align=center;" vertex="1" parent="1">
          <mxGeometry x="220" y="440" width="120" height="60" as="geometry" />
        </mxCell>
        <mxCell id="ky9Ritnjeez94bwjMqiF-9" value="CAMION" style="whiteSpace=wrap;html=1;align=center;" vertex="1" parent="1">
          <mxGeometry x="230" y="564.5" width="100" height="40" as="geometry" />
        </mxCell>
        <mxCell id="ky9Ritnjeez94bwjMqiF-11" value="" style="endArrow=none;html=1;rounded=0;entryX=0.5;entryY=1;entryDx=0;entryDy=0;exitX=0.5;exitY=0;exitDx=0;exitDy=0;" edge="1" parent="1" source="ky9Ritnjeez94bwjMqiF-8" target="ky9Ritnjeez94bwjMqiF-2">
          <mxGeometry relative="1" as="geometry">
            <mxPoint x="420" y="400" as="sourcePoint" />
            <mxPoint x="580" y="400" as="targetPoint" />
          </mxGeometry>
        </mxCell>
        <mxCell id="ky9Ritnjeez94bwjMqiF-12" value="(1,M)" style="resizable=0;html=1;whiteSpace=wrap;align=right;verticalAlign=bottom;" connectable="0" vertex="1" parent="ky9Ritnjeez94bwjMqiF-11">
          <mxGeometry x="1" relative="1" as="geometry">
            <mxPoint x="-10" y="20" as="offset" />
          </mxGeometry>
        </mxCell>
        <mxCell id="ky9Ritnjeez94bwjMqiF-13" value="" style="endArrow=none;html=1;rounded=0;entryX=0.5;entryY=0;entryDx=0;entryDy=0;" edge="1" parent="1" target="ky9Ritnjeez94bwjMqiF-9">
          <mxGeometry relative="1" as="geometry">
            <mxPoint x="280" y="500" as="sourcePoint" />
            <mxPoint x="280" y="560" as="targetPoint" />
          </mxGeometry>
        </mxCell>
        <mxCell id="ky9Ritnjeez94bwjMqiF-14" value="(1,M)" style="resizable=0;html=1;whiteSpace=wrap;align=right;verticalAlign=bottom;" connectable="0" vertex="1" parent="ky9Ritnjeez94bwjMqiF-13">
          <mxGeometry x="1" relative="1" as="geometry">
            <mxPoint as="offset" />
          </mxGeometry>
        </mxCell>
        <mxCell id="ky9Ritnjeez94bwjMqiF-16" value="Nombre" style="ellipse;whiteSpace=wrap;html=1;align=center;" vertex="1" parent="1">
          <mxGeometry x="30" y="340" width="90" height="30" as="geometry" />
        </mxCell>
        <mxCell id="ky9Ritnjeez94bwjMqiF-17" value="TelÃ©fono" style="ellipse;whiteSpace=wrap;html=1;align=center;" vertex="1" parent="1">
          <mxGeometry x="80" y="290" width="90" height="30" as="geometry" />
        </mxCell>
        <mxCell id="ky9Ritnjeez94bwjMqiF-19" value="DirecciÃ³n" style="ellipse;whiteSpace=wrap;html=1;align=center;" vertex="1" parent="1">
          <mxGeometry x="170" y="260" width="90" height="30" as="geometry" />
        </mxCell>
        <mxCell id="ky9Ritnjeez94bwjMqiF-20" value="Sueldo" style="ellipse;whiteSpace=wrap;html=1;align=center;" vertex="1" parent="1">
          <mxGeometry x="270" y="260" width="90" height="40" as="geometry" />
        </mxCell>
        <mxCell id="ky9Ritnjeez94bwjMqiF-21" value="Barrio" style="ellipse;whiteSpace=wrap;html=1;align=center;" vertex="1" parent="1">
          <mxGeometry x="370" y="280" width="100" height="40" as="geometry" />
        </mxCell>
        <mxCell id="ky9Ritnjeez94bwjMqiF-23" value="" style="endArrow=none;html=1;rounded=0;exitX=0;exitY=1;exitDx=0;exitDy=0;entryX=1;entryY=0;entryDx=0;entryDy=0;" edge="1" parent="1" source="ky9Ritnjeez94bwjMqiF-21" target="ky9Ritnjeez94bwjMqiF-2">
          <mxGeometry relative="1" as="geometry">
            <mxPoint x="370" y="330" as="sourcePoint" />
            <mxPoint x="530" y="330" as="targetPoint" />
          </mxGeometry>
        </mxCell>
        <mxCell id="ky9Ritnjeez94bwjMqiF-24" value="" style="endArrow=none;html=1;rounded=0;exitX=0.5;exitY=1;exitDx=0;exitDy=0;entryX=0.75;entryY=0;entryDx=0;entryDy=0;" edge="1" parent="1" source="ky9Ritnjeez94bwjMqiF-20" target="ky9Ritnjeez94bwjMqiF-2">
          <mxGeometry relative="1" as="geometry">
            <mxPoint x="370" y="330" as="sourcePoint" />
            <mxPoint x="530" y="330" as="targetPoint" />
          </mxGeometry>
        </mxCell>
        <mxCell id="ky9Ritnjeez94bwjMqiF-25" value="" style="endArrow=none;html=1;rounded=0;exitX=0.5;exitY=1;exitDx=0;exitDy=0;entryX=0.5;entryY=0;entryDx=0;entryDy=0;" edge="1" parent="1" source="ky9Ritnjeez94bwjMqiF-19" target="ky9Ritnjeez94bwjMqiF-2">
          <mxGeometry relative="1" as="geometry">
            <mxPoint x="370" y="330" as="sourcePoint" />
            <mxPoint x="530" y="330" as="targetPoint" />
          </mxGeometry>
        </mxCell>
        <mxCell id="ky9Ritnjeez94bwjMqiF-26" value="" style="endArrow=none;html=1;rounded=0;exitX=1;exitY=1;exitDx=0;exitDy=0;entryX=0;entryY=0;entryDx=0;entryDy=0;" edge="1" parent="1" source="ky9Ritnjeez94bwjMqiF-17" target="ky9Ritnjeez94bwjMqiF-2">
          <mxGeometry relative="1" as="geometry">
            <mxPoint x="370" y="330" as="sourcePoint" />
            <mxPoint x="530" y="330" as="targetPoint" />
          </mxGeometry>
        </mxCell>
        <mxCell id="ky9Ritnjeez94bwjMqiF-27" value="" style="endArrow=none;html=1;rounded=0;exitX=1;exitY=0.5;exitDx=0;exitDy=0;entryX=0;entryY=0.25;entryDx=0;entryDy=0;" edge="1" parent="1" source="ky9Ritnjeez94bwjMqiF-16" target="ky9Ritnjeez94bwjMqiF-2">
          <mxGeometry relative="1" as="geometry">
            <mxPoint x="370" y="330" as="sourcePoint" />
            <mxPoint x="530" y="330" as="targetPoint" />
          </mxGeometry>
        </mxCell>
        <mxCell id="ky9Ritnjeez94bwjMqiF-28" value="" style="endArrow=none;html=1;rounded=0;exitX=1;exitY=0.5;exitDx=0;exitDy=0;entryX=0;entryY=0.75;entryDx=0;entryDy=0;" edge="1" parent="1" target="ky9Ritnjeez94bwjMqiF-2">
          <mxGeometry relative="1" as="geometry">
            <mxPoint x="115" y="405" as="sourcePoint" />
            <mxPoint x="530" y="330" as="targetPoint" />
          </mxGeometry>
        </mxCell>
        <mxCell id="ky9Ritnjeez94bwjMqiF-30" value="" style="endArrow=none;html=1;rounded=0;entryX=1;entryY=0.5;entryDx=0;entryDy=0;exitX=0;exitY=0.5;exitDx=0;exitDy=0;" edge="1" parent="1" source="ky9Ritnjeez94bwjMqiF-3" target="ky9Ritnjeez94bwjMqiF-2">
          <mxGeometry relative="1" as="geometry">
            <mxPoint x="370" y="190" as="sourcePoint" />
            <mxPoint x="530" y="230" as="targetPoint" />
          </mxGeometry>
        </mxCell>
        <mxCell id="ky9Ritnjeez94bwjMqiF-31" value="(1,1)" style="resizable=0;html=1;whiteSpace=wrap;align=right;verticalAlign=bottom;" connectable="0" vertex="1" parent="ky9Ritnjeez94bwjMqiF-30">
          <mxGeometry x="1" relative="1" as="geometry">
            <mxPoint x="30" as="offset" />
          </mxGeometry>
        </mxCell>
        <mxCell id="ky9Ritnjeez94bwjMqiF-33" value="" style="endArrow=none;html=1;rounded=0;exitX=1;exitY=0.5;exitDx=0;exitDy=0;entryX=0;entryY=0.5;entryDx=0;entryDy=0;" edge="1" parent="1" source="ky9Ritnjeez94bwjMqiF-3" target="ky9Ritnjeez94bwjMqiF-4">
          <mxGeometry relative="1" as="geometry">
            <mxPoint x="440" y="230" as="sourcePoint" />
            <mxPoint x="600" y="230" as="targetPoint" />
          </mxGeometry>
        </mxCell>
        <mxCell id="ky9Ritnjeez94bwjMqiF-34" value="(1,M)" style="resizable=0;html=1;whiteSpace=wrap;align=right;verticalAlign=bottom;" connectable="0" vertex="1" parent="ky9Ritnjeez94bwjMqiF-33">
          <mxGeometry x="1" relative="1" as="geometry" />
        </mxCell>
        <mxCell id="ky9Ritnjeez94bwjMqiF-37" value="DescripciÃ³n" style="ellipse;whiteSpace=wrap;html=1;align=center;" vertex="1" parent="1">
          <mxGeometry x="880" y="250" width="80" height="30" as="geometry" />
        </mxCell>
        <mxCell id="ky9Ritnjeez94bwjMqiF-38" value="Destinatario" style="ellipse;whiteSpace=wrap;html=1;align=center;" vertex="1" parent="1">
          <mxGeometry x="936" y="295" width="100" height="40" as="geometry" />
        </mxCell>
        <mxCell id="ky9Ritnjeez94bwjMqiF-39" value="Direc_dest" style="ellipse;whiteSpace=wrap;html=1;align=center;" vertex="1" parent="1">
          <mxGeometry x="910" y="360" width="100" height="40" as="geometry" />
        </mxCell>
        <mxCell id="ky9Ritnjeez94bwjMqiF-40" value="" style="endArrow=none;html=1;rounded=0;entryX=0.5;entryY=1;entryDx=0;entryDy=0;exitX=0.5;exitY=0;exitDx=0;exitDy=0;" edge="1" parent="1">
          <mxGeometry relative="1" as="geometry">
            <mxPoint x="809.7" y="440.0000000000001" as="sourcePoint" />
            <mxPoint x="809.7" y="379.9999999999999" as="targetPoint" />
          </mxGeometry>
        </mxCell>
        <mxCell id="ky9Ritnjeez94bwjMqiF-41" value="(1,M)" style="resizable=0;html=1;whiteSpace=wrap;align=right;verticalAlign=bottom;" connectable="0" vertex="1" parent="ky9Ritnjeez94bwjMqiF-40">
          <mxGeometry x="1" relative="1" as="geometry">
            <mxPoint y="20" as="offset" />
          </mxGeometry>
        </mxCell>
        <mxCell id="ky9Ritnjeez94bwjMqiF-43" value="" style="endArrow=none;html=1;rounded=0;entryX=0.5;entryY=0;entryDx=0;entryDy=0;exitX=0.5;exitY=1;exitDx=0;exitDy=0;" edge="1" parent="1" source="ky9Ritnjeez94bwjMqiF-5" target="ky9Ritnjeez94bwjMqiF-6">
          <mxGeometry relative="1" as="geometry">
            <mxPoint x="640" y="470" as="sourcePoint" />
            <mxPoint x="800" y="470" as="targetPoint" />
          </mxGeometry>
        </mxCell>
        <mxCell id="ky9Ritnjeez94bwjMqiF-44" value="(1,1)" style="resizable=0;html=1;whiteSpace=wrap;align=right;verticalAlign=bottom;" connectable="0" vertex="1" parent="ky9Ritnjeez94bwjMqiF-43">
          <mxGeometry x="1" relative="1" as="geometry" />
        </mxCell>
        <mxCell id="ky9Ritnjeez94bwjMqiF-47" value="Nombre_prov" style="ellipse;whiteSpace=wrap;html=1;align=center;" vertex="1" parent="1">
          <mxGeometry x="856" y="630" width="80" height="30" as="geometry" />
        </mxCell>
        <mxCell id="ky9Ritnjeez94bwjMqiF-49" value="" style="endArrow=none;html=1;rounded=0;entryX=0.5;entryY=1;entryDx=0;entryDy=0;exitX=0.5;exitY=0;exitDx=0;exitDy=0;" edge="1" parent="1" source="ky9Ritnjeez94bwjMqiF-71" target="ky9Ritnjeez94bwjMqiF-6">
          <mxGeometry relative="1" as="geometry">
            <mxPoint x="770" y="650" as="sourcePoint" />
            <mxPoint x="830" y="550" as="targetPoint" />
          </mxGeometry>
        </mxCell>
        <mxCell id="ky9Ritnjeez94bwjMqiF-50" value="" style="endArrow=none;html=1;rounded=0;exitX=1;exitY=1;exitDx=0;exitDy=0;entryX=0;entryY=0;entryDx=0;entryDy=0;" edge="1" parent="1" source="ky9Ritnjeez94bwjMqiF-6" target="ky9Ritnjeez94bwjMqiF-47">
          <mxGeometry relative="1" as="geometry">
            <mxPoint x="670" y="550" as="sourcePoint" />
            <mxPoint x="830" y="550" as="targetPoint" />
          </mxGeometry>
        </mxCell>
        <mxCell id="ky9Ritnjeez94bwjMqiF-52" value="" style="endArrow=none;html=1;rounded=0;entryX=0.42;entryY=1.042;entryDx=0;entryDy=0;exitX=0.5;exitY=0;exitDx=0;exitDy=0;entryPerimeter=0;" edge="1" parent="1" source="ky9Ritnjeez94bwjMqiF-4" target="ky9Ritnjeez94bwjMqiF-72">
          <mxGeometry relative="1" as="geometry">
            <mxPoint x="670" y="230" as="sourcePoint" />
            <mxPoint x="830" y="270" as="targetPoint" />
          </mxGeometry>
        </mxCell>
        <mxCell id="ky9Ritnjeez94bwjMqiF-53" value="" style="endArrow=none;html=1;rounded=0;entryX=0;entryY=1;entryDx=0;entryDy=0;exitX=0.75;exitY=0;exitDx=0;exitDy=0;" edge="1" parent="1" source="ky9Ritnjeez94bwjMqiF-4" target="ky9Ritnjeez94bwjMqiF-37">
          <mxGeometry relative="1" as="geometry">
            <mxPoint x="670" y="230" as="sourcePoint" />
            <mxPoint x="830" y="230" as="targetPoint" />
          </mxGeometry>
        </mxCell>
        <mxCell id="ky9Ritnjeez94bwjMqiF-54" value="" style="endArrow=none;html=1;rounded=0;exitX=1;exitY=0;exitDx=0;exitDy=0;entryX=0;entryY=0.5;entryDx=0;entryDy=0;" edge="1" parent="1" source="ky9Ritnjeez94bwjMqiF-4" target="ky9Ritnjeez94bwjMqiF-38">
          <mxGeometry relative="1" as="geometry">
            <mxPoint x="670" y="230" as="sourcePoint" />
            <mxPoint x="830" y="230" as="targetPoint" />
          </mxGeometry>
        </mxCell>
        <mxCell id="ky9Ritnjeez94bwjMqiF-55" value="" style="endArrow=none;html=1;rounded=0;entryX=0;entryY=0;entryDx=0;entryDy=0;exitX=1;exitY=0.5;exitDx=0;exitDy=0;" edge="1" parent="1" source="ky9Ritnjeez94bwjMqiF-4" target="ky9Ritnjeez94bwjMqiF-39">
          <mxGeometry relative="1" as="geometry">
            <mxPoint x="670" y="230" as="sourcePoint" />
            <mxPoint x="830" y="230" as="targetPoint" />
          </mxGeometry>
        </mxCell>
        <mxCell id="ky9Ritnjeez94bwjMqiF-58" value="Modelo" style="ellipse;whiteSpace=wrap;html=1;align=center;" vertex="1" parent="1">
          <mxGeometry x="195" y="650" width="85" height="30" as="geometry" />
        </mxCell>
        <mxCell id="ky9Ritnjeez94bwjMqiF-59" value="Tipo" style="ellipse;whiteSpace=wrap;html=1;align=center;" vertex="1" parent="1">
          <mxGeometry x="300" y="650" width="80" height="30" as="geometry" />
        </mxCell>
        <mxCell id="ky9Ritnjeez94bwjMqiF-60" value="Potencia" style="ellipse;whiteSpace=wrap;html=1;align=center;" vertex="1" parent="1">
          <mxGeometry x="370" y="610" width="90" height="34.5" as="geometry" />
        </mxCell>
        <mxCell id="ky9Ritnjeez94bwjMqiF-62" value="" style="endArrow=none;html=1;rounded=0;entryX=1;entryY=0.5;entryDx=0;entryDy=0;exitX=0;exitY=1;exitDx=0;exitDy=0;" edge="1" parent="1" source="ky9Ritnjeez94bwjMqiF-9">
          <mxGeometry relative="1" as="geometry">
            <mxPoint x="440" y="390" as="sourcePoint" />
            <mxPoint x="195" y="642.5" as="targetPoint" />
          </mxGeometry>
        </mxCell>
        <mxCell id="ky9Ritnjeez94bwjMqiF-63" value="" style="endArrow=none;html=1;rounded=0;exitX=0.25;exitY=1;exitDx=0;exitDy=0;entryX=0.5;entryY=0;entryDx=0;entryDy=0;" edge="1" parent="1" source="ky9Ritnjeez94bwjMqiF-9" target="ky9Ritnjeez94bwjMqiF-58">
          <mxGeometry relative="1" as="geometry">
            <mxPoint x="360" y="620" as="sourcePoint" />
            <mxPoint x="520" y="620" as="targetPoint" />
          </mxGeometry>
        </mxCell>
        <mxCell id="ky9Ritnjeez94bwjMqiF-64" value="" style="endArrow=none;html=1;rounded=0;exitX=0.5;exitY=1;exitDx=0;exitDy=0;entryX=0;entryY=0;entryDx=0;entryDy=0;" edge="1" parent="1" source="ky9Ritnjeez94bwjMqiF-9" target="ky9Ritnjeez94bwjMqiF-59">
          <mxGeometry relative="1" as="geometry">
            <mxPoint x="360" y="620" as="sourcePoint" />
            <mxPoint x="520" y="620" as="targetPoint" />
          </mxGeometry>
        </mxCell>
        <mxCell id="ky9Ritnjeez94bwjMqiF-65" value="" style="endArrow=none;html=1;rounded=0;exitX=1;exitY=1;exitDx=0;exitDy=0;entryX=0;entryY=0.5;entryDx=0;entryDy=0;" edge="1" parent="1" source="ky9Ritnjeez94bwjMqiF-9" target="ky9Ritnjeez94bwjMqiF-60">
          <mxGeometry relative="1" as="geometry">
            <mxPoint x="360" y="620" as="sourcePoint" />
            <mxPoint x="520" y="620" as="targetPoint" />
          </mxGeometry>
        </mxCell>
        <mxCell id="ky9Ritnjeez94bwjMqiF-67" value="Fecha" style="ellipse;whiteSpace=wrap;html=1;align=center;" vertex="1" parent="1">
          <mxGeometry x="364" y="470" width="100" height="40" as="geometry" />
        </mxCell>
        <mxCell id="ky9Ritnjeez94bwjMqiF-68" value="" style="endArrow=none;html=1;rounded=0;exitX=1;exitY=0.5;exitDx=0;exitDy=0;entryX=0;entryY=0.5;entryDx=0;entryDy=0;" edge="1" parent="1" source="ky9Ritnjeez94bwjMqiF-8" target="ky9Ritnjeez94bwjMqiF-67">
          <mxGeometry relative="1" as="geometry">
            <mxPoint x="380" y="540" as="sourcePoint" />
            <mxPoint x="540" y="540" as="targetPoint" />
          </mxGeometry>
        </mxCell>
        <mxCell id="ky9Ritnjeez94bwjMqiF-69" value="Matricula" style="ellipse;whiteSpace=wrap;html=1;align=center;fontStyle=4;" vertex="1" parent="1">
          <mxGeometry x="112.5" y="630" width="85" height="25" as="geometry" />
        </mxCell>
        <mxCell id="ky9Ritnjeez94bwjMqiF-70" value="DNI" style="ellipse;whiteSpace=wrap;html=1;align=center;fontStyle=4;" vertex="1" parent="1">
          <mxGeometry x="30" y="390" width="90" height="35" as="geometry" />
        </mxCell>
        <mxCell id="ky9Ritnjeez94bwjMqiF-71" value="CÃ³digo" style="ellipse;whiteSpace=wrap;html=1;align=center;fontStyle=4;" vertex="1" parent="1">
          <mxGeometry x="690" y="640" width="100" height="40" as="geometry" />
        </mxCell>
        <mxCell id="ky9Ritnjeez94bwjMqiF-72" value="Codigo_paq" style="ellipse;whiteSpace=wrap;html=1;align=center;fontStyle=4;" vertex="1" parent="1">
          <mxGeometry x="770" y="230" width="100" height="40" as="geometry" />
        </mxCell>
      </root>
    </mxGraphModel>
  </diagram>
</mxfile>
